{
.appVersion = "919";
copyright = "vernon adams";
customParameters = (
{
name = licenseURL;
value = "http://scripts.sil.org/OFL";
},
{
name = vendorID;
value = newt;
},
{
name = unicodeRanges;
value = (
0
);
},
{
name = codePageRanges;
value = (
1252
);
},
{
name = license;
value = "This Font Software is licensed under the SIL Open Font License, Version 1.1. This license is available with a FAQ at: http://scripts.sil.org/OFL";
},
{
name = fsType;
value = 0;
}
);
date = "2016-09-01 13:28:30 +0000";
designer = "vernon adams";
designerURL = newtypography.co.uk;
familyName = Trocchi;
featurePrefixes = (
{
automatic = 1;
code = "languagesystem DFLT dflt;\012languagesystem latn dflt;\012languagesystem latn CAT;\012languagesystem latn ROM;\012languagesystem latn MOL;\012";
name = Languagesystems;
}
);
features = (
{
automatic = 1;
code = "feature locl;\012feature sups;\012feature frac;\012feature ordn;\012";
name = aalt;
},
{
automatic = 1;
code = "script latn;\012language CAT;\012sub  l' periodcentered' l by ldot;\012sub  L' periodcentered' L by Ldot;\012language ROM;\012sub Scedilla by Scommaaccent;\012sub scedilla by scommaaccent;\012language MOL;\012sub Scedilla by Scommaaccent;\012sub scedilla by scommaaccent;\012";
name = locl;
},
{
automatic = 1;
code = "sub one by onesuperior;\012sub two by twosuperior;\012sub three by threesuperior;\012sub four by foursuperior;\012";
name = sups;
},
{
automatic = 1;
code = "sub one slash four by onequarter;\012sub one slash two by onehalf;\012sub three slash four by threequarters;\012";
name = frac;
},
{
automatic = 1;
code = "sub [zero one two three four five six seven eight nine] [A a]' by ordfeminine;\012sub [zero one two three four five six seven eight nine] [O o]' by ordmasculine;\012";
name = ordn;
},
{
automatic = 1;
code = "sub f i by fi;\012sub f l by fl;\012";
name = liga;
}
);
fontMaster = (
{
ascender = 2085;
capHeight = 700;
customParameters = (
{
name = typoAscender;
value = 2085;
},
{
name = typoDescender;

glyphs = (
{
glyphname = A;
lastChange = "2016-09-01 13:28:17 +0000";
layers = (
{
layerId = "B47A5128-4537-4D9D-B9B8-D866CD9145B5";
paths = (
{
closed = 1;
nodes = (
"514 504 LINE",
"1092 504 LINE",
"1231 143 LINE",
"1008 143 LINE",
"1008 0 LINE",
"1655 0 LINE",
"1655 143 LINE",
"1487 143 LINE",
"952 1505 LINE",
"715 1505 LINE",
"188 143 LINE",
"8 143 LINE",
"8 0 LINE",
"635 0 LINE",
"635 143 LINE",
"383 143 LINE"
);
},
{
closed = 1;
nodes = (
"795 1309 LINE",
"1042 631 LINE",
"561 631 LINE"
);
}
);
width = 1662;
}
);
leftKerningGroup = A;
note = A;
rightKerningGroup = A;
unicode = 0041;
},
{
glyphname = Aacute;
lastChange = "2016-09-01 13:28:17 +0000";
layers = (
{
layerId = "B47A5128-4537-4D9D-B9B8-D866CD9145B5";
paths = (
{
closed = 1;
nodes = (
"514 504 LINE",
"1092 504 LINE",
"1231 143 LINE",
"1008 143 LINE",
"1008 0 LINE",
"1655 0 LINE",
"1655 143 LINE",
"1487 143 LINE",
"952 1505 LINE",
"715 1505 LINE",
"188 143 LINE",
"8 143 LINE",
"8 0 LINE",
"635 0 LINE",
"635 143 LINE",
"383 143 LINE"
);
},
{
closed = 1;
nodes = (
"795 1309 LINE",
"1042 631 LINE",
"561 631 LINE"
);
},
{
closed = 1;
nodes = (
"942 1984 LINE SMOOTH",
"837 1909 OFFCURVE",
"653 1769 OFFCURVE",
"545 1677 CURVE",
"574 1638 LINE",
"688 1682 LINE SMOOTH",
"841 1739 OFFCURVE",
"1062 1842 OFFCURVE",
"1121 1902 CURVE",
"1020 2041 LINE"
);
}
);
width = 1662;
}
);
leftKerningGroup = A;
note = Aacute;
rightKerningGroup = A;
unicode = 00C1;
},
{
glyphname = Abreve;
lastChange = "2016-09-01 13:28:17 +0000";
layers = (
{
layerId = "B47A5128-4537-4D9D-B9B8-D866CD9145B5";
paths = (
{
closed = 1;
nodes = (
"939 1807 OFFCURVE",
"887 1757 OFFCURVE",
"831 1757 CURVE SMOOTH",
"772 1757 OFFCURVE",
"721 1808 OFFCURVE",
"720 1884 CURVE",
"591 1884 LINE",
"594 1831 OFFCURVE",
"614 1774 OFFCURVE",
"652 1723 CURVE SMOOTH",
"690 1672 OFFCURVE",
"756 1638 OFFCURVE",
"833 1638 CURVE SMOOTH",
"910 1638 OFFCURVE",
"976 1674 OFFCURVE",
"1013 1724 CURVE SMOOTH",
"1049 1774 OFFCURVE",
"1069 1829 OFFCURVE",
"1072 1880 CURVE",
"943 1880 LINE"
);
},
{
closed = 1;
nodes = (
"514 504 LINE",
"1092 504 LINE",
"1231 143 LINE",
"1008 143 LINE",
"1008 0 LINE",
"1655 0 LINE",
"1655 143 LINE",
"1487 143 LINE",
"952 1505 LINE",
"715 1505 LINE",
"188 143 LINE",
"8 143 LINE",
"8 0 LINE",
"635 0 LINE",
"635 143 LINE",
"383 143 LINE"
);
},
{
closed = 1;
nodes = (
"795 1309 LINE",
"1042 631 LINE",
"561 631 LINE"
);
}
);
width = 1662;
}
);
leftKerningGroup = A;
note = Abreve;
rightKerningGroup = A;
unicode = 0102;
},
{
glyphname = Acircumflex;
lastChange = "2016-09-01 13:28:17 +0000";
layers = (
{
layerId = "B47A5128-4537-4D9D-B9B8-D866CD9145B5";
paths = (
{
closed = 1;
nodes = (
"882 1864 OFFCURVE",
"958 1773 OFFCURVE",
"1059 1638 CURVE",
"1158 1728 LINE",
"830 2085 LINE",
"504 1734 LINE",
"603 1642 LINE",
"642 1693 LINE SMOOTH",
"695 1762 OFFCURVE",
"783 1870 OFFCURVE",
"830 1911 CURVE"
);
},
{
closed = 1;
nodes = (
"514 504 LINE",
"1092 504 LINE",
"1231 143 LINE",
"1008 143 LINE",
"1008 0 LINE",
"1655 0 LINE",
"1655 143 LINE",
"1487 143 LINE",
"952 1505 LINE",
"715 1505 LINE",
"188 143 LINE",
"8 143 LINE",
"8 0 LINE",
"635 0 LINE",
"635 143 LINE",
"383 143 LINE"
);
},
{
closed = 1;
nodes = (
"795 1309 LINE",
"1042 631 LINE",
"561 631 LINE"
);
}
);
width = 1662;
}
);
leftKerningGroup = A;
note = Acircumflex;
rightKerningGroup = A;
unicode = 00C2;
},
{
glyphname = Adieresis;
lastChange = "2016-09-01 13:28:17 +0000";
layers = (
{
layerId = "B47A5128-4537-4D9D-B9B8-D866CD9145B5";
paths = (
{
closed = 1;
nodes = (
"456 1700 OFFCURVE",
"517 1638 OFFCURVE",
"593 1638 CURVE SMOOTH",
"666 1638 OFFCURVE",
"730 1702 OFFCURVE",
"730 1775 CURVE SMOOTH",
"730 1851 OFFCURVE",
"668 1914 OFFCURVE",
"593 1914 CURVE SMOOTH",
"517 1914 OFFCURVE",
"456 1851 OFFCURVE",
"456 1775 CURVE SMOOTH"
);
},
{
closed = 1;
nodes = (
"931 1700 OFFCURVE",
"992 1638 OFFCURVE",
"1068 1638 CURVE SMOOTH",
"1143 1638 OFFCURVE",
"1208 1702 OFFCURVE",
"1208 1775 CURVE SMOOTH",
"1208 1851 OFFCURVE",
"1143 1914 OFFCURVE",
"1068 1914 CURVE SMOOTH",
"992 1914 OFFCURVE",
"931 1851 OFFCURVE",
"931 1775 CURVE SMOOTH"
);
},
{
closed = 1;
nodes = (
"514 504 LINE",
"1092 504 LINE",
"1231 143 LINE",
"1008 143 LINE",
"1008 0 LINE",
"1655 0 LINE",
"1655 143 LINE",
"1487 143 LINE",
"952 1505 LINE",
"715 1505 LINE",
"188 143 LINE",
"8 143 LINE",
"8 0 LINE",
"635 0 LINE",
"635 143 LINE",
"383 143 LINE"
);
},
{
closed = 1;
nodes = (
"795 1309 LINE",
"1042 631 LINE",
"561 631 LINE"
);
}
);
width = 1662;
}
);
leftKerningGroup = A;
note = Adieresis;
rightKerningGroup = A;
unicode = 00C4;
},
{
glyphname = Agrave;
lastChange = "2016-09-01 13:28:17 +0000";
layers = (
{
layerId = "B47A5128-4537-4D9D-B9B8-D866CD9145B5";
paths = (
{
closed = 1;
nodes = (
"514 504 LINE",
"1092 504 LINE",
"1231 143 LINE",
"1008 143 LINE",
"1008 0 LINE",
"1655 0 LINE",
"1655 143 LINE",
"1487 143 LINE",
"952 1505 LINE",
"715 1505 LINE",
"188 143 LINE",
"8 143 LINE",
"8 0 LINE",
"635 0 LINE",
"635 143 LINE",
"383 143 LINE"
);
},
{
closed = 1;
nodes = (
"795 1309 LINE",
"1042 631 LINE",
"561 631 LINE"
);
},
{
closed = 1;
nodes = (
"582 1863 OFFCURVE",
"688 1806 OFFCURVE",
"779 1766 CURVE SMOOTH",
"870 1725 OFFCURVE",
"1002 1672 OFFCURVE",
"1043 1657 CURVE SMOOTH",
"1064 1649 OFFCURVE",
"1080 1643 OFFCURVE",
"1092 1638 CURVE",
"1121 1677 LINE",
"1000 1781 OFFCURVE",
"841 1902 OFFCURVE",
"646 2041 CURVE",
"545 1902 LINE"
);
}
);
width = 1662;
}
);
leftKerningGroup = A;
note = Agrave;
rightKerningGroup = A;
unicode = 00C0;
},
{
glyphname = Amacron;
lastChange = "2016-09-01 13:28:17 +0000";
layers = (
{
layerId = "B47A5128-4537-4D9D-B9B8-D866CD9145B5";
paths = (
{
closed = 1;
nodes = (
"569 1776 LINE",
"569 1638 LINE",
"1151 1638 LINE",
"1151 1776 LINE"
);
},
{
closed = 1;
nodes = (
"514 504 LINE",
"1092 504 LINE",
"1231 143 LINE",
"1008 143 LINE",
"1008 0 LINE",
"1655 0 LINE",
"1655 143 LINE",
"1487 143 LINE",
"952 1505 LINE",
"715 1505 LINE",
"188 143 LINE",
"8 143 LINE",
"8 0 LINE",
"635 0 LINE",
"635 143 LINE",
"383 143 LINE"
);
},
{
closed = 1;
nodes = (
"795 1309 LINE",
"1042 631 LINE",
"561 631 LINE"
);
}
);
width = 1662;
}
);
leftKerningGroup = A;
note = Amacron;
rightKerningGroup = A;
unicode = 0100;
},
{
glyphname = Aogonek;
lastChange = "2016-09-01 13:28:17 +0000";
layers = (
{
layerId = "B47A5128-4537-4D9D-B9B8-D866CD9145B5";
paths = (
{
closed = 1;
nodes = (
"1198 -285 OFFCURVE",
"1316 -385 OFFCURVE",
"1487 -385 CURVE",
"1514 -246 LINE",
"1395 -230 OFFCURVE",
"1358 -184 OFFCURVE",
"1358 -123 CURVE SMOOTH",
"1358 -68 OFFCURVE",
"1411 -19 OFFCURVE",
"1516 0 CURVE",
"1516 31 LINE",
"1443 31 OFFCURVE",
"1368 14 OFFCURVE",
"1305 -17 CURVE SMOOTH",
"1241 -49 OFFCURVE",
"1198 -106 OFFCURVE",
"1198 -174 CURVE SMOOTH"
);
},
{
closed = 1;
nodes = (
"514 504 LINE",
"1092 504 LINE",
"1231 143 LINE",
"1008 143 LINE",
"1008 0 LINE",
"1655 0 LINE",
"1655 143 LINE",
"1487 143 LINE",
"952 1505 LINE",
"715 1505 LINE",
"188 143 LINE",
"8 143 LINE",
"8 0 LINE",
"635 0 LINE",
"635 143 LINE",
"383 143 LINE"
);
},
{
closed = 1;
nodes = (
"795 1309 LINE",
"1042 631 LINE",
"561 631 LINE"
);
}
);
width = 1662;
}
);
leftKerningGroup = A;
note = Aogonek;
rightKerningGroup = A;
unicode = 0104;
},
{
glyphname = Aring;
lastChange = "2016-09-01 13:28:17 +0000";
layers = (
{
layerId = "B47A5128-4537-4D9D-B9B8-D866CD9145B5";
paths = (
{
closed = 1;
nodes = (
"933 1777 OFFCURVE",
"944 1746 OFFCURVE",
"944 1707 CURVE SMOOTH",
"944 1630 OFFCURVE",
"891 1582 OFFCURVE",
"831 1582 CURVE SMOOTH",
"771 1582 OFFCURVE",
"720 1628 OFFCURVE",
"720 1707 CURVE SMOOTH",
"720 1786 OFFCURVE",
"773 1834 OFFCURVE",
"833 1834 CURVE SMOOTH",
"863 1834 OFFCURVE",
"889 1823 OFFCURVE",
"911 1800 CURVE SMOOTH"
);
},
{
closed = 1;
nodes = (
"632 1600 OFFCURVE",
"710 1524 OFFCURVE",
"833 1524 CURVE SMOOTH",
"954 1524 OFFCURVE",
"1032 1602 OFFCURVE",
"1032 1707 CURVE SMOOTH",
"1032 1812 OFFCURVE",
"954 1889 OFFCURVE",
"833 1889 CURVE SMOOTH",
"709 1889 OFFCURVE",
"632 1812 OFFCURVE",
"632 1707 CURVE SMOOTH"
);
},
{
closed = 1;
nodes = (
"514 504 LINE",
"1092 504 LINE",
"1231 143 LINE",
"1008 143 LINE",
"1008 0 LINE",
"1655 0 LINE",
"1655 143 LINE",
"1487 143 LINE",
"952 1505 LINE",
"715 1505 LINE",
"188 143 LINE",
"8 143 LINE",
"8 0 LINE",
"635 0 LINE",
"635 143 LINE",
"383 143 LINE"
);
},
{
closed = 1;
nodes = (
"795 1309 LINE",
"1042 631 LINE",
"561 631 LINE"
);
}
);
width = 1662;
}
);
leftKerningGroup = A;
note = Aring;
rightKerningGroup = A;
unicode = 00C5;
},
{
glyphname = Atilde;
lastChange = "2016-09-01 13:28:17 +0000";
layers = (
{
layerId = "B47A5128-4537-4D9D-B9B8-D866CD9145B5";
paths = (
{
closed = 1;
nodes = (
"1066 1732 OFFCURVE",
"1087 1708 OFFCURVE",
"1087 1640 CURVE",
"1175 1640 LINE",
"1175 1817 OFFCURVE",
"1130 1883 OFFCURVE",
"1007 1883 CURVE SMOOTH",
"969 1883 OFFCURVE",
"909 1867 OFFCURVE",
"828 1836 CURVE SMOOTH",
"747 1805 OFFCURVE",
"692 1789 OFFCURVE",
"665 1789 CURVE SMOOTH",
"598 1789 OFFCURVE",
"577 1813 OFFCURVE",
"577 1881 CURVE",
"489 1881 LINE",
"489 1704 OFFCURVE",
"534 1638 OFFCURVE",
"657 1638 CURVE SMOOTH",
"695 1638 OFFCURVE",
"755 1654 OFFCURVE",
"836 1685 CURVE SMOOTH",
"917 1716 OFFCURVE",
"972 1732 OFFCURVE",
"999 1732 CURVE SMOOTH"
);
},
{
closed = 1;
nodes = (
"514 504 LINE",
"1092 504 LINE",
"1231 143 LINE",
"1008 143 LINE",
"1008 0 LINE",
"1655 0 LINE",
"1655 143 LINE",
"1487 143 LINE",
"952 1505 LINE",
"715 1505 LINE",
"188 143 LINE",
"8 143 LINE",
"8 0 LINE",
"635 0 LINE",
"635 143 LINE",
"383 143 LINE"
);
},
{
closed = 1;
nodes = (
"795 1309 LINE",
"1042 631 LINE",
"561 631 LINE"
);
}
);
width = 1662;
}
);
leftKerningGroup = A;
note = Atilde;
rightKerningGroup = A;
unicode = 00C3;
},
{
glyphname = AE;
lastChange = "2016-09-01 13:28:17 +0000";
layers = (
{
layerId = "B47A5128-4537-4D9D-B9B8-D866CD9145B5";
paths = (
{
closed = 1;
nodes = (
"598 504 LINE",
"1059 504 LINE",
"1059 137 LINE",
"874 137 LINE",
"874 0 LINE",
"2073 0 LINE",
"2073 571 LINE",
"1892 571 LINE",
"1892 137 LINE",
"1276 137 LINE",
"1276 698 LINE",
"1567 698 LINE",
"1567 424 LINE",
"1700 424 LINE",
"1700 1038 LINE",
"1567 1038 LINE",
"1567 813 LINE",
"1276 813 LINE",
"1276 1335 LINE",
"1892 1335 LINE",
"1892 899 LINE",
"2073 899 LINE",
"2073 1479 LINE",
"608 1479 LINE",
"608 1335 LINE",
"874 1335 LINE",
"180 137 LINE",
"0 137 LINE",
"0 0 LINE",
"618 0 LINE",
"618 137 LINE",
"401 137 LINE"
);
},
{
closed = 1;
nodes = (
"1059 631 LINE",
"668 631 LINE",
"1059 1335 LINE"
);
}
);
width = 2164;
}
);
note = AE;
unicode = 00C6;
},
{
glyphname = B;
lastChange = "2016-09-01 13:28:17 +0000";
layers = (
{
layerId = "B47A5128-4537-4D9D-B9B8-D866CD9145B5";
paths = (
{
closed = 1;
nodes = (
"594 1362 LINE SMOOTH",
"642 1362 OFFCURVE",
"683 1361 OFFCURVE",
"717 1360 CURVE SMOOTH",
"784 1356 OFFCURVE",
"863 1348 OFFCURVE",
"911 1333 CURVE SMOOTH",
"959 1317 OFFCURVE",
"1009 1291 OFFCURVE",
"1035 1255 CURVE SMOOTH",
"1061 1218 OFFCURVE",
"1077 1167 OFFCURVE",
"1077 1100 CURVE SMOOTH",
"1077 1016 OFFCURVE",
"1033 950 OFFCURVE",
"965 915 CURVE SMOOTH",
"896 879 OFFCURVE",
"816 862 OFFCURVE",
"731 862 CURVE SMOOTH",
"514 862 LINE",
"514 1362 LINE"
);
},
{
closed = 1;
nodes = (
"731 729 LINE SMOOTH",
"835 729 OFFCURVE",
"933 703 OFFCURVE",
"1011 655 CURVE SMOOTH",
"1089 606 OFFCURVE",
"1139 523 OFFCURVE",
"1139 420 CURVE SMOOTH",
"1139 359 OFFCURVE",
"1130 310 OFFCURVE",
"1107 273 CURVE SMOOTH",
"1083 236 OFFCURVE",
"1057 209 OFFCURVE",
"1011 190 CURVE SMOOTH",
"965 171 OFFCURVE",
"921 159 OFFCURVE",
"853 152 CURVE SMOOTH",
"784 145 OFFCURVE",
"724 143 OFFCURVE",
"633 143 CURVE SMOOTH",
"514 143 LINE",
"514 729 LINE"
);
},
{
closed = 1;
nodes = (
"742 0 OFFCURVE",
"783 1 OFFCURVE",
"818 2 CURVE SMOOTH",
"888 5 OFFCURVE",
"1001 18 OFFCURVE",
"1075 39 CURVE SMOOTH",
"1149 60 OFFCURVE",
"1236 103 OFFCURVE",
"1287 160 CURVE SMOOTH",
"1338 216 OFFCURVE",
"1374 304 OFFCURVE",
"1374 412 CURVE SMOOTH",
"1374 621 OFFCURVE",
"1247 753 OFFCURVE",
"1018 809 CURVE",
"1199 861 OFFCURVE",
"1294 962 OFFCURVE",
"1294 1133 CURVE SMOOTH",
"1294 1234 OFFCURVE",
"1255 1318 OFFCURVE",
"1191 1371 CURVE SMOOTH",
"1126 1423 OFFCURVE",
"1049 1460 OFFCURVE",
"953 1479 CURVE SMOOTH",
"857 1498 OFFCURVE",
"777 1505 OFFCURVE",
"688 1505 CURVE SMOOTH",
"33 1505 LINE",
"33 1362 LINE",
"279 1362 LINE",
"279 143 LINE",
"33 143 LINE",
"33 0 LINE",
"696 0 LINE SMOOTH"
);
}
);
width = 1445;
}
);
leftKerningGroup = B;
note = B;
rightKerningGroup = B;
unicode = 0042;
},
{
glyphname = C;
lastChange = "2016-09-01 13:28:17 +0000";
layers = (
{
layerId = "B47A5128-4537-4D9D-B9B8-D866CD9145B5";
paths = (
{
closed = 1;
nodes = (
"601 1536 OFFCURVE",
"412 1454 OFFCURVE",
"285 1319 CURVE SMOOTH",
"158 1183 OFFCURVE",
"84 988 OFFCURVE",
"84 768 CURVE SMOOTH",
"84 555 OFFCURVE",
"157 353 OFFCURVE",
"280 209 CURVE SMOOTH",
"403 65 OFFCURVE",
"588 -27 OFFCURVE",
"795 -27 CURVE SMOOTH",
"1139 -27 OFFCURVE",
"1359 149 OFFCURVE",
"1430 457 CURVE",
"1296 522 LINE",
"1273 434 OFFCURVE",
"1225 349 OFFCURVE",
"1154 278 CURVE SMOOTH",
"1083 206 OFFCURVE",
"975 158 OFFCURVE",
"858 158 CURVE SMOOTH",
"702 158 OFFCURVE",
"565 236 OFFCURVE",
"481 353 CURVE SMOOTH",
"397 469 OFFCURVE",
"348 617 OFFCURVE",
"348 764 CURVE SMOOTH",
"348 1148 OFFCURVE",
"543 1396 OFFCURVE",
"815 1396 CURVE SMOOTH",
"983 1396 OFFCURVE",
"1117 1317 OFFCURVE",
"1182 1217 CURVE",
"1102 1217 OFFCURVE",
"1004 1160 OFFCURVE",
"1004 1057 CURVE SMOOTH",
"1004 954 OFFCURVE",
"1073 891 OFFCURVE",
"1174 891 CURVE SMOOTH",
"1293 891 OFFCURVE",
"1370 982 OFFCURVE",
"1370 1073 CURVE SMOOTH",
"1370 1161 OFFCURVE",
"1343 1241 OFFCURVE",
"1288 1313 CURVE SMOOTH",
"1179 1457 OFFCURVE",
"1000 1536 OFFCURVE",
"817 1536 CURVE SMOOTH"
);
}
);
width = 1447;
}
);
leftKerningGroup = C;
note = C;
unicode = 0043;
},
{
glyphname = Cacute;
lastChange = "2016-09-01 13:28:17 +0000";
layers = (
{
layerId = "B47A5128-4537-4D9D-B9B8-D866CD9145B5";
paths = (
{
closed = 1;
nodes = (
"601 1536 OFFCURVE",
"412 1454 OFFCURVE",
"285 1319 CURVE SMOOTH",
"158 1183 OFFCURVE",
"84 988 OFFCURVE",
"84 768 CURVE SMOOTH",
"84 555 OFFCURVE",
"157 353 OFFCURVE",
"280 209 CURVE SMOOTH",
"403 65 OFFCURVE",
"588 -27 OFFCURVE",
"795 -27 CURVE SMOOTH",
"1139 -27 OFFCURVE",
"1359 149 OFFCURVE",
"1430 457 CURVE",
"1296 522 LINE",
"1273 434 OFFCURVE",
"1225 349 OFFCURVE",
"1154 278 CURVE SMOOTH",
"1083 206 OFFCURVE",
"975 158 OFFCURVE",
"858 158 CURVE SMOOTH",
"702 158 OFFCURVE",
"565 236 OFFCURVE",
"481 353 CURVE SMOOTH",
"397 469 OFFCURVE",
"348 617 OFFCURVE",
"348 764 CURVE SMOOTH",
"348 1148 OFFCURVE",
"543 1396 OFFCURVE",
"815 1396 CURVE SMOOTH",
"983 1396 OFFCURVE",
"1117 1317 OFFCURVE",
"1182 1217 CURVE",
"1102 1217 OFFCURVE",
"1004 1160 OFFCURVE",
"1004 1057 CURVE SMOOTH",
"1004 954 OFFCURVE",
"1073 891 OFFCURVE",
"1174 891 CURVE SMOOTH",
"1293 891 OFFCURVE",
"1370 982 OFFCURVE",
"1370 1073 CURVE SMOOTH",
"1370 1161 OFFCURVE",
"1343 1241 OFFCURVE",
"1288 1313 CURVE SMOOTH",
"1179 1457 OFFCURVE",
"1000 1536 OFFCURVE",
"817 1536 CURVE SMOOTH"
);
},
{
closed = 1;
nodes = (
"926 1984 LINE SMOOTH",
"821 1909 OFFCURVE",
"637 1769 OFFCURVE",
"529 1677 CURVE",
"558 1638 LINE",
"672 1682 LINE SMOOTH",
"825 1739 OFFCURVE",
"1046 1842 OFFCURVE",
"1105 1902 CURVE",
"1004 2041 LINE"
);
}
);
width = 1447;
}
);
note = Cacute;
unicode = 0106;
},
{
glyphname = Ccaron;
lastChange = "2016-09-01 13:28:17 +0000";
layers = (
{
layerId = "B47A5128-4537-4D9D-B9B8-D866CD9145B5";
paths = (
{
closed = 1;
nodes = (
"766 1859 OFFCURVE",
"690 1950 OFFCURVE",
"589 2085 CURVE",
"490 1995 LINE",
"818 1638 LINE",
"1144 1988 LINE",
"1045 2081 LINE",
"1006 2029 LINE SMOOTH",
"953 1961 OFFCURVE",
"865 1853 OFFCURVE",
"818 1812 CURVE"
);
},
{
closed = 1;
nodes = (
"601 1536 OFFCURVE",
"412 1454 OFFCURVE",
"285 1319 CURVE SMOOTH",
"158 1183 OFFCURVE",
"84 988 OFFCURVE",
"84 768 CURVE SMOOTH",
"84 555 OFFCURVE",
"157 353 OFFCURVE",
"280 209 CURVE SMOOTH",
"403 65 OFFCURVE",
"588 -27 OFFCURVE",
"795 -27 CURVE SMOOTH",
"1139 -27 OFFCURVE",
"1359 149 OFFCURVE",
"1430 457 CURVE",
"1296 522 LINE",
"1273 434 OFFCURVE",
"1225 349 OFFCURVE",
"1154 278 CURVE SMOOTH",
"1083 206 OFFCURVE",
"975 158 OFFCURVE",
"858 158 CURVE SMOOTH",
"702 158 OFFCURVE",
"565 236 OFFCURVE",
"481 353 CURVE SMOOTH",
"397 469 OFFCURVE",
"348 617 OFFCURVE",
"348 764 CURVE SMOOTH",
"348 1148 OFFCURVE",
"543 1396 OFFCURVE",
"815 1396 CURVE SMOOTH",
"983 1396 OFFCURVE",
"1117 1317 OFFCURVE",
"1182 1217 CURVE",
"1102 1217 OFFCURVE",
"1004 1160 OFFCURVE",
"1004 1057 CURVE SMOOTH",
"1004 954 OFFCURVE",
"1073 891 OFFCURVE",
"1174 891 CURVE SMOOTH",
"1293 891 OFFCURVE",
"1370 982 OFFCURVE",
"1370 1073 CURVE SMOOTH",
"1370 1161 OFFCURVE",
"1343 1241 OFFCURVE",
"1288 1313 CURVE SMOOTH",
"1179 1457 OFFCURVE",
"1000 1536 OFFCURVE",
"817 1536 CURVE SMOOTH"
);
}
);
width = 1447;
}
);
note = Ccaron;
unicode = 010C;
},
{
glyphname = Ccedilla;
lastChange = "2016-09-01 13:28:17 +0000";
layers = (
{
layerId = "B47A5128-4537-4D9D-B9B8-D866CD9145B5";
paths = (
{
closed = 1;
nodes = (
"793 -12 LINE SMOOTH",
"678 -12 OFFCURVE",
"584 -103 OFFCURVE",
"584 -180 CURVE SMOOTH",
"584 -197 OFFCURVE",
"600 -220 OFFCURVE",
"632 -251 CURVE SMOOTH",
"663 -282 OFFCURVE",
"679 -305 OFFCURVE",
"679 -319 CURVE SMOOTH",
"679 -332 OFFCURVE",
"664 -345 OFFCURVE",
"635 -357 CURVE SMOOTH",
"606 -369 OFFCURVE",
"572 -378 OFFCURVE",
"533 -385 CURVE",
"562 -456 LINE",
"590 -451 LINE SMOOTH",
"627 -444 OFFCURVE",
"684 -427 OFFCURVE",
"737 -403 CURVE SMOOTH",
"789 -379 OFFCURVE",
"832 -336 OFFCURVE",
"832 -288 CURVE SMOOTH",
"832 -12 LINE"
);
},
{
closed = 1;
nodes = (
"601 1536 OFFCURVE",
"412 1454 OFFCURVE",
"285 1319 CURVE SMOOTH",
"158 1183 OFFCURVE",
"84 988 OFFCURVE",
"84 768 CURVE SMOOTH",
"84 555 OFFCURVE",
"157 353 OFFCURVE",
"280 209 CURVE SMOOTH",
"403 65 OFFCURVE",
"588 -27 OFFCURVE",
"795 -27 CURVE SMOOTH",
"1139 -27 OFFCURVE",
"1359 149 OFFCURVE",
"1430 457 CURVE",
"1296 522 LINE",
"1273 434 OFFCURVE",
"1225 349 OFFCURVE",
"1154 278 CURVE SMOOTH",
"1083 206 OFFCURVE",
"975 158 OFFCURVE",
"858 158 CURVE SMOOTH",
"702 158 OFFCURVE",
"565 236 OFFCURVE",
"481 353 CURVE SMOOTH",
"397 469 OFFCURVE",
"348 617 OFFCURVE",
"348 764 CURVE SMOOTH",
"348 1148 OFFCURVE",
"543 1396 OFFCURVE",
"815 1396 CURVE SMOOTH",
"983 1396 OFFCURVE",
"1117 1317 OFFCURVE",
"1182 1217 CURVE",
"1102 1217 OFFCURVE",
"1004 1160 OFFCURVE",
"1004 1057 CURVE SMOOTH",
"1004 954 OFFCURVE",
"1073 891 OFFCURVE",
"1174 891 CURVE SMOOTH",
"1293 891 OFFCURVE",
"1370 982 OFFCURVE",
"1370 1073 CURVE SMOOTH",
"1370 1161 OFFCURVE",
"1343 1241 OFFCURVE",
"1288 1313 CURVE SMOOTH",
"1179 1457 OFFCURVE",
"1000 1536 OFFCURVE",
"817 1536 CURVE SMOOTH"
);
}
);
width = 1447;
}
);
leftKerningGroup = C;
note = Ccedilla;
unicode = 00C7;
},
{
glyphname = Ccircumflex;
lastChange = "2016-09-01 13:28:17 +0000";
layers = (
{
layerId = "B47A5128-4537-4D9D-B9B8-D866CD9145B5";
paths = (
{
closed = 1;
nodes = (
"856 1864 OFFCURVE",
"932 1773 OFFCURVE",
"1033 1638 CURVE",
"1132 1728 LINE",
"804 2085 LINE",
"478 1734 LINE",
"577 1642 LINE",
"616 1693 LINE SMOOTH",
"669 1762 OFFCURVE",
"757 1870 OFFCURVE",
"804 1911 CURVE"
);
},
{
closed = 1;
nodes = (
"601 1536 OFFCURVE",
"412 1454 OFFCURVE",
"285 1319 CURVE SMOOTH",
"158 1183 OFFCURVE",
"84 988 OFFCURVE",
"84 768 CURVE SMOOTH",
"84 555 OFFCURVE",
"157 353 OFFCURVE",
"280 209 CURVE SMOOTH",
"403 65 OFFCURVE",
"588 -27 OFFCURVE",
"795 -27 CURVE SMOOTH",
"1139 -27 OFFCURVE",
"1359 149 OFFCURVE",
"1430 457 CURVE",
"1296 522 LINE",
"1273 434 OFFCURVE",
"1225 349 OFFCURVE",
"1154 278 CURVE SMOOTH",
"1083 206 OFFCURVE",
"975 158 OFFCURVE",
"858 158 CURVE SMOOTH",
"702 158 OFFCURVE",
"565 236 OFFCURVE",
"481 353 CURVE SMOOTH",
"397 469 OFFCURVE",
"348 617 OFFCURVE",
"348 764 CURVE SMOOTH",
"348 1148 OFFCURVE",
"543 1396 OFFCURVE",
"815 1396 CURVE SMOOTH",
"983 1396 OFFCURVE",
"1117 1317 OFFCURVE",
"1182 1217 CURVE",
"1102 1217 OFFCURVE",
"1004 1160 OFFCURVE",
"1004 1057 CURVE SMOOTH",
"1004 954 OFFCURVE",
"1073 891 OFFCURVE",
"1174 891 CURVE SMOOTH",
"1293 891 OFFCURVE",
"1370 982 OFFCURVE",
"1370 1073 CURVE SMOOTH",
"1370 1161 OFFCURVE",
"1343 1241 OFFCURVE",
"1288 1313 CURVE SMOOTH",
"1179 1457 OFFCURVE",
"1000 1536 OFFCURVE",
"817 1536 CURVE SMOOTH"
);
}
);
width = 1447;
}
);
note = Ccircumflex;
unicode = 0108;
},
{
glyphname = Cdotaccent;
lastChange = "2016-09-01 13:28:17 +0000";
layers = (
{
layerId = "B47A5128-4537-4D9D-B9B8-D866CD9145B5";
paths = (
{
closed = 1;
nodes = (
"668 1706 OFFCURVE",
"735 1638 OFFCURVE",
"816 1638 CURVE SMOOTH",
"896 1638 OFFCURVE",
"965 1706 OFFCURVE",
"965 1786 CURVE SMOOTH",
"965 1867 OFFCURVE",
"896 1935 OFFCURVE",
"816 1935 CURVE SMOOTH",
"735 1935 OFFCURVE",
"668 1869 OFFCURVE",
"668 1786 CURVE SMOOTH"
);
},
{
closed = 1;
nodes = (
"601 1536 OFFCURVE",
"412 1454 OFFCURVE",
"285 1319 CURVE SMOOTH",
"158 1183 OFFCURVE",
"84 988 OFFCURVE",
"84 768 CURVE SMOOTH",
"84 555 OFFCURVE",
"157 353 OFFCURVE",
"280 209 CURVE SMOOTH",
"403 65 OFFCURVE",
"588 -27 OFFCURVE",
"795 -27 CURVE SMOOTH",
"1139 -27 OFFCURVE",
"1359 149 OFFCURVE",
"1430 457 CURVE",
"1296 522 LINE",
"1273 434 OFFCURVE",
"1225 349 OFFCURVE",
"1154 278 CURVE SMOOTH",
"1083 206 OFFCURVE",
"975 158 OFFCURVE",
"858 158 CURVE SMOOTH",
"702 158 OFFCURVE",
"565 236 OFFCURVE",
"481 353 CURVE SMOOTH",
"397 469 OFFCURVE",
"348 617 OFFCURVE",
"348 764 CURVE SMOOTH",
"348 1148 OFFCURVE",
"543 1396 OFFCURVE",
"815 1396 CURVE SMOOTH",
"983 1396 OFFCURVE",
"1117 1317 OFFCURVE",
"1182 1217 CURVE",
"1102 1217 OFFCURVE",
"1004 1160 OFFCURVE",
"1004 1057 CURVE SMOOTH",
"1004 954 OFFCURVE",
"1073 891 OFFCURVE",
"1174 891 CURVE SMOOTH",
"1293 891 OFFCURVE",
"1370 982 OFFCURVE",
"1370 1073 CURVE SMOOTH",
"1370 1161 OFFCURVE",
"1343 1241 OFFCURVE",
"1288 1313 CURVE SMOOTH",
"1179 1457 OFFCURVE",
"1000 1536 OFFCURVE",
"817 1536 CURVE SMOOTH"
);
}
);
width = 1447;
}
);
note = Cdotaccent;
unicode = 010A;
},
{
glyphname = D;
lastChange = "2016-09-01 13:28:17 +0000";
layers = (
{
layerId = "B47A5128-4537-4D9D-B9B8-D866CD9145B5";
paths = (
{
closed = 1;
nodes = (
"569 1360 OFFCURVE",
"621 1358 OFFCURVE",
"669 1354 CURVE SMOOTH",
"765 1345 OFFCURVE",
"871 1322 OFFCURVE",
"951 1285 CURVE SMOOTH",
"1030 1248 OFFCURVE",
"1105 1185 OFFCURVE",
"1153 1103 CURVE SMOOTH",
"1200 1021 OFFCURVE",
"1229 903 OFFCURVE",
"1229 762 CURVE SMOOTH",
"1229 667 OFFCURVE",
"1217 584 OFFCURVE",
"1192 512 CURVE SMOOTH",
"1143 368 OFFCURVE",
"1060 280 OFFCURVE",
"936 222 CURVE SMOOTH",
"812 164 OFFCURVE",
"680 143 OFFCURVE",
"512 143 CURVE",
"512 1360 LINE"
);
},
{
closed = 1;
nodes = (
"276 143 LINE",
"33 143 LINE",
"33 0 LINE",
"522 0 LINE SMOOTH",
"637 0 OFFCURVE",
"743 9 OFFCURVE",
"840 27 CURVE SMOOTH",
"1033 63 OFFCURVE",
"1198 142 OFFCURVE",
"1310 259 CURVE SMOOTH",
"1421 376 OFFCURVE",
"1485 549 OFFCURVE",
"1485 762 CURVE SMOOTH",
"1485 875 OFFCURVE",
"1466 976 OFFCURVE",
"1429 1064 CURVE SMOOTH",
"1354 1239 OFFCURVE",
"1232 1342 OFFCURVE",
"1056 1412 CURVE SMOOTH",
"880 1482 OFFCURVE",
"701 1505 OFFCURVE",
"485 1505 CURVE SMOOTH",
"33 1505 LINE",
"33 1362 LINE",
"276 1362 LINE"
);
}
);
width = 1568;
}
);
leftKerningGroup = B;
note = D;
rightKerningGroup = D;
unicode = 0044;
},
{
glyphname = Eth;
lastChange = "2016-09-01 13:28:17 +0000";
layers = (
{
layerId = "B47A5128-4537-4D9D-B9B8-D866CD9145B5";
paths = (
{
closed = 1;
nodes = (
"276 834 LINE",
"55 834 LINE",
"55 690 LINE",
"276 690 LINE",
"276 137 LINE",
"33 137 LINE",
"33 0 LINE",
"522 0 LINE SMOOTH",
"637 0 OFFCURVE",
"743 9 OFFCURVE",
"840 27 CURVE SMOOTH",
"1033 63 OFFCURVE",
"1198 142 OFFCURVE",
"1310 259 CURVE SMOOTH",
"1421 376 OFFCURVE",
"1485 549 OFFCURVE",
"1485 762 CURVE SMOOTH",
"1485 875 OFFCURVE",
"1466 976 OFFCURVE",
"1429 1064 CURVE SMOOTH",
"1354 1239 OFFCURVE",
"1232 1342 OFFCURVE",
"1056 1412 CURVE SMOOTH",
"880 1482 OFFCURVE",
"701 1505 OFFCURVE",
"485 1505 CURVE SMOOTH",
"33 1505 LINE",
"33 1362 LINE",
"276 1362 LINE"
);
},
{
closed = 1;
nodes = (
"764 690 LINE",
"764 834 LINE",
"512 834 LINE",
"512 1360 LINE",
"569 1360 OFFCURVE",
"621 1358 OFFCURVE",
"669 1354 CURVE SMOOTH",
"765 1345 OFFCURVE",
"871 1322 OFFCURVE",
"951 1285 CURVE SMOOTH",
"1030 1248 OFFCURVE",
"1105 1185 OFFCURVE",
"1153 1103 CURVE SMOOTH",
"1200 1021 OFFCURVE",
"1229 903 OFFCURVE",
"1229 762 CURVE SMOOTH",
"1229 667 OFFCURVE",
"1217 583 OFFCURVE",
"1192 510 CURVE SMOOTH",
"1143 364 OFFCURVE",
"1060 276 OFFCURVE",
"936 217 CURVE SMOOTH",
"812 157 OFFCURVE",
"680 137 OFFCURVE",
"512 137 CURVE",
"512 690 LINE"
);
}
);
width = 1613;
}
);
leftKerningGroup = B;
note = Eth;
rightKerningGroup = D;
unicode = 00D0;
},
{
glyphname = Dcaron;
lastChange = "2016-09-01 13:28:17 +0000";
layers = (
{
layerId = "B47A5128-4537-4D9D-B9B8-D866CD9145B5";
paths = (
{
closed = 1;
nodes = (
"708 1859 OFFCURVE",
"632 1950 OFFCURVE",
"531 2085 CURVE",
"432 1995 LINE",
"760 1638 LINE",
"1086 1988 LINE",
"987 2081 LINE",
"948 2029 LINE SMOOTH",
"895 1961 OFFCURVE",
"807 1853 OFFCURVE",
"760 1812 CURVE"
);
},
{
closed = 1;
nodes = (
"569 1360 OFFCURVE",
"621 1358 OFFCURVE",
"669 1354 CURVE SMOOTH",
"765 1345 OFFCURVE",
"871 1322 OFFCURVE",
"951 1285 CURVE SMOOTH",
"1030 1248 OFFCURVE",
"1105 1185 OFFCURVE",
"1153 1103 CURVE SMOOTH",
"1200 1021 OFFCURVE",
"1229 903 OFFCURVE",
"1229 762 CURVE SMOOTH",
"1229 667 OFFCURVE",
"1217 584 OFFCURVE",
"1192 512 CURVE SMOOTH",
"1143 368 OFFCURVE",
"1060 280 OFFCURVE",
"936 222 CURVE SMOOTH",
"812 164 OFFCURVE",
"680 143 OFFCURVE",
"512 143 CURVE",
"512 1360 LINE"
);
},
{
closed = 1;
nodes = (
"276 143 LINE",
"33 143 LINE",
"33 0 LINE",
"522 0 LINE SMOOTH",
"637 0 OFFCURVE",
"743 9 OFFCURVE",
"840 27 CURVE SMOOTH",
"1033 63 OFFCURVE",
"1198 142 OFFCURVE",
"1310 259 CURVE SMOOTH",
"1421 376 OFFCURVE",
"1485 549 OFFCURVE",
"1485 762 CURVE SMOOTH",
"1485 875 OFFCURVE",
"1466 976 OFFCURVE",
"1429 1064 CURVE SMOOTH",
"1354 1239 OFFCURVE",
"1232 1342 OFFCURVE",
"1056 1412 CURVE SMOOTH",
"880 1482 OFFCURVE",
"701 1505 OFFCURVE",
"485 1505 CURVE SMOOTH",
"33 1505 LINE",
"33 1362 LINE",
"276 1362 LINE"
);
}
);
width = 1568;
}
);
leftKerningGroup = B;
note = Dcaron;
rightKerningGroup = D;
unicode = 010E;
},
{
glyphname = Dcroat;
lastChange = "2016-09-01 13:28:17 +0000";
layers = (
{
layerId = "B47A5128-4537-4D9D-B9B8-D866CD9145B5";
paths = (
{
closed = 1;
nodes = (
"637 0 OFFCURVE",
"743 9 OFFCURVE",
"840 27 CURVE SMOOTH",
"1033 63 OFFCURVE",
"1198 142 OFFCURVE",
"1310 259 CURVE SMOOTH",
"1421 376 OFFCURVE",
"1485 549 OFFCURVE",
"1485 762 CURVE SMOOTH",
"1485 875 OFFCURVE",
"1466 976 OFFCURVE",
"1429 1064 CURVE SMOOTH",
"1354 1239 OFFCURVE",
"1232 1342 OFFCURVE",
"1056 1412 CURVE SMOOTH",
"880 1482 OFFCURVE",
"701 1505 OFFCURVE",
"485 1505 CURVE SMOOTH",
"33 1505 LINE",
"33 1362 LINE",
"276 1362 LINE",
"276 834 LINE",
"55 834 LINE",
"55 690 LINE",
"276 690 LINE",
"276 137 LINE",
"33 137 LINE",
"33 0 LINE",
"522 0 LINE SMOOTH"
);
},
{
closed = 1;
nodes = (
"764 690 LINE",
"764 834 LINE",
"512 834 LINE",
"512 1360 LINE",
"569 1360 OFFCURVE",
"621 1358 OFFCURVE",
"669 1354 CURVE SMOOTH",
"765 1345 OFFCURVE",
"871 1322 OFFCURVE",
"951 1285 CURVE SMOOTH",
"1030 1248 OFFCURVE",
"1105 1185 OFFCURVE",
"1153 1103 CURVE SMOOTH",
"1200 1021 OFFCURVE",
"1229 903 OFFCURVE",
"1229 762 CURVE SMOOTH",
"1229 667 OFFCURVE",
"1217 583 OFFCURVE",
"1192 510 CURVE SMOOTH",
"1143 364 OFFCURVE",
"1060 276 OFFCURVE",
"936 217 CURVE SMOOTH",
"812 157 OFFCURVE",
"680 137 OFFCURVE",
"512 137 CURVE",
"512 690 LINE"
);
}
);
width = 1613;
}
);
leftKerningGroup = B;
note = Dcroat;
rightKerningGroup = D;
unicode = 0110;
},
{
glyphname = E;
lastChange = "2016-09-01 13:28:17 +0000";
layers = (
{
layerId = "B47A5128-4537-4D9D-B9B8-D866CD9145B5";
paths = (
{
closed = 1;
nodes = (
"1393 571 LINE",
"1212 571 LINE",
"1212 143 LINE",
"514 143 LINE",
"514 707 LINE",
"887 707 LINE",
"887 446 LINE",
"1020 446 LINE",
"1020 1067 LINE",
"887 1067 LINE",
"887 821 LINE",
"514 821 LINE",
"514 1362 LINE",
"1212 1362 LINE",
"1212 926 LINE",
"1393 926 LINE",
"1393 1505 LINE",
"33 1505 LINE",
"33 1362 LINE",
"279 1362 LINE",
"279 143 LINE",
"33 143 LINE",
"33 0 LINE",
"1393 0 LINE"
);
}
);
width = 1484;
}
);
note = E;
unicode = 0045;
},
{
glyphname = Eacute;
lastChange = "2016-09-01 13:28:17 +0000";
layers = (
{
layerId = "B47A5128-4537-4D9D-B9B8-D866CD9145B5";
paths = (
{
closed = 1;
nodes = (
"1393 571 LINE",
"1212 571 LINE",
"1212 143 LINE",
"514 143 LINE",
"514 707 LINE",
"887 707 LINE",
"887 446 LINE",
"1020 446 LINE",
"1020 1067 LINE",
"887 1067 LINE",
"887 821 LINE",
"514 821 LINE",
"514 1362 LINE",
"1212 1362 LINE",
"1212 926 LINE",
"1393 926 LINE",
"1393 1505 LINE",
"33 1505 LINE",
"33 1362 LINE",
"279 1362 LINE",
"279 143 LINE",
"33 143 LINE",
"33 0 LINE",
"1393 0 LINE"
);
},
{
closed = 1;
nodes = (
"822 1984 LINE SMOOTH",
"717 1909 OFFCURVE",
"533 1769 OFFCURVE",
"425 1677 CURVE",
"454 1638 LINE",
"568 1682 LINE SMOOTH",
"721 1739 OFFCURVE",
"942 1842 OFFCURVE",
"1001 1902 CURVE",
"900 2041 LINE"
);
}
);
width = 1484;
}
);
note = Eacute;
unicode = 00C9;
},
{
glyphname = Ecaron;
lastChange = "2016-09-01 13:28:17 +0000";
layers = (
{
layerId = "B47A5128-4537-4D9D-B9B8-D866CD9145B5";
paths = (
{
closed = 1;
nodes = (
"662 1859 OFFCURVE",
"586 1950 OFFCURVE",
"485 2085 CURVE",
"386 1995 LINE",
"714 1638 LINE",
"1040 1988 LINE",
"941 2081 LINE",
"902 2029 LINE SMOOTH",
"849 1961 OFFCURVE",
"761 1853 OFFCURVE",
"714 1812 CURVE"
);
},
{
closed = 1;
nodes = (
"1393 571 LINE",
"1212 571 LINE",
"1212 143 LINE",
"514 143 LINE",
"514 707 LINE",
"887 707 LINE",
"887 446 LINE",
"1020 446 LINE",
"1020 1067 LINE",
"887 1067 LINE",
"887 821 LINE",
"514 821 LINE",
"514 1362 LINE",
"1212 1362 LINE",
"1212 926 LINE",
"1393 926 LINE",
"1393 1505 LINE",
"33 1505 LINE",
"33 1362 LINE",
"279 1362 LINE",
"279 143 LINE",
"33 143 LINE",
"33 0 LINE",
"1393 0 LINE"
);
}
);
width = 1484;
}
);
note = Ecaron;
unicode = 011A;
},
{
glyphname = Ecircumflex;
lastChange = "2016-09-01 13:28:17 +0000";
layers = (
{
layerId = "B47A5128-4537-4D9D-B9B8-D866CD9145B5";
paths = (
{
closed = 1;
nodes = (
"764 1864 OFFCURVE",
"840 1773 OFFCURVE",
"941 1638 CURVE",
"1040 1728 LINE",
"712 2085 LINE",
"386 1734 LINE",
"485 1642 LINE",
"524 1693 LINE SMOOTH",
"577 1762 OFFCURVE",
"665 1870 OFFCURVE",
"712 1911 CURVE"
);
},
{
closed = 1;
nodes = (
"1393 571 LINE",
"1212 571 LINE",
"1212 143 LINE",
"514 143 LINE",
"514 707 LINE",
"887 707 LINE",
"887 446 LINE",
"1020 446 LINE",
"1020 1067 LINE",
"887 1067 LINE",
"887 821 LINE",
"514 821 LINE",
"514 1362 LINE",
"1212 1362 LINE",
"1212 926 LINE",
"1393 926 LINE",
"1393 1505 LINE",
"33 1505 LINE",
"33 1362 LINE",
"279 1362 LINE",
"279 143 LINE",
"33 143 LINE",
"33 0 LINE",
"1393 0 LINE"
);
}
);
width = 1484;
}
);
note = Ecircumflex;
unicode = 00CA;
},
{
glyphname = Edieresis;
lastChange = "2016-09-01 13:28:17 +0000";
layers = (
{
layerId = "B47A5128-4537-4D9D-B9B8-D866CD9145B5";
paths = (
{
closed = 1;
nodes = (
"403 1700 OFFCURVE",
"464 1638 OFFCURVE",
"540 1638 CURVE SMOOTH",
"613 1638 OFFCURVE",
"677 1702 OFFCURVE",
"677 1775 CURVE SMOOTH",
"677 1851 OFFCURVE",
"615 1914 OFFCURVE",
"540 1914 CURVE SMOOTH",
"464 1914 OFFCURVE",
"403 1851 OFFCURVE",
"403 1775 CURVE SMOOTH"
);
},
{
closed = 1;
nodes = (
"878 1700 OFFCURVE",
"939 1638 OFFCURVE",
"1015 1638 CURVE SMOOTH",
"1090 1638 OFFCURVE",
"1155 1702 OFFCURVE",
"1155 1775 CURVE SMOOTH",
"1155 1851 OFFCURVE",
"1090 1914 OFFCURVE",
"1015 1914 CURVE SMOOTH",
"939 1914 OFFCURVE",
"878 1851 OFFCURVE",
"878 1775 CURVE SMOOTH"
);
},
{
closed = 1;
nodes = (
"1393 571 LINE",
"1212 571 LINE",
"1212 143 LINE",
"514 143 LINE",
"514 707 LINE",
"887 707 LINE",
"887 446 LINE",
"1020 446 LINE",
"1020 1067 LINE",
"887 1067 LINE",
"887 821 LINE",
"514 821 LINE",
"514 1362 LINE",
"1212 1362 LINE",
"1212 926 LINE",
"1393 926 LINE",
"1393 1505 LINE",
"33 1505 LINE",
"33 1362 LINE",
"279 1362 LINE",
"279 143 LINE",
"33 143 LINE",
"33 0 LINE",
"1393 0 LINE"
);
}
);
width = 1484;
}
);
note = Edieresis;
unicode = 00CB;
},
{
glyphname = Edotaccent;
lastChange = "2016-09-01 13:28:17 +0000";
layers = (
{
layerId = "B47A5128-4537-4D9D-B9B8-D866CD9145B5";
paths = (
{
closed = 1;
nodes = (
"564 1706 OFFCURVE",
"631 1638 OFFCURVE",
"712 1638 CURVE SMOOTH",
"792 1638 OFFCURVE",
"861 1706 OFFCURVE",
"861 1786 CURVE SMOOTH",
"861 1867 OFFCURVE",
"792 1935 OFFCURVE",
"712 1935 CURVE SMOOTH",
"631 1935 OFFCURVE",
"564 1869 OFFCURVE",
"564 1786 CURVE SMOOTH"
);
},
{
closed = 1;
nodes = (
"1393 571 LINE",
"1212 571 LINE",
"1212 143 LINE",
"514 143 LINE",
"514 707 LINE",
"887 707 LINE",
"887 446 LINE",
"1020 446 LINE",
"1020 1067 LINE",
"887 1067 LINE",
"887 821 LINE",
"514 821 LINE",
"514 1362 LINE",
"1212 1362 LINE",
"1212 926 LINE",
"1393 926 LINE",
"1393 1505 LINE",
"33 1505 LINE",
"33 1362 LINE",
"279 1362 LINE",
"279 143 LINE",
"33 143 LINE",
"33 0 LINE",
"1393 0 LINE"
);
}
);
width = 1484;
}
);
note = Edotaccent;
unicode = 0116;
},
{
glyphname = Egrave;
lastChange = "2016-09-01 13:28:17 +0000";
layers = (
{
layerId = "B47A5128-4537-4D9D-B9B8-D866CD9145B5";
paths = (
{
closed = 1;
nodes = (
"1393 571 LINE",
"1212 571 LINE",
"1212 143 LINE",
"514 143 LINE",
"514 707 LINE",
"887 707 LINE",
"887 446 LINE",
"1020 446 LINE",
"1020 1067 LINE",
"887 1067 LINE",
"887 821 LINE",
"514 821 LINE",
"514 1362 LINE",
"1212 1362 LINE",
"1212 926 LINE",
"1393 926 LINE",
"1393 1505 LINE",
"33 1505 LINE",
"33 1362 LINE",
"279 1362 LINE",
"279 143 LINE",
"33 143 LINE",
"33 0 LINE",
"1393 0 LINE"
);
},
{
closed = 1;
nodes = (
"462 1863 OFFCURVE",
"568 1806 OFFCURVE",
"659 1766 CURVE SMOOTH",
"750 1725 OFFCURVE",
"882 1672 OFFCURVE",
"923 1657 CURVE SMOOTH",
"944 1649 OFFCURVE",
"960 1643 OFFCURVE",
"972 1638 CURVE",
"1001 1677 LINE",
"880 1781 OFFCURVE",
"721 1902 OFFCURVE",
"526 2041 CURVE",
"425 1902 LINE"
);
}
);
width = 1484;
}
);
note = Egrave;
unicode = 00C8;
},
{
glyphname = Emacron;
lastChange = "2016-09-01 13:28:17 +0000";
layers = (
{
layerId = "B47A5128-4537-4D9D-B9B8-D866CD9145B5";
paths = (
{
closed = 1;
nodes = (
"450 1776 LINE",
"450 1638 LINE",
"1032 1638 LINE",
"1032 1776 LINE"
);
},
{
closed = 1;
nodes = (
"1393 571 LINE",
"1212 571 LINE",
"1212 143 LINE",
"514 143 LINE",
"514 707 LINE",
"887 707 LINE",
"887 446 LINE",
"1020 446 LINE",
"1020 1067 LINE",
"887 1067 LINE",
"887 821 LINE",
"514 821 LINE",
"514 1362 LINE",
"1212 1362 LINE",
"1212 926 LINE",
"1393 926 LINE",
"1393 1505 LINE",
"33 1505 LINE",
"33 1362 LINE",
"279 1362 LINE",
"279 143 LINE",
"33 143 LINE",
"33 0 LINE",
"1393 0 LINE"
);
}
);
width = 1484;
}
);
note = Emacron;
unicode = 0112;
},
{
glyphname = Eogonek;
lastChange = "2016-09-01 13:28:17 +0000";
layers = (
{
layerId = "B47A5128-4537-4D9D-B9B8-D866CD9145B5";
paths = (
{
closed = 1;
nodes = (
"980 -281 OFFCURVE",
"1098 -381 OFFCURVE",
"1269 -381 CURVE",
"1296 -242 LINE",
"1177 -226 OFFCURVE",
"1140 -180 OFFCURVE",
"1140 -119 CURVE SMOOTH",
"1140 -64 OFFCURVE",
"1193 -15 OFFCURVE",
"1298 4 CURVE",
"1298 35 LINE",
"1225 35 OFFCURVE",
"1150 18 OFFCURVE",
"1087 -13 CURVE SMOOTH",
"1023 -45 OFFCURVE",
"980 -102 OFFCURVE",
"980 -170 CURVE SMOOTH"
);
},
{
closed = 1;
nodes = (
"1393 571 LINE",
"1212 571 LINE",
"1212 143 LINE",
"514 143 LINE",
"514 707 LINE",
"887 707 LINE",
"887 446 LINE",
"1020 446 LINE",
"1020 1067 LINE",
"887 1067 LINE",
"887 821 LINE",
"514 821 LINE",
"514 1362 LINE",
"1212 1362 LINE",
"1212 926 LINE",
"1393 926 LINE",
"1393 1505 LINE",
"33 1505 LINE",
"33 1362 LINE",
"279 1362 LINE",
"279 143 LINE",
"33 143 LINE",
"33 0 LINE",
"1393 0 LINE"
);
}
);
width = 1484;
}
);
note = Eogonek;
unicode = 0118;
},
{
glyphname = F;
lastChange = "2016-09-01 13:28:17 +0000";
layers = (
{
layerId = "B47A5128-4537-4D9D-B9B8-D866CD9145B5";
paths = (
{
closed = 1;
nodes = (
"772 143 LINE",
"512 143 LINE",
"512 725 LINE",
"872 725 LINE",
"872 471 LINE",
"1010 471 LINE",
"1010 1055 LINE",
"872 1055 LINE",
"872 844 LINE",
"512 844 LINE",
"512 1362 LINE",
"1192 1362 LINE",
"1192 956 LINE",
"1374 956 LINE",
"1374 1505 LINE",
"33 1505 LINE",
"33 1362 LINE",
"276 1362 LINE",
"276 143 LINE",
"33 143 LINE",
"33 0 LINE",
"772 0 LINE"
);
}
);
width = 1409;
}
);
leftKerningGroup = B;
note = F;
rightKerningGroup = F;
unicode = 0046;
},
{
glyphname = G;
lastChange = "2016-09-01 13:28:17 +0000";
layers = (
{
layerId = "B47A5128-4537-4D9D-B9B8-D866CD9145B5";
paths = (
{
closed = 1;
nodes = (
"620 1536 OFFCURVE",
"416 1443 OFFCURVE",
"288 1299 CURVE SMOOTH",
"159 1155 OFFCURVE",
"84 963 OFFCURVE",
"84 760 CURVE SMOOTH",
"84 683 OFFCURVE",
"93 607 OFFCURVE",
"111 533 CURVE SMOOTH",
"147 384 OFFCURVE",
"226 244 OFFCURVE",
"335 141 CURVE SMOOTH",
"443 38 OFFCURVE",
"604 -27 OFFCURVE",
"788 -27 CURVE SMOOTH",
"877 -27 OFFCURVE",
"963 -12 OFFCURVE",
"1051 22 CURVE SMOOTH",
"1139 56 OFFCURVE",
"1217 122 OFFCURVE",
"1262 211 CURVE",
"1311 0 LINE",
"1432 0 LINE",
"1432 586 LINE",
"1595 586 LINE",
"1595 737 LINE",
"944 737 LINE",
"944 586 LINE",
"1227 586 LINE",
"1227 446 LINE SMOOTH",
"1227 386 OFFCURVE",
"1185 314 OFFCURVE",
"1121 255 CURVE SMOOTH",
"1056 195 OFFCURVE",
"955 152 OFFCURVE",
"852 152 CURVE SMOOTH",
"708 152 OFFCURVE",
"575 225 OFFCURVE",
"488 337 CURVE SMOOTH",
"400 449 OFFCURVE",
"346 603 OFFCURVE",
"346 762 CURVE SMOOTH",
"346 881 OFFCURVE",
"367 988 OFFCURVE",
"408 1083 CURVE SMOOTH",
"491 1273 OFFCURVE",
"659 1396 OFFCURVE",
"874 1396 CURVE SMOOTH",
"913 1396 OFFCURVE",
"951 1392 OFFCURVE",
"990 1384 CURVE SMOOTH",
"1066 1368 OFFCURVE",
"1168 1316 OFFCURVE",
"1225 1237 CURVE",
"1221 1237 LINE SMOOTH",
"1169 1237 OFFCURVE",
"1094 1170 OFFCURVE",
"1094 1077 CURVE SMOOTH",
"1094 997 OFFCURVE",
"1166 920 OFFCURVE",
"1262 920 CURVE SMOOTH",
"1366 920 OFFCURVE",
"1434 1002 OFFCURVE",
"1434 1085 CURVE SMOOTH",
"1434 1167 OFFCURVE",
"1410 1242 OFFCURVE",
"1361 1311 CURVE SMOOTH",
"1264 1447 OFFCURVE",
"1076 1536 OFFCURVE",
"855 1536 CURVE SMOOTH"
);
}
);
width = 1599;
}
);
leftKerningGroup = C;
note = G;
unicode = 0047;
},
{
glyphname = Gbreve;
lastChange = "2016-09-01 13:28:17 +0000";
layers = (
{
layerId = "B47A5128-4537-4D9D-B9B8-D866CD9145B5";
paths = (
{
closed = 1;
nodes = (
"962 1807 OFFCURVE",
"910 1757 OFFCURVE",
"854 1757 CURVE SMOOTH",
"795 1757 OFFCURVE",
"744 1808 OFFCURVE",
"743 1884 CURVE",
"614 1884 LINE",
"617 1831 OFFCURVE",
"637 1774 OFFCURVE",
"675 1723 CURVE SMOOTH",
"713 1672 OFFCURVE",
"779 1638 OFFCURVE",
"856 1638 CURVE SMOOTH",
"933 1638 OFFCURVE",
"999 1674 OFFCURVE",
"1036 1724 CURVE SMOOTH",
"1072 1774 OFFCURVE",
"1092 1829 OFFCURVE",
"1095 1880 CURVE",
"966 1880 LINE"
);
},
{
closed = 1;
nodes = (
"620 1536 OFFCURVE",
"416 1443 OFFCURVE",
"288 1299 CURVE SMOOTH",
"159 1155 OFFCURVE",
"84 963 OFFCURVE",
"84 760 CURVE SMOOTH",
"84 683 OFFCURVE",
"93 607 OFFCURVE",
"111 533 CURVE SMOOTH",
"147 384 OFFCURVE",
"226 244 OFFCURVE",
"335 141 CURVE SMOOTH",
"443 38 OFFCURVE",
"604 -27 OFFCURVE",
"788 -27 CURVE SMOOTH",
"877 -27 OFFCURVE",
"963 -12 OFFCURVE",
"1051 22 CURVE SMOOTH",
"1139 56 OFFCURVE",
"1217 122 OFFCURVE",
"1262 211 CURVE",
"1311 0 LINE",
"1432 0 LINE",
"1432 586 LINE",
"1595 586 LINE",
"1595 737 LINE",
"944 737 LINE",
"944 586 LINE",
"1227 586 LINE",
"1227 446 LINE SMOOTH",
"1227 386 OFFCURVE",
"1185 314 OFFCURVE",
"1121 255 CURVE SMOOTH",
"1056 195 OFFCURVE",
"955 152 OFFCURVE",
"852 152 CURVE SMOOTH",
"708 152 OFFCURVE",
"575 225 OFFCURVE",
"488 337 CURVE SMOOTH",
"400 449 OFFCURVE",
"346 603 OFFCURVE",
"346 762 CURVE SMOOTH",
"346 881 OFFCURVE",
"367 988 OFFCURVE",
"408 1083 CURVE SMOOTH",
"491 1273 OFFCURVE",
"659 1396 OFFCURVE",
"874 1396 CURVE SMOOTH",
"913 1396 OFFCURVE",
"951 1392 OFFCURVE",
"990 1384 CURVE SMOOTH",
"1066 1368 OFFCURVE",
"1168 1316 OFFCURVE",
"1225 1237 CURVE",
"1221 1237 LINE SMOOTH",
"1169 1237 OFFCURVE",
"1094 1170 OFFCURVE",
"1094 1077 CURVE SMOOTH",
"1094 997 OFFCURVE",
"1166 920 OFFCURVE",
"1262 920 CURVE SMOOTH",
"1366 920 OFFCURVE",
"1434 1002 OFFCURVE",
"1434 1085 CURVE SMOOTH",
"1434 1167 OFFCURVE",
"1410 1242 OFFCURVE",
"1361 1311 CURVE SMOOTH",
"1264 1447 OFFCURVE",
"1076 1536 OFFCURVE",
"855 1536 CURVE SMOOTH"
);
}
);
width = 1599;
}
);
note = Gbreve;
unicode = 011E;
},
{
glyphname = Gcircumflex;
lastChange = "2016-09-01 13:28:17 +0000";
layers = (
{
layerId = "B47A5128-4537-4D9D-B9B8-D866CD9145B5";
paths = (
{
closed = 1;
nodes = (
"890 1864 OFFCURVE",
"966 1773 OFFCURVE",
"1067 1638 CURVE",
"1166 1728 LINE",
"838 2085 LINE",
"512 1734 LINE",
"611 1642 LINE",
"650 1693 LINE SMOOTH",
"703 1762 OFFCURVE",
"791 1870 OFFCURVE",
"838 1911 CURVE"
);
},
{
closed = 1;
nodes = (
"620 1536 OFFCURVE",
"416 1443 OFFCURVE",
"288 1299 CURVE SMOOTH",
"159 1155 OFFCURVE",
"84 963 OFFCURVE",
"84 760 CURVE SMOOTH",
"84 683 OFFCURVE",
"93 607 OFFCURVE",
"111 533 CURVE SMOOTH",
"147 384 OFFCURVE",
"226 244 OFFCURVE",
"335 141 CURVE SMOOTH",
"443 38 OFFCURVE",
"604 -27 OFFCURVE",
"788 -27 CURVE SMOOTH",
"877 -27 OFFCURVE",
"963 -12 OFFCURVE",
"1051 22 CURVE SMOOTH",
"1139 56 OFFCURVE",
"1217 122 OFFCURVE",
"1262 211 CURVE",
"1311 0 LINE",
"1432 0 LINE",
"1432 586 LINE",
"1595 586 LINE",
"1595 737 LINE",
"944 737 LINE",
"944 586 LINE",
"1227 586 LINE",
"1227 446 LINE SMOOTH",
"1227 386 OFFCURVE",
"1185 314 OFFCURVE",
"1121 255 CURVE SMOOTH",
"1056 195 OFFCURVE",
"955 152 OFFCURVE",
"852 152 CURVE SMOOTH",
"708 152 OFFCURVE",
"575 225 OFFCURVE",
"488 337 CURVE SMOOTH",
"400 449 OFFCURVE",
"346 603 OFFCURVE",
"346 762 CURVE SMOOTH",
"346 881 OFFCURVE",
"367 988 OFFCURVE",
"408 1083 CURVE SMOOTH",
"491 1273 OFFCURVE",
"659 1396 OFFCURVE",
"874 1396 CURVE SMOOTH",
"913 1396 OFFCURVE",
"951 1392 OFFCURVE",
"990 1384 CURVE SMOOTH",
"1066 1368 OFFCURVE",
"1168 1316 OFFCURVE",
"1225 1237 CURVE",
"1221 1237 LINE SMOOTH",
"1169 1237 OFFCURVE",
"1094 1170 OFFCURVE",
"1094 1077 CURVE SMOOTH",
"1094 997 OFFCURVE",
"1166 920 OFFCURVE",
"1262 920 CURVE SMOOTH",
"1366 920 OFFCURVE",
"1434 1002 OFFCURVE",
"1434 1085 CURVE SMOOTH",
"1434 1167 OFFCURVE",
"1410 1242 OFFCURVE",
"1361 1311 CURVE SMOOTH",
"1264 1447 OFFCURVE",
"1076 1536 OFFCURVE",
"855 1536 CURVE SMOOTH"
);
}
);
width = 1599;
}
);
note = Gcircumflex;
unicode = 011C;
},
{
glyphname = Gcommaaccent;
lastChange = "2016-09-01 13:28:17 +0000";
layers = (
{
layerId = "B47A5128-4537-4D9D-B9B8-D866CD9145B5";
paths = (
{
closed = 1;
nodes = (
"757 -198 LINE SMOOTH",
"758 -245 OFFCURVE",
"759 -304 OFFCURVE",
"759 -377 CURVE SMOOTH",
"759 -450 OFFCURVE",
"758 -512 OFFCURVE",
"755 -564 CURVE",
"804 -570 LINE",
"836 -484 LINE SMOOTH",
"879 -369 OFFCURVE",
"929 -193 OFFCURVE",
"925 -129 CURVE",
"755 -129 LINE"
);
},
{
closed = 1;
nodes = (
"620 1536 OFFCURVE",
"416 1443 OFFCURVE",
"288 1299 CURVE SMOOTH",
"159 1155 OFFCURVE",
"84 963 OFFCURVE",
"84 760 CURVE SMOOTH",
"84 683 OFFCURVE",
"93 607 OFFCURVE",
"111 533 CURVE SMOOTH",
"147 384 OFFCURVE",
"226 244 OFFCURVE",
"335 141 CURVE SMOOTH",
"443 38 OFFCURVE",
"604 -27 OFFCURVE",
"788 -27 CURVE SMOOTH",
"877 -27 OFFCURVE",
"963 -12 OFFCURVE",
"1051 22 CURVE SMOOTH",
"1139 56 OFFCURVE",
"1217 122 OFFCURVE",
"1262 211 CURVE",
"1311 0 LINE",
"1432 0 LINE",
"1432 586 LINE",
"1595 586 LINE",
"1595 737 LINE",
"944 737 LINE",
"944 586 LINE",
"1227 586 LINE",
"1227 446 LINE SMOOTH",
"1227 386 OFFCURVE",
"1185 314 OFFCURVE",
"1121 255 CURVE SMOOTH",
"1056 195 OFFCURVE",
"955 152 OFFCURVE",
"852 152 CURVE SMOOTH",
"708 152 OFFCURVE",
"575 225 OFFCURVE",
"488 337 CURVE SMOOTH",
"400 449 OFFCURVE",
"346 603 OFFCURVE",
"346 762 CURVE SMOOTH",
"346 881 OFFCURVE",
"367 988 OFFCURVE",
"408 1083 CURVE SMOOTH",
"491 1273 OFFCURVE",
"659 1396 OFFCURVE",
"874 1396 CURVE SMOOTH",
"913 1396 OFFCURVE",
"951 1392 OFFCURVE",
"990 1384 CURVE SMOOTH",
"1066 1368 OFFCURVE",
"1168 1316 OFFCURVE",
"1225 1237 CURVE",
"1221 1237 LINE SMOOTH",
"1169 1237 OFFCURVE",
"1094 1170 OFFCURVE",
"1094 1077 CURVE SMOOTH",
"1094 997 OFFCURVE",
"1166 920 OFFCURVE",
"1262 920 CURVE SMOOTH",
"1366 920 OFFCURVE",
"1434 1002 OFFCURVE",
"1434 1085 CURVE SMOOTH",
"1434 1167 OFFCURVE",
"1410 1242 OFFCURVE",
"1361 1311 CURVE SMOOTH",
"1264 1447 OFFCURVE",
"1076 1536 OFFCURVE",
"855 1536 CURVE SMOOTH"
);
}
);
width = 1599;
}
);
note = Gcommaaccent;
unicode = 0122;
},
{
glyphname = Gdotaccent;
lastChange = "2016-09-01 13:28:17 +0000";
layers = (
{
layerId = "B47A5128-4537-4D9D-B9B8-D866CD9145B5";
paths = (
{
closed = 1;
nodes = (
"706 1706 OFFCURVE",
"773 1638 OFFCURVE",
"854 1638 CURVE SMOOTH",
"934 1638 OFFCURVE",
"1003 1706 OFFCURVE",
"1003 1786 CURVE SMOOTH",
"1003 1867 OFFCURVE",
"934 1935 OFFCURVE",
"854 1935 CURVE SMOOTH",
"773 1935 OFFCURVE",
"706 1869 OFFCURVE",
"706 1786 CURVE SMOOTH"
);
},
{
closed = 1;
nodes = (
"620 1536 OFFCURVE",
"416 1443 OFFCURVE",
"288 1299 CURVE SMOOTH",
"159 1155 OFFCURVE",
"84 963 OFFCURVE",
"84 760 CURVE SMOOTH",
"84 683 OFFCURVE",
"93 607 OFFCURVE",
"111 533 CURVE SMOOTH",
"147 384 OFFCURVE",
"226 244 OFFCURVE",
"335 141 CURVE SMOOTH",
"443 38 OFFCURVE",
"604 -27 OFFCURVE",
"788 -27 CURVE SMOOTH",
"877 -27 OFFCURVE",
"963 -12 OFFCURVE",
"1051 22 CURVE SMOOTH",
"1139 56 OFFCURVE",
"1217 122 OFFCURVE",
"1262 211 CURVE",
"1311 0 LINE",
"1432 0 LINE",
"1432 586 LINE",
"1595 586 LINE",
"1595 737 LINE",
"944 737 LINE",
"944 586 LINE",
"1227 586 LINE",
"1227 446 LINE SMOOTH",
"1227 386 OFFCURVE",
"1185 314 OFFCURVE",
"1121 255 CURVE SMOOTH",
"1056 195 OFFCURVE",
"955 152 OFFCURVE",
"852 152 CURVE SMOOTH",
"708 152 OFFCURVE",
"575 225 OFFCURVE",
"488 337 CURVE SMOOTH",
"400 449 OFFCURVE",
"346 603 OFFCURVE",
"346 762 CURVE SMOOTH",
"346 881 OFFCURVE",
"367 988 OFFCURVE",
"408 1083 CURVE SMOOTH",
"491 1273 OFFCURVE",
"659 1396 OFFCURVE",
"874 1396 CURVE SMOOTH",
"913 1396 OFFCURVE",
"951 1392 OFFCURVE",
"990 1384 CURVE SMOOTH",
"1066 1368 OFFCURVE",
"1168 1316 OFFCURVE",
"1225 1237 CURVE",
"1221 1237 LINE SMOOTH",
"1169 1237 OFFCURVE",
"1094 1170 OFFCURVE",
"1094 1077 CURVE SMOOTH",
"1094 997 OFFCURVE",
"1166 920 OFFCURVE",
"1262 920 CURVE SMOOTH",
"1366 920 OFFCURVE",
"1434 1002 OFFCURVE",
"1434 1085 CURVE SMOOTH",
"1434 1167 OFFCURVE",
"1410 1242 OFFCURVE",
"1361 1311 CURVE SMOOTH",
"1264 1447 OFFCURVE",
"1076 1536 OFFCURVE",
"855 1536 CURVE SMOOTH"
);
}
);
width = 1599;
}
);
note = Gdotaccent;
unicode = 0120;
},
{
glyphname = H;
lastChange = "2016-09-01 13:28:17 +0000";
layers = (
{
layerId = "B47A5128-4537-4D9D-B9B8-D866CD9145B5";
paths = (
{
closed = 1;
nodes = (
"1378 1362 LINE",
"1622 1362 LINE",
"1622 1505 LINE",
"911 1505 LINE",
"911 1362 LINE",
"1143 1362 LINE",
"1143 852 LINE",
"512 852 LINE",
"512 1362 LINE",
"741 1362 LINE",
"741 1505 LINE",
"33 1505 LINE",
"33 1362 LINE",
"276 1362 LINE",
"276 143 LINE",
"33 143 LINE",
"33 0 LINE",
"741 0 LINE",
"741 143 LINE",
"512 143 LINE",
"512 725 LINE",
"1143 725 LINE",
"1143 143 LINE",
"911 143 LINE",
"911 0 LINE",
"1622 0 LINE",
"1622 143 LINE",
"1378 143 LINE"
);
}
);
width = 1654;
}
);
leftKerningGroup = B;
note = H;
rightKerningGroup = H;
unicode = 0048;
},
{
glyphname = Hbar;
lastChange = "2016-09-01 13:28:17 +0000";
layers = (
{
layerId = "B47A5128-4537-4D9D-B9B8-D866CD9145B5";
paths = (
{
closed = 1;
nodes = (
"512 852 LINE",
"512 1048 LINE",
"1143 1048 LINE",
"1143 852 LINE"
);
},
{
closed = 1;
nodes = (
"512 137 LINE",
"512 725 LINE",
"1143 725 LINE",
"1143 137 LINE",
"911 137 LINE",
"911 0 LINE",
"1622 0 LINE",
"1622 137 LINE",
"1378 137 LINE",
"1378 1048 LINE",
"1484 1048 LINE",
"1484 1166 LINE",
"1378 1166 LINE",
"1378 1362 LINE",
"1622 1362 LINE",
"1622 1505 LINE",
"911 1505 LINE",
"911 1362 LINE",
"1143 1362 LINE",
"1143 1166 LINE",
"512 1166 LINE",
"512 1362 LINE",
"741 1362 LINE",
"741 1505 LINE",
"33 1505 LINE",
"33 1362 LINE",
"276 1362 LINE",
"276 1166 LINE",
"173 1166 LINE",
"173 1048 LINE",
"276 1048 LINE",
"276 137 LINE",
"33 137 LINE",
"33 0 LINE",
"741 0 LINE",
"741 137 LINE"
);
}
);
width = 1654;
}
);
leftKerningGroup = B;
note = Hbar;
rightKerningGroup = H;
unicode = 0126;
},
{
glyphname = Hcircumflex;
lastChange = "2016-09-01 13:28:17 +0000";
layers = (
{
layerId = "B47A5128-4537-4D9D-B9B8-D866CD9145B5";
paths = (
{
closed = 1;
nodes = (
"878 1864 OFFCURVE",
"954 1773 OFFCURVE",
"1055 1638 CURVE",
"1154 1728 LINE",
"826 2085 LINE",
"500 1734 LINE",
"599 1642 LINE",
"638 1693 LINE SMOOTH",
"691 1762 OFFCURVE",
"779 1870 OFFCURVE",
"826 1911 CURVE"
);
},
{
closed = 1;
nodes = (
"1378 1362 LINE",
"1622 1362 LINE",
"1622 1505 LINE",
"911 1505 LINE",
"911 1362 LINE",
"1143 1362 LINE",
"1143 852 LINE",
"512 852 LINE",
"512 1362 LINE",
"741 1362 LINE",
"741 1505 LINE",
"33 1505 LINE",
"33 1362 LINE",
"276 1362 LINE",
"276 143 LINE",
"33 143 LINE",
"33 0 LINE",
"741 0 LINE",
"741 143 LINE",
"512 143 LINE",
"512 725 LINE",
"1143 725 LINE",
"1143 143 LINE",
"911 143 LINE",
"911 0 LINE",
"1622 0 LINE",
"1622 143 LINE",
"1378 143 LINE"
);
}
);
width = 1654;
}
);
leftKerningGroup = B;
note = Hcircumflex;
rightKerningGroup = H;
unicode = 0124;
},
{
glyphname = I;
lastChange = "2016-09-01 13:28:17 +0000";
layers = (
{
layerId = "B47A5128-4537-4D9D-B9B8-D866CD9145B5";
paths = (
{
closed = 1;
nodes = (
"739 1362 LINE",
"739 1505 LINE",
"30 1505 LINE",
"30 1362 LINE",
"274 1362 LINE",
"274 143 LINE",
"30 143 LINE",
"30 0 LINE",
"739 0 LINE",
"739 143 LINE",
"509 143 LINE",
"509 1362 LINE"
);
}
);
width = 769;
}
);
note = I;
unicode = 0049;
},
{
glyphname = IJ;
lastChange = "2016-09-01 13:28:17 +0000";
layers = (
{
layerId = "B47A5128-4537-4D9D-B9B8-D866CD9145B5";
paths = (
{
closed = 1;
nodes = (
"1314 -201 OFFCURVE",
"1378 -191 OFFCURVE",
"1433 -172 CURVE SMOOTH",
"1543 -134 OFFCURVE",
"1606 -73 OFFCURVE",
"1647 22 CURVE SMOOTH",
"1688 117 OFFCURVE",
"1701 213 OFFCURVE",
"1701 338 CURVE SMOOTH",
"1701 1362 LINE",
"1939 1362 LINE",
"1939 1505 LINE",
"1185 1505 LINE",
"1185 1362 LINE",
"1466 1362 LINE",
"1466 311 LINE SMOOTH",
"1466 258 OFFCURVE",
"1464 213 OFFCURVE",
"1461 176 CURVE SMOOTH",
"1454 101 OFFCURVE",
"1436 25 OFFCURVE",
"1402 -18 CURVE SMOOTH",
"1368 -61 OFFCURVE",
"1310 -88 OFFCURVE",
"1230 -88 CURVE SMOOTH",
"1166 -88 OFFCURVE",
"1075 -63 OFFCURVE",
"1050 -27 CURVE",
"1105 6 OFFCURVE",
"1161 70 OFFCURVE",
"1161 141 CURVE SMOOTH",
"1161 238 OFFCURVE",
"1083 301 OFFCURVE",
"995 301 CURVE SMOOTH",
"902 301 OFFCURVE",
"825 235 OFFCURVE",
"825 123 CURVE SMOOTH",
"825 -56 OFFCURVE",
"996 -201 OFFCURVE",
"1241 -201 CURVE SMOOTH"
);
},
{
closed = 1;
nodes = (
"739 1362 LINE",
"739 1505 LINE",
"30 1505 LINE",
"30 1362 LINE",
"274 1362 LINE",
"274 143 LINE",
"30 143 LINE",
"30 0 LINE",
"739 0 LINE",
"739 143 LINE",
"509 143 LINE",
"509 1362 LINE"
);
}
);
width = 1951;
}
);
note = IJ;
unicode = 0132;
},
{
glyphname = Iacute;
lastChange = "2016-09-01 13:28:17 +0000";
layers = (
{
layerId = "B47A5128-4537-4D9D-B9B8-D866CD9145B5";
paths = (
{
closed = 1;
nodes = (
"739 1362 LINE",
"739 1505 LINE",
"30 1505 LINE",
"30 1362 LINE",
"274 1362 LINE",
"274 143 LINE",
"30 143 LINE",
"30 0 LINE",
"739 0 LINE",
"739 143 LINE",
"509 143 LINE",
"509 1362 LINE"
);
},
{
closed = 1;
nodes = (
"493 1984 LINE SMOOTH",
"388 1909 OFFCURVE",
"204 1769 OFFCURVE",
"96 1677 CURVE",
"125 1638 LINE",
"239 1682 LINE SMOOTH",
"392 1739 OFFCURVE",
"613 1842 OFFCURVE",
"672 1902 CURVE",
"571 2041 LINE"
);
}
);
width = 769;
}
);
note = Iacute;
unicode = 00CD;
},
{
glyphname = Ibreve;
lastChange = "2016-09-01 13:28:17 +0000";
layers = (
{
layerId = "B47A5128-4537-4D9D-B9B8-D866CD9145B5";
paths = (
{
closed = 1;
nodes = (
"492 1807 OFFCURVE",
"440 1757 OFFCURVE",
"384 1757 CURVE SMOOTH",
"325 1757 OFFCURVE",
"274 1808 OFFCURVE",
"273 1884 CURVE",
"144 1884 LINE",
"147 1831 OFFCURVE",
"167 1774 OFFCURVE",
"205 1723 CURVE SMOOTH",
"243 1672 OFFCURVE",
"309 1638 OFFCURVE",
"386 1638 CURVE SMOOTH",
"463 1638 OFFCURVE",
"529 1674 OFFCURVE",
"566 1724 CURVE SMOOTH",
"602 1774 OFFCURVE",
"622 1829 OFFCURVE",
"625 1880 CURVE",
"496 1880 LINE"
);
},
{
closed = 1;
nodes = (
"739 1362 LINE",
"739 1505 LINE",
"30 1505 LINE",
"30 1362 LINE",
"274 1362 LINE",
"274 143 LINE",
"30 143 LINE",
"30 0 LINE",
"739 0 LINE",
"739 143 LINE",
"509 143 LINE",
"509 1362 LINE"
);
}
);
width = 769;
}
);
note = Ibreve;
unicode = 012C;
},
{
glyphname = Icircumflex;
lastChange = "2016-09-01 13:28:17 +0000";
layers = (
{
layerId = "B47A5128-4537-4D9D-B9B8-D866CD9145B5";
paths = (
{
closed = 1;
nodes = (
"435 1864 OFFCURVE",
"511 1773 OFFCURVE",
"612 1638 CURVE",
"711 1728 LINE",
"383 2085 LINE",
"57 1734 LINE",
"156 1642 LINE",
"195 1693 LINE SMOOTH",
"248 1762 OFFCURVE",
"336 1870 OFFCURVE",
"383 1911 CURVE"
);
},
{
closed = 1;
nodes = (
"739 1362 LINE",
"739 1505 LINE",
"30 1505 LINE",
"30 1362 LINE",
"274 1362 LINE",
"274 143 LINE",
"30 143 LINE",
"30 0 LINE",
"739 0 LINE",
"739 143 LINE",
"509 143 LINE",
"509 1362 LINE"
);
}
);
width = 769;
}
);
note = Icircumflex;
unicode = 00CE;
},
{
glyphname = Idieresis;
lastChange = "2016-09-01 13:28:17 +0000";
layers = (
{
layerId = "B47A5128-4537-4D9D-B9B8-D866CD9145B5";
paths = (
{
closed = 1;
nodes = (
"9 1700 OFFCURVE",
"70 1638 OFFCURVE",
"146 1638 CURVE SMOOTH",
"219 1638 OFFCURVE",
"283 1702 OFFCURVE",
"283 1775 CURVE SMOOTH",
"283 1851 OFFCURVE",
"221 1914 OFFCURVE",
"146 1914 CURVE SMOOTH",
"70 1914 OFFCURVE",
"9 1851 OFFCURVE",
"9 1775 CURVE SMOOTH"
);
},
{
closed = 1;
nodes = (
"484 1700 OFFCURVE",
"545 1638 OFFCURVE",
"621 1638 CURVE SMOOTH",
"696 1638 OFFCURVE",
"761 1702 OFFCURVE",
"761 1775 CURVE SMOOTH",
"761 1851 OFFCURVE",
"696 1914 OFFCURVE",
"621 1914 CURVE SMOOTH",
"545 1914 OFFCURVE",
"484 1851 OFFCURVE",
"484 1775 CURVE SMOOTH"
);
},
{
closed = 1;
nodes = (
"739 1362 LINE",
"739 1505 LINE",
"30 1505 LINE",
"30 1362 LINE",
"274 1362 LINE",
"274 143 LINE",
"30 143 LINE",
"30 0 LINE",
"739 0 LINE",
"739 143 LINE",
"509 143 LINE",
"509 1362 LINE"
);
}
);
width = 769;
}
);
note = Idieresis;
unicode = 00CF;
},
{
glyphname = Idotaccent;
lastChange = "2016-09-01 13:28:17 +0000";
layers = (
{
layerId = "B47A5128-4537-4D9D-B9B8-D866CD9145B5";
paths = (
{
closed = 1;
nodes = (
"236 1706 OFFCURVE",
"303 1638 OFFCURVE",
"384 1638 CURVE SMOOTH",
"464 1638 OFFCURVE",
"533 1706 OFFCURVE",
"533 1786 CURVE SMOOTH",
"533 1867 OFFCURVE",
"464 1935 OFFCURVE",
"384 1935 CURVE SMOOTH",
"303 1935 OFFCURVE",
"236 1869 OFFCURVE",
"236 1786 CURVE SMOOTH"
);
},
{
closed = 1;
nodes = (
"739 1362 LINE",
"739 1505 LINE",
"30 1505 LINE",
"30 1362 LINE",
"274 1362 LINE",
"274 143 LINE",
"30 143 LINE",
"30 0 LINE",
"739 0 LINE",
"739 143 LINE",
"509 143 LINE",
"509 1362 LINE"
);
}
);
width = 769;
}
);
note = Idotaccent;
unicode = 0130;
},
{
glyphname = Igrave;
lastChange = "2016-09-01 13:28:17 +0000";
layers = (
{
layerId = "B47A5128-4537-4D9D-B9B8-D866CD9145B5";
paths = (
{
closed = 1;
nodes = (
"739 1362 LINE",
"739 1505 LINE",
"30 1505 LINE",
"30 1362 LINE",
"274 1362 LINE",
"274 143 LINE",
"30 143 LINE",
"30 0 LINE",
"739 0 LINE",
"739 143 LINE",
"509 143 LINE",
"509 1362 LINE"
);
},
{
closed = 1;
nodes = (
"133 1863 OFFCURVE",
"239 1806 OFFCURVE",
"330 1766 CURVE SMOOTH",
"421 1725 OFFCURVE",
"553 1672 OFFCURVE",
"594 1657 CURVE SMOOTH",
"615 1649 OFFCURVE",
"631 1643 OFFCURVE",
"643 1638 CURVE",
"672 1677 LINE",
"551 1781 OFFCURVE",
"392 1902 OFFCURVE",
"197 2041 CURVE",
"96 1902 LINE"
);
}
);
width = 769;
}
);
note = Igrave;
unicode = 00CC;
},
{
glyphname = Imacron;
lastChange = "2016-09-01 13:28:17 +0000";
layers = (
{
layerId = "B47A5128-4537-4D9D-B9B8-D866CD9145B5";
paths = (
{
closed = 1;
nodes = (
"122 1776 LINE",
"122 1638 LINE",
"704 1638 LINE",
"704 1776 LINE"
);
},
{
closed = 1;
nodes = (
"739 1362 LINE",
"739 1505 LINE",
"30 1505 LINE",
"30 1362 LINE",
"274 1362 LINE",
"274 143 LINE",
"30 143 LINE",
"30 0 LINE",
"739 0 LINE",
"739 143 LINE",
"509 143 LINE",
"509 1362 LINE"
);
}
);
width = 769;
}
);
note = Imacron;
unicode = 012A;
},
{
glyphname = Iogonek;
lastChange = "2016-09-01 13:28:17 +0000";
layers = (
{
layerId = "B47A5128-4537-4D9D-B9B8-D866CD9145B5";
paths = (
{
closed = 1;
nodes = (
"173 -284 OFFCURVE",
"291 -384 OFFCURVE",
"462 -384 CURVE",
"489 -245 LINE",
"370 -229 OFFCURVE",
"333 -183 OFFCURVE",
"333 -122 CURVE SMOOTH",
"333 -67 OFFCURVE",
"386 -18 OFFCURVE",
"491 1 CURVE",
"491 32 LINE",
"418 32 OFFCURVE",
"343 15 OFFCURVE",
"280 -16 CURVE SMOOTH",
"216 -48 OFFCURVE",
"173 -105 OFFCURVE",
"173 -173 CURVE SMOOTH"
);
},
{
closed = 1;
nodes = (
"739 1362 LINE",
"739 1505 LINE",
"30 1505 LINE",
"30 1362 LINE",
"274 1362 LINE",
"274 143 LINE",
"30 143 LINE",
"30 0 LINE",
"739 0 LINE",
"739 143 LINE",
"509 143 LINE",
"509 1362 LINE"
);
}
);
width = 769;
}
);
note = Iogonek;
unicode = 012E;
},
{
glyphname = Itilde;
lastChange = "2016-09-01 13:28:17 +0000";
layers = (
{
layerId = "B47A5128-4537-4D9D-B9B8-D866CD9145B5";
paths = (
{
closed = 1;
nodes = (
"619 1732 OFFCURVE",
"640 1708 OFFCURVE",
"640 1640 CURVE",
"728 1640 LINE",
"728 1817 OFFCURVE",
"683 1883 OFFCURVE",
"560 1883 CURVE SMOOTH",
"522 1883 OFFCURVE",
"462 1867 OFFCURVE",
"381 1836 CURVE SMOOTH",
"300 1805 OFFCURVE",
"245 1789 OFFCURVE",
"218 1789 CURVE SMOOTH",
"151 1789 OFFCURVE",
"130 1813 OFFCURVE",
"130 1881 CURVE",
"42 1881 LINE",
"42 1704 OFFCURVE",
"87 1638 OFFCURVE",
"210 1638 CURVE SMOOTH",
"248 1638 OFFCURVE",
"308 1654 OFFCURVE",
"389 1685 CURVE SMOOTH",
"470 1716 OFFCURVE",
"525 1732 OFFCURVE",
"552 1732 CURVE SMOOTH"
);
},
{
closed = 1;
nodes = (
"739 1362 LINE",
"739 1505 LINE",
"30 1505 LINE",
"30 1362 LINE",
"274 1362 LINE",
"274 143 LINE",
"30 143 LINE",
"30 0 LINE",
"739 0 LINE",
"739 143 LINE",
"509 143 LINE",
"509 1362 LINE"
);
}
);
width = 769;
}
);
note = Itilde;
unicode = 0128;
},
{
glyphname = J;
lastChange = "2016-09-01 13:28:17 +0000";
layers = (
{
layerId = "B47A5128-4537-4D9D-B9B8-D866CD9145B5";
paths = (
{
closed = 1;
nodes = (
"524 -201 OFFCURVE",
"588 -191 OFFCURVE",
"643 -172 CURVE SMOOTH",
"753 -134 OFFCURVE",
"816 -73 OFFCURVE",
"857 22 CURVE SMOOTH",
"898 117 OFFCURVE",
"911 213 OFFCURVE",
"911 338 CURVE SMOOTH",
"911 1362 LINE",
"1149 1362 LINE",
"1149 1505 LINE",
"395 1505 LINE",
"395 1362 LINE",
"676 1362 LINE",
"676 311 LINE SMOOTH",
"676 258 OFFCURVE",
"674 213 OFFCURVE",
"671 176 CURVE SMOOTH",
"664 101 OFFCURVE",
"646 25 OFFCURVE",
"612 -18 CURVE SMOOTH",
"578 -61 OFFCURVE",
"520 -88 OFFCURVE",
"440 -88 CURVE SMOOTH",
"376 -88 OFFCURVE",
"285 -63 OFFCURVE",
"260 -27 CURVE",
"315 6 OFFCURVE",
"371 70 OFFCURVE",
"371 141 CURVE SMOOTH",
"371 238 OFFCURVE",
"293 301 OFFCURVE",
"205 301 CURVE SMOOTH",
"112 301 OFFCURVE",
"35 235 OFFCURVE",
"35 123 CURVE SMOOTH",
"35 -56 OFFCURVE",
"206 -201 OFFCURVE",
"451 -201 CURVE SMOOTH"
);
}
);
width = 1161;
}
);
leftKerningGroup = B;
note = J;
rightKerningGroup = J;
unicode = 004A;
},
{
glyphname = Jcircumflex;
lastChange = "2016-09-01 13:28:17 +0000";
layers = (
{
layerId = "B47A5128-4537-4D9D-B9B8-D866CD9145B5";
paths = (
{
closed = 1;
nodes = (
"524 -201 OFFCURVE",
"588 -191 OFFCURVE",
"643 -172 CURVE SMOOTH",
"753 -134 OFFCURVE",
"816 -73 OFFCURVE",
"857 22 CURVE SMOOTH",
"898 117 OFFCURVE",
"911 213 OFFCURVE",
"911 338 CURVE SMOOTH",
"911 1362 LINE",
"1149 1362 LINE",
"1149 1505 LINE",
"395 1505 LINE",
"395 1362 LINE",
"676 1362 LINE",
"676 311 LINE SMOOTH",
"676 258 OFFCURVE",
"674 213 OFFCURVE",
"671 176 CURVE SMOOTH",
"664 101 OFFCURVE",
"646 25 OFFCURVE",
"612 -18 CURVE SMOOTH",
"578 -61 OFFCURVE",
"520 -88 OFFCURVE",
"440 -88 CURVE SMOOTH",
"376 -88 OFFCURVE",
"285 -63 OFFCURVE",
"260 -27 CURVE",
"315 6 OFFCURVE",
"371 70 OFFCURVE",
"371 141 CURVE SMOOTH",
"371 238 OFFCURVE",
"293 301 OFFCURVE",
"205 301 CURVE SMOOTH",
"112 301 OFFCURVE",
"35 235 OFFCURVE",
"35 123 CURVE SMOOTH",
"35 -56 OFFCURVE",
"206 -201 OFFCURVE",
"451 -201 CURVE SMOOTH"
);
},
{
closed = 1;
nodes = (
"823 1864 OFFCURVE",
"899 1773 OFFCURVE",
"1000 1638 CURVE",
"1099 1728 LINE",
"771 2085 LINE",
"445 1734 LINE",
"544 1642 LINE",
"583 1693 LINE SMOOTH",
"636 1762 OFFCURVE",
"724 1870 OFFCURVE",
"771 1911 CURVE"
);
}
);
width = 1161;
}
);
note = Jcircumflex;
unicode = 0134;
},
{
glyphname = K;
lastChange = "2016-09-01 13:28:17 +0000";
layers = (
{
layerId = "B47A5128-4537-4D9D-B9B8-D866CD9145B5";
paths = (
{
closed = 1;
nodes = (
"1612 143 LINE",
"1436 143 LINE",
"862 825 LINE",
"1370 1362 LINE",
"1599 1362 LINE",
"1599 1505 LINE",
"889 1505 LINE",
"889 1362 LINE",
"1118 1362 LINE",
"1006 1239 LINE SMOOTH",
"855 1075 OFFCURVE",
"649 853 OFFCURVE",
"612 817 CURVE SMOOTH",
"596 801 OFFCURVE",
"524 739 OFFCURVE",
"512 735 CURVE",
"512 1362 LINE",
"723 1362 LINE",
"723 1505 LINE",
"33 1505 LINE",
"33 1362 LINE",
"276 1362 LINE",
"276 143 LINE",
"33 143 LINE",
"33 0 LINE",
"723 0 LINE",
"723 143 LINE",
"512 143 LINE",
"512 553 LINE",
"684 696 LINE",
"1128 143 LINE",
"905 143 LINE",
"905 0 LINE",
"1612 0 LINE"
);
}
);
width = 1624;
}
);
leftKerningGroup = B;
note = K;
rightKerningGroup = K;
unicode = 004B;
},
{
glyphname = Kcommaaccent;
lastChange = "2016-09-01 13:28:17 +0000";
layers = (
{
layerId = "B47A5128-4537-4D9D-B9B8-D866CD9145B5";
paths = (
{
closed = 1;
nodes = (
"740 -171 LINE SMOOTH",
"741 -218 OFFCURVE",
"742 -277 OFFCURVE",
"742 -350 CURVE SMOOTH",
"742 -423 OFFCURVE",
"741 -485 OFFCURVE",
"738 -537 CURVE",
"787 -543 LINE",
"819 -457 LINE SMOOTH",
"862 -342 OFFCURVE",
"912 -166 OFFCURVE",
"908 -102 CURVE",
"738 -102 LINE"
);
},
{
closed = 1;
nodes = (
"1612 143 LINE",
"1436 143 LINE",
"862 825 LINE",
"1370 1362 LINE",
"1599 1362 LINE",
"1599 1505 LINE",
"889 1505 LINE",
"889 1362 LINE",
"1118 1362 LINE",
"1006 1239 LINE SMOOTH",
"855 1075 OFFCURVE",
"649 853 OFFCURVE",
"612 817 CURVE SMOOTH",
"596 801 OFFCURVE",
"524 739 OFFCURVE",
"512 735 CURVE",
"512 1362 LINE",
"723 1362 LINE",
"723 1505 LINE",
"33 1505 LINE",
"33 1362 LINE",
"276 1362 LINE",
"276 143 LINE",
"33 143 LINE",
"33 0 LINE",
"723 0 LINE",
"723 143 LINE",
"512 143 LINE",
"512 553 LINE",
"684 696 LINE",
"1128 143 LINE",
"905 143 LINE",
"905 0 LINE",
"1612 0 LINE"
);
}
);
width = 1624;
}
);
leftKerningGroup = B;
note = Kcommaaccent;
rightKerningGroup = K;
unicode = 0136;
},
{
glyphname = L;
lastChange = "2016-09-01 13:28:17 +0000";
layers = (
{
layerId = "B47A5128-4537-4D9D-B9B8-D866CD9145B5";
paths = (
{
closed = 1;
nodes = (
"1077 625 LINE",
"1077 143 LINE",
"512 143 LINE",
"512 1362 LINE",
"741 1362 LINE",
"741 1505 LINE",
"33 1505 LINE",
"33 1362 LINE",
"276 1362 LINE",
"276 143 LINE",
"33 143 LINE",
"33 0 LINE",
"1264 0 LINE",
"1264 625 LINE"
);
}
);
width = 1290;
}
);
leftKerningGroup = B;
note = L;
rightKerningGroup = L;
unicode = 004C;
},
{
glyphname = Lacute;
lastChange = "2016-09-01 13:28:17 +0000";
layers = (
{
layerId = "B47A5128-4537-4D9D-B9B8-D866CD9145B5";
paths = (
{
closed = 1;
nodes = (
"1077 625 LINE",
"1077 143 LINE",
"512 143 LINE",
"512 1362 LINE",
"741 1362 LINE",
"741 1505 LINE",
"33 1505 LINE",
"33 1362 LINE",
"276 1362 LINE",
"276 143 LINE",
"33 143 LINE",
"33 0 LINE",
"1264 0 LINE",
"1264 625 LINE"
);
},
{
closed = 1;
nodes = (
"758 1984 LINE SMOOTH",
"653 1909 OFFCURVE",
"469 1769 OFFCURVE",
"361 1677 CURVE",
"390 1638 LINE",
"504 1682 LINE SMOOTH",
"657 1739 OFFCURVE",
"878 1842 OFFCURVE",
"937 1902 CURVE",
"836 2041 LINE"
);
}
);
width = 1290;
}
);
leftKerningGroup = B;
note = Lacute;
rightKerningGroup = L;
unicode = 0139;
},
{
glyphname = Lcaron;
lastChange = "2016-09-01 13:28:17 +0000";
layers = (
{
layerId = "B47A5128-4537-4D9D-B9B8-D866CD9145B5";
paths = (
{
closed = 1;
nodes = (
"1311 1024 OFFCURVE",
"1315 1027 OFFCURVE",
"1319 1028 CURVE",
"1442 1112 OFFCURVE",
"1499 1224 OFFCURVE",
"1499 1327 CURVE SMOOTH",
"1499 1460 OFFCURVE",
"1406 1536 OFFCURVE",
"1311 1536 CURVE SMOOTH",
"1238 1536 OFFCURVE",
"1161 1468 OFFCURVE",
"1161 1393 CURVE SMOOTH",
"1161 1325 OFFCURVE",
"1225 1260 OFFCURVE",
"1294 1260 CURVE SMOOTH",
"1324 1260 OFFCURVE",
"1352 1268 OFFCURVE",
"1378 1284 CURVE",
"1383 1277 OFFCURVE",
"1386 1267 OFFCURVE",
"1386 1256 CURVE SMOOTH",
"1386 1204 OFFCURVE",
"1321 1137 OFFCURVE",
"1257 1098 CURVE",
"1307 1020 LINE"
);
},
{
closed = 1;
nodes = (
"1077 625 LINE",
"1077 143 LINE",
"512 143 LINE",
"512 1362 LINE",
"741 1362 LINE",
"741 1505 LINE",
"33 1505 LINE",
"33 1362 LINE",
"276 1362 LINE",
"276 143 LINE",
"33 143 LINE",
"33 0 LINE",
"1264 0 LINE",
"1264 625 LINE"
);
}
);
width = 1290;
}
);
leftKerningGroup = B;
note = Lcaron;
rightKerningGroup = L;
unicode = 013D;
},
{
glyphname = Lcommaaccent;
lastChange = "2016-09-01 13:28:17 +0000";
layers = (
{
layerId = "B47A5128-4537-4D9D-B9B8-D866CD9145B5";
paths = (
{
closed = 1;
nodes = (
"566 -171 LINE SMOOTH",
"567 -218 OFFCURVE",
"568 -277 OFFCURVE",
"568 -350 CURVE SMOOTH",
"568 -423 OFFCURVE",
"567 -485 OFFCURVE",
"564 -537 CURVE",
"613 -543 LINE",
"645 -457 LINE SMOOTH",
"688 -342 OFFCURVE",
"738 -166 OFFCURVE",
"734 -102 CURVE",
"564 -102 LINE"
);
},
{
closed = 1;
nodes = (
"1077 625 LINE",
"1077 143 LINE",
"512 143 LINE",
"512 1362 LINE",
"741 1362 LINE",
"741 1505 LINE",
"33 1505 LINE",
"33 1362 LINE",
"276 1362 LINE",
"276 143 LINE",
"33 143 LINE",
"33 0 LINE",
"1264 0 LINE",
"1264 625 LINE"
);
}
);
width = 1290;
}
);
leftKerningGroup = B;
note = Lcommaaccent;
rightKerningGroup = L;
unicode = 013B;
},
{
glyphname = Ldot;
lastChange = "2016-09-01 13:28:17 +0000";
layers = (
{
layerId = "B47A5128-4537-4D9D-B9B8-D866CD9145B5";
paths = (
{
closed = 1;
nodes = (
"770 826 OFFCURVE",
"837 758 OFFCURVE",
"918 758 CURVE SMOOTH",
"998 758 OFFCURVE",
"1067 826 OFFCURVE",
"1067 906 CURVE SMOOTH",
"1067 987 OFFCURVE",
"998 1055 OFFCURVE",
"918 1055 CURVE SMOOTH",
"837 1055 OFFCURVE",
"770 989 OFFCURVE",
"770 906 CURVE SMOOTH"
);
},
{
closed = 1;
nodes = (
"1077 625 LINE",
"1077 143 LINE",
"512 143 LINE",
"512 1362 LINE",
"741 1362 LINE",
"741 1505 LINE",
"33 1505 LINE",
"33 1362 LINE",
"276 1362 LINE",
"276 143 LINE",
"33 143 LINE",
"33 0 LINE",
"1264 0 LINE",
"1264 625 LINE"
);
}
);
width = 1290;
}
);
leftKerningGroup = B;
note = Ldot;
rightKerningGroup = L;
unicode = 013F;
},
{
glyphname = Lslash;
lastChange = "2016-09-01 13:28:17 +0000";
layers = (
{
layerId = "B47A5128-4537-4D9D-B9B8-D866CD9145B5";
paths = (
{
closed = 1;
nodes = (
"1077 625 LINE",
"1077 137 LINE",
"512 137 LINE",
"512 821 LINE",
"724 925 LINE",
"724 1073 LINE",
"512 969 LINE",
"512 1362 LINE",
"741 1362 LINE",
"741 1505 LINE",
"33 1505 LINE",
"33 1362 LINE",
"276 1362 LINE",
"276 853 LINE",
"61 747 LINE",
"61 599 LINE",
"276 705 LINE",
"276 137 LINE",
"33 137 LINE",
"33 0 LINE",
"1264 0 LINE",
"1264 625 LINE"
);
}
);
width = 1290;
}
);
leftKerningGroup = B;
note = Lslash;
rightKerningGroup = L;
unicode = 0141;
},
{
glyphname = M;
lastChange = "2016-09-01 13:28:17 +0000";
layers = (
{
layerId = "B47A5128-4537-4D9D-B9B8-D866CD9145B5";
paths = (
{
closed = 1;
nodes = (
"705 143 LINE",
"453 143 LINE",
"453 1360 LINE",
"891 252 LINE SMOOTH",
"907 212 OFFCURVE",
"938 182 OFFCURVE",
"969 182 CURVE SMOOTH",
"998 182 OFFCURVE",
"1023 207 OFFCURVE",
"1042 258 CURVE SMOOTH",
"1432 1329 LINE",
"1432 143 LINE",
"1212 143 LINE",
"1212 0 LINE",
"1905 0 LINE",
"1905 143 LINE",
"1657 143 LINE",
"1657 1362 LINE",
"1890 1362 LINE",
"1890 1505 LINE",
"1327 1505 LINE",
"995 557 LINE",
"639 1505 LINE",
"33 1505 LINE",
"33 1362 LINE",
"270 1362 LINE",
"270 143 LINE",
"51 143 LINE",
"51 0 LINE",
"705 0 LINE"
);
}
);
width = 1937;
}
);
leftKerningGroup = B;
note = M;
rightKerningGroup = H;
unicode = 004D;
},
{
glyphname = N;
lastChange = "2016-09-01 13:28:17 +0000";
layers = (
{
layerId = "B47A5128-4537-4D9D-B9B8-D866CD9145B5";
paths = (
{
closed = 1;
nodes = (
"465 1292 LINE",
"1208 0 LINE",
"1475 0 LINE",
"1475 1362 LINE",
"1704 1362 LINE",
"1704 1505 LINE",
"1040 1505 LINE",
"1040 1362 LINE",
"1284 1362 LINE",
"1284 266 LINE",
"573 1505 LINE",
"33 1505 LINE",
"33 1362 LINE",
"274 1362 LINE",
"274 143 LINE",
"33 143 LINE",
"33 0 LINE",
"694 0 LINE",
"694 143 LINE",
"465 143 LINE"
);
}
);
width = 1720;
}
);
leftKerningGroup = B;
note = N;
rightKerningGroup = H;
unicode = 004E;
},
{
glyphname = Nacute;
lastChange = "2016-09-01 13:28:17 +0000";
layers = (
{
layerId = "B47A5128-4537-4D9D-B9B8-D866CD9145B5";
paths = (
{
closed = 1;
nodes = (
"465 1292 LINE",
"1208 0 LINE",
"1475 0 LINE",
"1475 1362 LINE",
"1704 1362 LINE",
"1704 1505 LINE",
"1040 1505 LINE",
"1040 1362 LINE",
"1284 1362 LINE",
"1284 266 LINE",
"573 1505 LINE",
"33 1505 LINE",
"33 1362 LINE",
"274 1362 LINE",
"274 143 LINE",
"33 143 LINE",
"33 0 LINE",
"694 0 LINE",
"694 143 LINE",
"465 143 LINE"
);
},
{
closed = 1;
nodes = (
"978 1984 LINE SMOOTH",
"873 1909 OFFCURVE",
"689 1769 OFFCURVE",
"581 1677 CURVE",
"610 1638 LINE",
"724 1682 LINE SMOOTH",
"877 1739 OFFCURVE",
"1098 1842 OFFCURVE",
"1157 1902 CURVE",
"1056 2041 LINE"
);
}
);
width = 1720;
}
);
leftKerningGroup = B;
note = Nacute;
rightKerningGroup = H;
unicode = 0143;
},
{
glyphname = Ncaron;
lastChange = "2016-09-01 13:28:17 +0000";
layers = (
{
layerId = "B47A5128-4537-4D9D-B9B8-D866CD9145B5";
paths = (
{
closed = 1;
nodes = (
"818 1859 OFFCURVE",
"742 1950 OFFCURVE",
"641 2085 CURVE",
"542 1995 LINE",
"870 1638 LINE",
"1196 1988 LINE",
"1097 2081 LINE",
"1058 2029 LINE SMOOTH",
"1005 1961 OFFCURVE",
"917 1853 OFFCURVE",
"870 1812 CURVE"
);
},
{
closed = 1;
nodes = (
"465 1292 LINE",
"1208 0 LINE",
"1475 0 LINE",
"1475 1362 LINE",
"1704 1362 LINE",
"1704 1505 LINE",
"1040 1505 LINE",
"1040 1362 LINE",
"1284 1362 LINE",
"1284 266 LINE",
"573 1505 LINE",
"33 1505 LINE",
"33 1362 LINE",
"274 1362 LINE",
"274 143 LINE",
"33 143 LINE",
"33 0 LINE",
"694 0 LINE",
"694 143 LINE",
"465 143 LINE"
);
}
);
width = 1720;
}
);
leftKerningGroup = B;
note = Ncaron;
rightKerningGroup = H;
unicode = 0147;
},
{
glyphname = Ncommaaccent;
lastChange = "2016-09-01 13:28:17 +0000";
layers = (
{
layerId = "B47A5128-4537-4D9D-B9B8-D866CD9145B5";
paths = (
{
closed = 1;
nodes = (
"786 -171 LINE SMOOTH",
"787 -218 OFFCURVE",
"788 -277 OFFCURVE",
"788 -350 CURVE SMOOTH",
"788 -423 OFFCURVE",
"787 -485 OFFCURVE",
"784 -537 CURVE",
"833 -543 LINE",
"865 -457 LINE SMOOTH",
"908 -342 OFFCURVE",
"958 -166 OFFCURVE",
"954 -102 CURVE",
"784 -102 LINE"
);
},
{
closed = 1;
nodes = (
"465 1292 LINE",
"1208 0 LINE",
"1475 0 LINE",
"1475 1362 LINE",
"1704 1362 LINE",
"1704 1505 LINE",
"1040 1505 LINE",
"1040 1362 LINE",
"1284 1362 LINE",
"1284 266 LINE",
"573 1505 LINE",
"33 1505 LINE",
"33 1362 LINE",
"274 1362 LINE",
"274 143 LINE",
"33 143 LINE",
"33 0 LINE",
"694 0 LINE",
"694 143 LINE",
"465 143 LINE"
);
}
);
width = 1720;
}
);
leftKerningGroup = B;
note = Ncommaaccent;
rightKerningGroup = H;
unicode = 0145;
},
{
glyphname = Ntilde;
lastChange = "2016-09-01 13:28:17 +0000";
layers = (
{
layerId = "B47A5128-4537-4D9D-B9B8-D866CD9145B5";
paths = (
{
closed = 1;
nodes = (
"1102 1732 OFFCURVE",
"1123 1708 OFFCURVE",
"1123 1640 CURVE",
"1211 1640 LINE",
"1211 1817 OFFCURVE",
"1166 1883 OFFCURVE",
"1043 1883 CURVE SMOOTH",
"1005 1883 OFFCURVE",
"945 1867 OFFCURVE",
"864 1836 CURVE SMOOTH",
"783 1805 OFFCURVE",
"728 1789 OFFCURVE",
"701 1789 CURVE SMOOTH",
"634 1789 OFFCURVE",
"613 1813 OFFCURVE",
"613 1881 CURVE",
"525 1881 LINE",
"525 1704 OFFCURVE",
"570 1638 OFFCURVE",
"693 1638 CURVE SMOOTH",
"731 1638 OFFCURVE",
"791 1654 OFFCURVE",
"872 1685 CURVE SMOOTH",
"953 1716 OFFCURVE",
"1008 1732 OFFCURVE",
"1035 1732 CURVE SMOOTH"
);
},
{
closed = 1;
nodes = (
"465 1292 LINE",
"1208 0 LINE",
"1475 0 LINE",
"1475 1362 LINE",
"1704 1362 LINE",
"1704 1505 LINE",
"1040 1505 LINE",
"1040 1362 LINE",
"1284 1362 LINE",
"1284 266 LINE",
"573 1505 LINE",
"33 1505 LINE",
"33 1362 LINE",
"274 1362 LINE",
"274 143 LINE",
"33 143 LINE",
"33 0 LINE",
"694 0 LINE",
"694 143 LINE",
"465 143 LINE"
);
}
);
width = 1720;
}
);
leftKerningGroup = B;
note = Ntilde;
rightKerningGroup = H;
unicode = 00D1;
},
{
glyphname = O;
lastChange = "2016-09-01 13:28:17 +0000";
layers = (
{
layerId = "B47A5128-4537-4D9D-B9B8-D866CD9145B5";
paths = (
{
closed = 1;
nodes = (
"148 376 OFFCURVE",
"228 237 OFFCURVE",
"338 137 CURVE SMOOTH",
"448 37 OFFCURVE",
"610 -27 OFFCURVE",
"795 -27 CURVE SMOOTH",
"888 -27 OFFCURVE",
"973 -12 OFFCURVE",
"1052 18 CURVE SMOOTH",
"1208 77 OFFCURVE",
"1315 179 OFFCURVE",
"1392 313 CURVE SMOOTH",
"1469 447 OFFCURVE",
"1505 598 OFFCURVE",
"1505 754 CURVE SMOOTH",
"1505 832 OFFCURVE",
"1496 908 OFFCURVE",
"1478 983 CURVE SMOOTH",
"1441 1131 OFFCURVE",
"1362 1270 OFFCURVE",
"1252 1371 CURVE SMOOTH",
"1142 1472 OFFCURVE",
"980 1536 OFFCURVE",
"795 1536 CURVE SMOOTH",
"702 1536 OFFCURVE",
"617 1521 OFFCURVE",
"538 1492 CURVE SMOOTH",
"381 1432 OFFCURVE",
"274 1329 OFFCURVE",
"197 1195 CURVE SMOOTH",
"120 1061 OFFCURVE",
"84 910 OFFCURVE",
"84 754 CURVE SMOOTH",
"84 676 OFFCURVE",
"93 600 OFFCURVE",
"112 525 CURVE SMOOTH"
);
},
{
closed = 1;
nodes = (
"340 919 OFFCURVE",
"381 1075 OFFCURVE",
"456 1196 CURVE SMOOTH",
"531 1317 OFFCURVE",
"652 1396 OFFCURVE",
"795 1396 CURVE SMOOTH",
"852 1396 OFFCURVE",
"906 1384 OFFCURVE",
"955 1360 CURVE SMOOTH",
"1054 1311 OFFCURVE",
"1123 1225 OFFCURVE",
"1174 1116 CURVE SMOOTH",
"1225 1007 OFFCURVE",
"1249 880 OFFCURVE",
"1249 752 CURVE SMOOTH",
"1249 589 OFFCURVE",
"1208 433 OFFCURVE",
"1134 313 CURVE SMOOTH",
"1060 192 OFFCURVE",
"938 113 OFFCURVE",
"795 113 CURVE SMOOTH",
"738 113 OFFCURVE",
"684 125 OFFCURVE",
"635 149 CURVE SMOOTH",
"535 196 OFFCURVE",
"467 281 OFFCURVE",
"416 390 CURVE SMOOTH",
"364 499 OFFCURVE",
"340 625 OFFCURVE",
"340 756 CURVE SMOOTH"
);
}
);
width = 1589;
}
);
leftKerningGroup = C;
note = O;
rightKerningGroup = D;
unicode = 004F;
},
{
glyphname = Oacute;
lastChange = "2016-09-01 13:28:17 +0000";
layers = (
{
layerId = "B47A5128-4537-4D9D-B9B8-D866CD9145B5";
paths = (
{
closed = 1;
nodes = (
"148 376 OFFCURVE",
"228 237 OFFCURVE",
"338 137 CURVE SMOOTH",
"448 37 OFFCURVE",
"610 -27 OFFCURVE",
"795 -27 CURVE SMOOTH",
"888 -27 OFFCURVE",
"973 -12 OFFCURVE",
"1052 18 CURVE SMOOTH",
"1208 77 OFFCURVE",
"1315 179 OFFCURVE",
"1392 313 CURVE SMOOTH",
"1469 447 OFFCURVE",
"1505 598 OFFCURVE",
"1505 754 CURVE SMOOTH",
"1505 832 OFFCURVE",
"1496 908 OFFCURVE",
"1478 983 CURVE SMOOTH",
"1441 1131 OFFCURVE",
"1362 1270 OFFCURVE",
"1252 1371 CURVE SMOOTH",
"1142 1472 OFFCURVE",
"980 1536 OFFCURVE",
"795 1536 CURVE SMOOTH",
"702 1536 OFFCURVE",
"617 1521 OFFCURVE",
"538 1492 CURVE SMOOTH",
"381 1432 OFFCURVE",
"274 1329 OFFCURVE",
"197 1195 CURVE SMOOTH",
"120 1061 OFFCURVE",
"84 910 OFFCURVE",
"84 754 CURVE SMOOTH",
"84 676 OFFCURVE",
"93 600 OFFCURVE",
"112 525 CURVE SMOOTH"
);
},
{
closed = 1;
nodes = (
"340 919 OFFCURVE",
"381 1075 OFFCURVE",
"456 1196 CURVE SMOOTH",
"531 1317 OFFCURVE",
"652 1396 OFFCURVE",
"795 1396 CURVE SMOOTH",
"852 1396 OFFCURVE",
"906 1384 OFFCURVE",
"955 1360 CURVE SMOOTH",
"1054 1311 OFFCURVE",
"1123 1225 OFFCURVE",
"1174 1116 CURVE SMOOTH",
"1225 1007 OFFCURVE",
"1249 880 OFFCURVE",
"1249 752 CURVE SMOOTH",
"1249 589 OFFCURVE",
"1208 433 OFFCURVE",
"1134 313 CURVE SMOOTH",
"1060 192 OFFCURVE",
"938 113 OFFCURVE",
"795 113 CURVE SMOOTH",
"738 113 OFFCURVE",
"684 125 OFFCURVE",
"635 149 CURVE SMOOTH",
"535 196 OFFCURVE",
"467 281 OFFCURVE",
"416 390 CURVE SMOOTH",
"364 499 OFFCURVE",
"340 625 OFFCURVE",
"340 756 CURVE SMOOTH"
);
},
{
closed = 1;
nodes = (
"904 1984 LINE SMOOTH",
"799 1909 OFFCURVE",
"615 1769 OFFCURVE",
"507 1677 CURVE",
"536 1638 LINE",
"650 1682 LINE SMOOTH",
"803 1739 OFFCURVE",
"1024 1842 OFFCURVE",
"1083 1902 CURVE",
"982 2041 LINE"
);
}
);
width = 1589;
}
);
leftKerningGroup = B;
note = Oacute;
rightKerningGroup = D;
unicode = 00D3;
},
{
glyphname = Obreve;
lastChange = "2016-09-01 13:28:17 +0000";
layers = (
{
layerId = "B47A5128-4537-4D9D-B9B8-D866CD9145B5";
paths = (
{
closed = 1;
nodes = (
"902 1807 OFFCURVE",
"850 1757 OFFCURVE",
"794 1757 CURVE SMOOTH",
"735 1757 OFFCURVE",
"684 1808 OFFCURVE",
"683 1884 CURVE",
"554 1884 LINE",
"557 1831 OFFCURVE",
"577 1774 OFFCURVE",
"615 1723 CURVE SMOOTH",
"653 1672 OFFCURVE",
"719 1638 OFFCURVE",
"796 1638 CURVE SMOOTH",
"873 1638 OFFCURVE",
"939 1674 OFFCURVE",
"976 1724 CURVE SMOOTH",
"1012 1774 OFFCURVE",
"1032 1829 OFFCURVE",
"1035 1880 CURVE",
"906 1880 LINE"
);
},
{
closed = 1;
nodes = (
"148 376 OFFCURVE",
"228 237 OFFCURVE",
"338 137 CURVE SMOOTH",
"448 37 OFFCURVE",
"610 -27 OFFCURVE",
"795 -27 CURVE SMOOTH",
"888 -27 OFFCURVE",
"973 -12 OFFCURVE",
"1052 18 CURVE SMOOTH",
"1208 77 OFFCURVE",
"1315 179 OFFCURVE",
"1392 313 CURVE SMOOTH",
"1469 447 OFFCURVE",
"1505 598 OFFCURVE",
"1505 754 CURVE SMOOTH",
"1505 832 OFFCURVE",
"1496 908 OFFCURVE",
"1478 983 CURVE SMOOTH",
"1441 1131 OFFCURVE",
"1362 1270 OFFCURVE",
"1252 1371 CURVE SMOOTH",
"1142 1472 OFFCURVE",
"980 1536 OFFCURVE",
"795 1536 CURVE SMOOTH",
"702 1536 OFFCURVE",
"617 1521 OFFCURVE",
"538 1492 CURVE SMOOTH",
"381 1432 OFFCURVE",
"274 1329 OFFCURVE",
"197 1195 CURVE SMOOTH",
"120 1061 OFFCURVE",
"84 910 OFFCURVE",
"84 754 CURVE SMOOTH",
"84 676 OFFCURVE",
"93 600 OFFCURVE",
"112 525 CURVE SMOOTH"
);
},
{
closed = 1;
nodes = (
"340 919 OFFCURVE",
"381 1075 OFFCURVE",
"456 1196 CURVE SMOOTH",
"531 1317 OFFCURVE",
"652 1396 OFFCURVE",
"795 1396 CURVE SMOOTH",
"852 1396 OFFCURVE",
"906 1384 OFFCURVE",
"955 1360 CURVE SMOOTH",
"1054 1311 OFFCURVE",
"1123 1225 OFFCURVE",
"1174 1116 CURVE SMOOTH",
"1225 1007 OFFCURVE",
"1249 880 OFFCURVE",
"1249 752 CURVE SMOOTH",
"1249 589 OFFCURVE",
"1208 433 OFFCURVE",
"1134 313 CURVE SMOOTH",
"1060 192 OFFCURVE",
"938 113 OFFCURVE",
"795 113 CURVE SMOOTH",
"738 113 OFFCURVE",
"684 125 OFFCURVE",
"635 149 CURVE SMOOTH",
"535 196 OFFCURVE",
"467 281 OFFCURVE",
"416 390 CURVE SMOOTH",
"364 499 OFFCURVE",
"340 625 OFFCURVE",
"340 756 CURVE SMOOTH"
);
}
);
width = 1589;
}
);
leftKerningGroup = B;
note = Obreve;
rightKerningGroup = D;
unicode = 014E;
},
{
glyphname = Ocircumflex;
lastChange = "2016-09-01 13:28:17 +0000";
layers = (
{
layerId = "B47A5128-4537-4D9D-B9B8-D866CD9145B5";
paths = (
{
closed = 1;
nodes = (
"846 1864 OFFCURVE",
"922 1773 OFFCURVE",
"1023 1638 CURVE",
"1122 1728 LINE",
"794 2085 LINE",
"468 1734 LINE",
"567 1642 LINE",
"606 1693 LINE SMOOTH",
"659 1762 OFFCURVE",
"747 1870 OFFCURVE",
"794 1911 CURVE"
);
},
{
closed = 1;
nodes = (
"148 376 OFFCURVE",
"228 237 OFFCURVE",
"338 137 CURVE SMOOTH",
"448 37 OFFCURVE",
"610 -27 OFFCURVE",
"795 -27 CURVE SMOOTH",
"888 -27 OFFCURVE",
"973 -12 OFFCURVE",
"1052 18 CURVE SMOOTH",
"1208 77 OFFCURVE",
"1315 179 OFFCURVE",
"1392 313 CURVE SMOOTH",
"1469 447 OFFCURVE",
"1505 598 OFFCURVE",
"1505 754 CURVE SMOOTH",
"1505 832 OFFCURVE",
"1496 908 OFFCURVE",
"1478 983 CURVE SMOOTH",
"1441 1131 OFFCURVE",
"1362 1270 OFFCURVE",
"1252 1371 CURVE SMOOTH",
"1142 1472 OFFCURVE",
"980 1536 OFFCURVE",
"795 1536 CURVE SMOOTH",
"702 1536 OFFCURVE",
"617 1521 OFFCURVE",
"538 1492 CURVE SMOOTH",
"381 1432 OFFCURVE",
"274 1329 OFFCURVE",
"197 1195 CURVE SMOOTH",
"120 1061 OFFCURVE",
"84 910 OFFCURVE",
"84 754 CURVE SMOOTH",
"84 676 OFFCURVE",
"93 600 OFFCURVE",
"112 525 CURVE SMOOTH"
);
},
{
closed = 1;
nodes = (
"340 919 OFFCURVE",
"381 1075 OFFCURVE",
"456 1196 CURVE SMOOTH",
"531 1317 OFFCURVE",
"652 1396 OFFCURVE",
"795 1396 CURVE SMOOTH",
"852 1396 OFFCURVE",
"906 1384 OFFCURVE",
"955 1360 CURVE SMOOTH",
"1054 1311 OFFCURVE",
"1123 1225 OFFCURVE",
"1174 1116 CURVE SMOOTH",
"1225 1007 OFFCURVE",
"1249 880 OFFCURVE",
"1249 752 CURVE SMOOTH",
"1249 589 OFFCURVE",
"1208 433 OFFCURVE",
"1134 313 CURVE SMOOTH",
"1060 192 OFFCURVE",
"938 113 OFFCURVE",
"795 113 CURVE SMOOTH",
"738 113 OFFCURVE",
"684 125 OFFCURVE",
"635 149 CURVE SMOOTH",
"535 196 OFFCURVE",
"467 281 OFFCURVE",
"416 390 CURVE SMOOTH",
"364 499 OFFCURVE",
"340 625 OFFCURVE",
"340 756 CURVE SMOOTH"
);
}
);
width = 1589;
}
);
leftKerningGroup = B;
note = Ocircumflex;
rightKerningGroup = D;
unicode = 00D4;
},
{
glyphname = Odieresis;
lastChange = "2016-09-01 13:28:17 +0000";
layers = (
{
layerId = "B47A5128-4537-4D9D-B9B8-D866CD9145B5";
paths = (
{
closed = 1;
nodes = (
"418 1700 OFFCURVE",
"479 1638 OFFCURVE",
"555 1638 CURVE SMOOTH",
"628 1638 OFFCURVE",
"692 1702 OFFCURVE",
"692 1775 CURVE SMOOTH",
"692 1851 OFFCURVE",
"630 1914 OFFCURVE",
"555 1914 CURVE SMOOTH",
"479 1914 OFFCURVE",
"418 1851 OFFCURVE",
"418 1775 CURVE SMOOTH"
);
},
{
closed = 1;
nodes = (
"893 1700 OFFCURVE",
"954 1638 OFFCURVE",
"1030 1638 CURVE SMOOTH",
"1105 1638 OFFCURVE",
"1170 1702 OFFCURVE",
"1170 1775 CURVE SMOOTH",
"1170 1851 OFFCURVE",
"1105 1914 OFFCURVE",
"1030 1914 CURVE SMOOTH",
"954 1914 OFFCURVE",
"893 1851 OFFCURVE",
"893 1775 CURVE SMOOTH"
);
},
{
closed = 1;
nodes = (
"148 376 OFFCURVE",
"228 237 OFFCURVE",
"338 137 CURVE SMOOTH",
"448 37 OFFCURVE",
"610 -27 OFFCURVE",
"795 -27 CURVE SMOOTH",
"888 -27 OFFCURVE",
"973 -12 OFFCURVE",
"1052 18 CURVE SMOOTH",
"1208 77 OFFCURVE",
"1315 179 OFFCURVE",
"1392 313 CURVE SMOOTH",
"1469 447 OFFCURVE",
"1505 598 OFFCURVE",
"1505 754 CURVE SMOOTH",
"1505 832 OFFCURVE",
"1496 908 OFFCURVE",
"1478 983 CURVE SMOOTH",
"1441 1131 OFFCURVE",
"1362 1270 OFFCURVE",
"1252 1371 CURVE SMOOTH",
"1142 1472 OFFCURVE",
"980 1536 OFFCURVE",
"795 1536 CURVE SMOOTH",
"702 1536 OFFCURVE",
"617 1521 OFFCURVE",
"538 1492 CURVE SMOOTH",
"381 1432 OFFCURVE",
"274 1329 OFFCURVE",
"197 1195 CURVE SMOOTH",
"120 1061 OFFCURVE",
"84 910 OFFCURVE",
"84 754 CURVE SMOOTH",
"84 676 OFFCURVE",
"93 600 OFFCURVE",
"112 525 CURVE SMOOTH"
);
},
{
closed = 1;
nodes = (
"340 919 OFFCURVE",
"381 1075 OFFCURVE",
"456 1196 CURVE SMOOTH",
"531 1317 OFFCURVE",
"652 1396 OFFCURVE",
"795 1396 CURVE SMOOTH",
"852 1396 OFFCURVE",
"906 1384 OFFCURVE",
"955 1360 CURVE SMOOTH",
"1054 1311 OFFCURVE",
"1123 1225 OFFCURVE",
"1174 1116 CURVE SMOOTH",
"1225 1007 OFFCURVE",
"1249 880 OFFCURVE",
"1249 752 CURVE SMOOTH",
"1249 589 OFFCURVE",
"1208 433 OFFCURVE",
"1134 313 CURVE SMOOTH",
"1060 192 OFFCURVE",
"938 113 OFFCURVE",
"795 113 CURVE SMOOTH",
"738 113 OFFCURVE",
"684 125 OFFCURVE",
"635 149 CURVE SMOOTH",
"535 196 OFFCURVE",
"467 281 OFFCURVE",
"416 390 CURVE SMOOTH",
"364 499 OFFCURVE",
"340 625 OFFCURVE",
"340 756 CURVE SMOOTH"
);
}
);
width = 1589;
}
);
leftKerningGroup = B;
note = Odieresis;
rightKerningGroup = D;
unicode = 00D6;
},
{
glyphname = Ograve;
lastChange = "2016-09-01 13:28:17 +0000";
layers = (
{
layerId = "B47A5128-4537-4D9D-B9B8-D866CD9145B5";
paths = (
{
closed = 1;
nodes = (
"148 376 OFFCURVE",
"228 237 OFFCURVE",
"338 137 CURVE SMOOTH",
"448 37 OFFCURVE",
"610 -27 OFFCURVE",
"795 -27 CURVE SMOOTH",
"888 -27 OFFCURVE",
"973 -12 OFFCURVE",
"1052 18 CURVE SMOOTH",
"1208 77 OFFCURVE",
"1315 179 OFFCURVE",
"1392 313 CURVE SMOOTH",
"1469 447 OFFCURVE",
"1505 598 OFFCURVE",
"1505 754 CURVE SMOOTH",
"1505 832 OFFCURVE",
"1496 908 OFFCURVE",
"1478 983 CURVE SMOOTH",
"1441 1131 OFFCURVE",
"1362 1270 OFFCURVE",
"1252 1371 CURVE SMOOTH",
"1142 1472 OFFCURVE",
"980 1536 OFFCURVE",
"795 1536 CURVE SMOOTH",
"702 1536 OFFCURVE",
"617 1521 OFFCURVE",
"538 1492 CURVE SMOOTH",
"381 1432 OFFCURVE",
"274 1329 OFFCURVE",
"197 1195 CURVE SMOOTH",
"120 1061 OFFCURVE",
"84 910 OFFCURVE",
"84 754 CURVE SMOOTH",
"84 676 OFFCURVE",
"93 600 OFFCURVE",
"112 525 CURVE SMOOTH"
);
},
{
closed = 1;
nodes = (
"340 919 OFFCURVE",
"381 1075 OFFCURVE",
"456 1196 CURVE SMOOTH",
"531 1317 OFFCURVE",
"652 1396 OFFCURVE",
"795 1396 CURVE SMOOTH",
"852 1396 OFFCURVE",
"906 1384 OFFCURVE",
"955 1360 CURVE SMOOTH",
"1054 1311 OFFCURVE",
"1123 1225 OFFCURVE",
"1174 1116 CURVE SMOOTH",
"1225 1007 OFFCURVE",
"1249 880 OFFCURVE",
"1249 752 CURVE SMOOTH",
"1249 589 OFFCURVE",
"1208 433 OFFCURVE",
"1134 313 CURVE SMOOTH",
"1060 192 OFFCURVE",
"938 113 OFFCURVE",
"795 113 CURVE SMOOTH",
"738 113 OFFCURVE",
"684 125 OFFCURVE",
"635 149 CURVE SMOOTH",
"535 196 OFFCURVE",
"467 281 OFFCURVE",
"416 390 CURVE SMOOTH",
"364 499 OFFCURVE",
"340 625 OFFCURVE",
"340 756 CURVE SMOOTH"
);
},
{
closed = 1;
nodes = (
"544 1863 OFFCURVE",
"650 1806 OFFCURVE",
"741 1766 CURVE SMOOTH",
"832 1725 OFFCURVE",
"964 1672 OFFCURVE",
"1005 1657 CURVE SMOOTH",
"1026 1649 OFFCURVE",
"1042 1643 OFFCURVE",
"1054 1638 CURVE",
"1083 1677 LINE",
"962 1781 OFFCURVE",
"803 1902 OFFCURVE",
"608 2041 CURVE",
"507 1902 LINE"
);
}
);
width = 1589;
}
);
leftKerningGroup = B;
note = Ograve;
rightKerningGroup = D;
unicode = 00D2;
},
{
glyphname = Ohungarumlaut;
lastChange = "2016-09-01 13:28:17 +0000";
layers = (
{
layerId = "B47A5128-4537-4D9D-B9B8-D866CD9145B5";
paths = (
{
closed = 1;
nodes = (
"861 2016 LINE SMOOTH",
"770 1927 OFFCURVE",
"603 1769 OFFCURVE",
"495 1677 CURVE",
"524 1638 LINE",
"628 1692 LINE SMOOTH",
"768 1763 OFFCURVE",
"971 1883 OFFCURVE",
"1030 1943 CURVE",
"929 2082 LINE"
);
},
{
closed = 1;
nodes = (
"1250 2016 LINE SMOOTH",
"1159 1927 OFFCURVE",
"992 1769 OFFCURVE",
"884 1677 CURVE",
"913 1638 LINE",
"1018 1692 LINE SMOOTH",
"1157 1763 OFFCURVE",
"1360 1883 OFFCURVE",
"1419 1943 CURVE",
"1319 2082 LINE"
);
},
{
closed = 1;
nodes = (
"148 376 OFFCURVE",
"228 237 OFFCURVE",
"338 137 CURVE SMOOTH",
"448 37 OFFCURVE",
"610 -27 OFFCURVE",
"795 -27 CURVE SMOOTH",
"888 -27 OFFCURVE",
"973 -12 OFFCURVE",
"1052 18 CURVE SMOOTH",
"1208 77 OFFCURVE",
"1315 179 OFFCURVE",
"1392 313 CURVE SMOOTH",
"1469 447 OFFCURVE",
"1505 598 OFFCURVE",
"1505 754 CURVE SMOOTH",
"1505 832 OFFCURVE",
"1496 908 OFFCURVE",
"1478 983 CURVE SMOOTH",
"1441 1131 OFFCURVE",
"1362 1270 OFFCURVE",
"1252 1371 CURVE SMOOTH",
"1142 1472 OFFCURVE",
"980 1536 OFFCURVE",
"795 1536 CURVE SMOOTH",
"702 1536 OFFCURVE",
"617 1521 OFFCURVE",
"538 1492 CURVE SMOOTH",
"381 1432 OFFCURVE",
"274 1329 OFFCURVE",
"197 1195 CURVE SMOOTH",
"120 1061 OFFCURVE",
"84 910 OFFCURVE",
"84 754 CURVE SMOOTH",
"84 676 OFFCURVE",
"93 600 OFFCURVE",
"112 525 CURVE SMOOTH"
);
},
{
closed = 1;
nodes = (
"340 919 OFFCURVE",
"381 1075 OFFCURVE",
"456 1196 CURVE SMOOTH",
"531 1317 OFFCURVE",
"652 1396 OFFCURVE",
"795 1396 CURVE SMOOTH",
"852 1396 OFFCURVE",
"906 1384 OFFCURVE",
"955 1360 CURVE SMOOTH",
"1054 1311 OFFCURVE",
"1123 1225 OFFCURVE",
"1174 1116 CURVE SMOOTH",
"1225 1007 OFFCURVE",
"1249 880 OFFCURVE",
"1249 752 CURVE SMOOTH",
"1249 589 OFFCURVE",
"1208 433 OFFCURVE",
"1134 313 CURVE SMOOTH",
"1060 192 OFFCURVE",
"938 113 OFFCURVE",
"795 113 CURVE SMOOTH",
"738 113 OFFCURVE",
"684 125 OFFCURVE",
"635 149 CURVE SMOOTH",
"535 196 OFFCURVE",
"467 281 OFFCURVE",
"416 390 CURVE SMOOTH",
"364 499 OFFCURVE",
"340 625 OFFCURVE",
"340 756 CURVE SMOOTH"
);
}
);
width = 1589;
}
);
leftKerningGroup = B;
note = Ohungarumlaut;
rightKerningGroup = D;
unicode = 0150;
},
{
glyphname = Omacron;
lastChange = "2016-09-01 13:28:17 +0000";
layers = (
{
layerId = "B47A5128-4537-4D9D-B9B8-D866CD9145B5";
paths = (
{
closed = 1;
nodes = (
"531 1776 LINE",
"531 1638 LINE",
"1113 1638 LINE",
"1113 1776 LINE"
);
},
{
closed = 1;
nodes = (
"148 376 OFFCURVE",
"228 237 OFFCURVE",
"338 137 CURVE SMOOTH",
"448 37 OFFCURVE",
"610 -27 OFFCURVE",
"795 -27 CURVE SMOOTH",
"888 -27 OFFCURVE",
"973 -12 OFFCURVE",
"1052 18 CURVE SMOOTH",
"1208 77 OFFCURVE",
"1315 179 OFFCURVE",
"1392 313 CURVE SMOOTH",
"1469 447 OFFCURVE",
"1505 598 OFFCURVE",
"1505 754 CURVE SMOOTH",
"1505 832 OFFCURVE",
"1496 908 OFFCURVE",
"1478 983 CURVE SMOOTH",
"1441 1131 OFFCURVE",
"1362 1270 OFFCURVE",
"1252 1371 CURVE SMOOTH",
"1142 1472 OFFCURVE",
"980 1536 OFFCURVE",
"795 1536 CURVE SMOOTH",
"702 1536 OFFCURVE",
"617 1521 OFFCURVE",
"538 1492 CURVE SMOOTH",
"381 1432 OFFCURVE",
"274 1329 OFFCURVE",
"197 1195 CURVE SMOOTH",
"120 1061 OFFCURVE",
"84 910 OFFCURVE",
"84 754 CURVE SMOOTH",
"84 676 OFFCURVE",
"93 600 OFFCURVE",
"112 525 CURVE SMOOTH"
);
},
{
closed = 1;
nodes = (
"340 919 OFFCURVE",
"381 1075 OFFCURVE",
"456 1196 CURVE SMOOTH",
"531 1317 OFFCURVE",
"652 1396 OFFCURVE",
"795 1396 CURVE SMOOTH",
"852 1396 OFFCURVE",
"906 1384 OFFCURVE",
"955 1360 CURVE SMOOTH",
"1054 1311 OFFCURVE",
"1123 1225 OFFCURVE",
"1174 1116 CURVE SMOOTH",
"1225 1007 OFFCURVE",
"1249 880 OFFCURVE",
"1249 752 CURVE SMOOTH",
"1249 589 OFFCURVE",
"1208 433 OFFCURVE",
"1134 313 CURVE SMOOTH",
"1060 192 OFFCURVE",
"938 113 OFFCURVE",
"795 113 CURVE SMOOTH",
"738 113 OFFCURVE",
"684 125 OFFCURVE",
"635 149 CURVE SMOOTH",
"535 196 OFFCURVE",
"467 281 OFFCURVE",
"416 390 CURVE SMOOTH",
"364 499 OFFCURVE",
"340 625 OFFCURVE",
"340 756 CURVE SMOOTH"
);
}
);
width = 1589;
}
);
leftKerningGroup = B;
note = Omacron;
rightKerningGroup = D;
unicode = 014C;
},
{
glyphname = Oslash;
lastChange = "2016-09-01 13:28:17 +0000";
layers = (
{
layerId = "B47A5128-4537-4D9D-B9B8-D866CD9145B5";
paths = (
{
closed = 1;
nodes = (
"371 470 OFFCURVE",
"340 603 OFFCURVE",
"340 756 CURVE SMOOTH",
"340 919 OFFCURVE",
"381 1077 OFFCURVE",
"456 1198 CURVE SMOOTH",
"531 1319 OFFCURVE",
"652 1399 OFFCURVE",
"795 1399 CURVE SMOOTH",
"937 1399 OFFCURVE",
"1051 1329 OFFCURVE",
"1137 1188 CURVE",
"432 355 LINE"
);
},
{
closed = 1;
nodes = (
"1226 998 OFFCURVE",
"1249 880 OFFCURVE",
"1249 752 CURVE SMOOTH",
"1249 589 OFFCURVE",
"1208 433 OFFCURVE",
"1134 313 CURVE SMOOTH",
"1060 192 OFFCURVE",
"938 113 OFFCURVE",
"795 113 CURVE SMOOTH",
"667 113 OFFCURVE",
"562 169 OFFCURVE",
"479 280 CURVE",
"1179 1107 LINE"
);
},
{
closed = 1;
nodes = (
"1147 1474 OFFCURVE",
"988 1536 OFFCURVE",
"795 1536 CURVE SMOOTH",
"702 1536 OFFCURVE",
"617 1521 OFFCURVE",
"538 1492 CURVE SMOOTH",
"381 1432 OFFCURVE",
"274 1329 OFFCURVE",
"197 1195 CURVE SMOOTH",
"120 1061 OFFCURVE",
"84 910 OFFCURVE",
"84 754 CURVE SMOOTH",
"84 541 OFFCURVE",
"156 333 OFFCURVE",
"289 186 CURVE",
"100 -37 LINE",
"166 -90 LINE",
"350 127 LINE",
"471 24 OFFCURVE",
"620 -27 OFFCURVE",
"795 -27 CURVE SMOOTH",
"888 -27 OFFCURVE",
"973 -12 OFFCURVE",
"1052 18 CURVE SMOOTH",
"1208 77 OFFCURVE",
"1315 179 OFFCURVE",
"1392 313 CURVE SMOOTH",
"1469 447 OFFCURVE",
"1505 598 OFFCURVE",
"1505 754 CURVE SMOOTH",
"1505 950 OFFCURVE",
"1446 1142 OFFCURVE",
"1331 1286 CURVE",
"1497 1483 LINE",
"1432 1536 LINE",
"1274 1349 LINE"
);
}
);
width = 1589;
}
);
leftKerningGroup = C;
note = Oslash;
rightKerningGroup = D;
unicode = 00D8;
},
{
glyphname = Otilde;
lastChange = "2016-09-01 13:28:17 +0000";
layers = (
{
layerId = "B47A5128-4537-4D9D-B9B8-D866CD9145B5";
paths = (
{
closed = 1;
nodes = (
"1028 1732 OFFCURVE",
"1049 1708 OFFCURVE",
"1049 1640 CURVE",
"1137 1640 LINE",
"1137 1817 OFFCURVE",
"1092 1883 OFFCURVE",
"969 1883 CURVE SMOOTH",
"931 1883 OFFCURVE",
"871 1867 OFFCURVE",
"790 1836 CURVE SMOOTH",
"709 1805 OFFCURVE",
"654 1789 OFFCURVE",
"627 1789 CURVE SMOOTH",
"560 1789 OFFCURVE",
"539 1813 OFFCURVE",
"539 1881 CURVE",
"451 1881 LINE",
"451 1704 OFFCURVE",
"496 1638 OFFCURVE",
"619 1638 CURVE SMOOTH",
"657 1638 OFFCURVE",
"717 1654 OFFCURVE",
"798 1685 CURVE SMOOTH",
"879 1716 OFFCURVE",
"934 1732 OFFCURVE",
"961 1732 CURVE SMOOTH"
);
},
{
closed = 1;
nodes = (
"148 376 OFFCURVE",
"228 237 OFFCURVE",
"338 137 CURVE SMOOTH",
"448 37 OFFCURVE",
"610 -27 OFFCURVE",
"795 -27 CURVE SMOOTH",
"888 -27 OFFCURVE",
"973 -12 OFFCURVE",
"1052 18 CURVE SMOOTH",
"1208 77 OFFCURVE",
"1315 179 OFFCURVE",
"1392 313 CURVE SMOOTH",
"1469 447 OFFCURVE",
"1505 598 OFFCURVE",
"1505 754 CURVE SMOOTH",
"1505 832 OFFCURVE",
"1496 908 OFFCURVE",
"1478 983 CURVE SMOOTH",
"1441 1131 OFFCURVE",
"1362 1270 OFFCURVE",
"1252 1371 CURVE SMOOTH",
"1142 1472 OFFCURVE",
"980 1536 OFFCURVE",
"795 1536 CURVE SMOOTH",
"702 1536 OFFCURVE",
"617 1521 OFFCURVE",
"538 1492 CURVE SMOOTH",
"381 1432 OFFCURVE",
"274 1329 OFFCURVE",
"197 1195 CURVE SMOOTH",
"120 1061 OFFCURVE",
"84 910 OFFCURVE",
"84 754 CURVE SMOOTH",
"84 676 OFFCURVE",
"93 600 OFFCURVE",
"112 525 CURVE SMOOTH"
);
},
{
closed = 1;
nodes = (
"340 919 OFFCURVE",
"381 1075 OFFCURVE",
"456 1196 CURVE SMOOTH",
"531 1317 OFFCURVE",
"652 1396 OFFCURVE",
"795 1396 CURVE SMOOTH",
"852 1396 OFFCURVE",
"906 1384 OFFCURVE",
"955 1360 CURVE SMOOTH",
"1054 1311 OFFCURVE",
"1123 1225 OFFCURVE",
"1174 1116 CURVE SMOOTH",
"1225 1007 OFFCURVE",
"1249 880 OFFCURVE",
"1249 752 CURVE SMOOTH",
"1249 589 OFFCURVE",
"1208 433 OFFCURVE",
"1134 313 CURVE SMOOTH",
"1060 192 OFFCURVE",
"938 113 OFFCURVE",
"795 113 CURVE SMOOTH",
"738 113 OFFCURVE",
"684 125 OFFCURVE",
"635 149 CURVE SMOOTH",
"535 196 OFFCURVE",
"467 281 OFFCURVE",
"416 390 CURVE SMOOTH",
"364 499 OFFCURVE",
"340 625 OFFCURVE",
"340 756 CURVE SMOOTH"
);
}
);
width = 1589;
}
);
leftKerningGroup = B;
note = Otilde;
rightKerningGroup = D;
unicode = 00D5;
},
{
glyphname = OE;
lastChange = "2016-09-01 13:28:17 +0000";
layers = (
{
layerId = "B47A5128-4537-4D9D-B9B8-D866CD9145B5";
paths = (
{
closed = 1;
nodes = (
"1907 137 LINE",
"1268 137 LINE",
"1268 698 LINE",
"1581 698 LINE",
"1581 424 LINE",
"1714 424 LINE",
"1714 1038 LINE",
"1581 1038 LINE",
"1581 813 LINE",
"1268 813 LINE",
"1268 1335 LINE",
"1907 1335 LINE",
"1907 899 LINE",
"2087 899 LINE",
"2087 1479 LINE",
"772 1479 LINE SMOOTH",
"593 1479 OFFCURVE",
"428 1415 OFFCURVE",
"298 1296 CURVE SMOOTH",
"168 1176 OFFCURVE",
"84 978 OFFCURVE",
"84 741 CURVE SMOOTH",
"84 510 OFFCURVE",
"163 314 OFFCURVE",
"289 192 CURVE SMOOTH",
"415 70 OFFCURVE",
"583 0 OFFCURVE",
"768 0 CURVE SMOOTH",
"2087 0 LINE",
"2087 571 LINE",
"1907 571 LINE"
);
},
{
closed = 1;
nodes = (
"340 940 OFFCURVE",
"393 1097 OFFCURVE",
"479 1192 CURVE SMOOTH",
"565 1287 OFFCURVE",
"677 1335 OFFCURVE",
"805 1335 CURVE SMOOTH",
"1042 1335 LINE",
"1042 137 LINE",
"774 137 LINE SMOOTH",
"526 137 OFFCURVE",
"340 371 OFFCURVE",
"340 743 CURVE SMOOTH"
);
}
);
width = 2197;
}
);
leftKerningGroup = C;
note = OE;
unicode = 0152;
},
{
glyphname = P;
lastChange = "2016-09-01 13:28:17 +0000";
layers = (
{
layerId = "B47A5128-4537-4D9D-B9B8-D866CD9145B5";
paths = (
{
closed = 1;
nodes = (
"591 1362 LINE SMOOTH",
"625 1362 OFFCURVE",
"654 1362 OFFCURVE",
"677 1361 CURVE SMOOTH",
"724 1360 OFFCURVE",
"793 1357 OFFCURVE",
"834 1350 CURVE SMOOTH",
"874 1343 OFFCURVE",
"928 1332 OFFCURVE",
"959 1314 CURVE SMOOTH",
"990 1296 OFFCURVE",
"1026 1268 OFFCURVE",
"1043 1233 CURVE SMOOTH",
"1060 1197 OFFCURVE",
"1073 1149 OFFCURVE",
"1073 1090 CURVE SMOOTH",
"1073 900 OFFCURVE",
"932 805 OFFCURVE",
"651 805 CURVE SMOOTH",
"512 805 LINE",
"512 1362 LINE",
"580 1362 LINE"
);
},
{
closed = 1;
nodes = (
"276 1362 LINE",
"276 143 LINE",
"33 143 LINE",
"33 0 LINE",
"762 0 LINE",
"762 143 LINE",
"512 143 LINE",
"512 676 LINE",
"592 676 LINE SMOOTH",
"649 676 OFFCURVE",
"698 677 OFFCURVE",
"741 679 CURVE SMOOTH",
"825 682 OFFCURVE",
"945 695 OFFCURVE",
"1021 718 CURVE SMOOTH",
"1097 741 OFFCURVE",
"1184 785 OFFCURVE",
"1233 843 CURVE SMOOTH",
"1281 901 OFFCURVE",
"1315 989 OFFCURVE",
"1315 1098 CURVE SMOOTH",
"1315 1152 OFFCURVE",
"1307 1201 OFFCURVE",
"1290 1244 CURVE SMOOTH",
"1256 1330 OFFCURVE",
"1207 1382 OFFCURVE",
"1127 1423 CURVE SMOOTH",
"1046 1463 OFFCURVE",
"982 1481 OFFCURVE",
"884 1493 CURVE SMOOTH",
"786 1504 OFFCURVE",
"734 1505 OFFCURVE",
"647 1505 CURVE SMOOTH",
"33 1505 LINE",
"33 1362 LINE"
);
}
);
width = 1333;
}
);
leftKerningGroup = B;
note = P;
rightKerningGroup = P;
unicode = 0050;
},
{
glyphname = Thorn;
lastChange = "2016-09-01 13:28:17 +0000";
layers = (
{
layerId = "B47A5128-4537-4D9D-B9B8-D866CD9145B5";
paths = (
{
closed = 1;
nodes = (
"1110 721 OFFCURVE",
"1102 683 OFFCURVE",
"1086 651 CURVE SMOOTH",
"1053 586 OFFCURVE",
"1006 552 OFFCURVE",
"928 531 CURVE SMOOTH",
"850 510 OFFCURVE",
"784 506 OFFCURVE",
"688 506 CURVE SMOOTH",
"549 506 LINE",
"549 1026 LINE",
"616 1026 LINE",
"658 1026 LINE SMOOTH",
"698 1026 OFFCURVE",
"733 1026 OFFCURVE",
"762 1025 CURVE SMOOTH",
"821 1024 OFFCURVE",
"894 1017 OFFCURVE",
"941 1005 CURVE SMOOTH",
"988 992 OFFCURVE",
"1037 966 OFFCURVE",
"1065 930 CURVE SMOOTH",
"1092 894 OFFCURVE",
"1110 838 OFFCURVE",
"1110 766 CURVE SMOOTH"
);
},
{
closed = 1;
nodes = (
"549 137 LINE",
"549 377 LINE",
"629 377 LINE SMOOTH",
"692 377 OFFCURVE",
"742 377 OFFCURVE",
"779 378 CURVE SMOOTH",
"851 379 OFFCURVE",
"991 390 OFFCURVE",
"1059 410 CURVE SMOOTH",
"1127 429 OFFCURVE",
"1225 468 OFFCURVE",
"1270 524 CURVE SMOOTH",
"1315 579 OFFCURVE",
"1352 665 OFFCURVE",
"1352 774 CURVE SMOOTH",
"1352 816 OFFCURVE",
"1347 855 OFFCURVE",
"1336 890 CURVE SMOOTH",
"1315 961 OFFCURVE",
"1286 1010 OFFCURVE",
"1232 1050 CURVE SMOOTH",
"1178 1090 OFFCURVE",
"1135 1114 OFFCURVE",
"1061 1133 CURVE SMOOTH",
"987 1152 OFFCURVE",
"944 1159 OFFCURVE",
"865 1164 CURVE SMOOTH",
"785 1169 OFFCURVE",
"755 1169 OFFCURVE",
"684 1169 CURVE SMOOTH",
"549 1169 LINE",
"549 1335 LINE",
"778 1335 LINE",
"778 1479 LINE",
"70 1479 LINE",
"70 1335 LINE",
"313 1335 LINE",
"313 137 LINE",
"70 137 LINE",
"70 0 LINE",
"799 0 LINE",
"799 137 LINE"
);
}
);
width = 1382;
}
);
note = Thorn;
unicode = 00DE;
},
{
glyphname = Q;
lastChange = "2016-09-01 13:28:17 +0000";
layers = (
{
layerId = "B47A5128-4537-4D9D-B9B8-D866CD9145B5";
paths = (
{
closed = 1;
nodes = (
"689 113 OFFCURVE",
"599 150 OFFCURVE",
"526 223 CURVE",
"582 324 OFFCURVE",
"644 375 OFFCURVE",
"713 375 CURVE SMOOTH",
"808 375 OFFCURVE",
"880 295 OFFCURVE",
"965 152 CURVE",
"914 126 OFFCURVE",
"858 113 OFFCURVE",
"795 113 CURVE SMOOTH"
);
},
{
closed = 1;
nodes = (
"675 502 OFFCURVE",
"596 475 OFFCURVE",
"547 433 CURVE SMOOTH",
"498 391 OFFCURVE",
"472 355 OFFCURVE",
"451 315 CURVE",
"380 430 OFFCURVE",
"340 595 OFFCURVE",
"340 756 CURVE SMOOTH",
"340 919 OFFCURVE",
"381 1075 OFFCURVE",
"456 1196 CURVE SMOOTH",
"531 1317 OFFCURVE",
"652 1396 OFFCURVE",
"795 1396 CURVE SMOOTH",
"852 1396 OFFCURVE",
"906 1384 OFFCURVE",
"955 1360 CURVE SMOOTH",
"1054 1311 OFFCURVE",
"1123 1225 OFFCURVE",
"1174 1116 CURVE SMOOTH",
"1225 1007 OFFCURVE",
"1249 880 OFFCURVE",
"1249 752 CURVE SMOOTH",
"1249 579 OFFCURVE",
"1204 402 OFFCURVE",
"1120 289 CURVE",
"1019 420 OFFCURVE",
"913 502 OFFCURVE",
"766 502 CURVE SMOOTH"
);
},
{
closed = 1;
nodes = (
"1550 252 LINE",
"1550 229 LINE SMOOTH",
"1550 86 OFFCURVE",
"1493 -21 OFFCURVE",
"1413 -29 CURVE",
"1405 -29 LINE SMOOTH",
"1352 -29 OFFCURVE",
"1304 22 OFFCURVE",
"1237 121 CURVE",
"1410 264 OFFCURVE",
"1505 506 OFFCURVE",
"1505 754 CURVE SMOOTH",
"1505 832 OFFCURVE",
"1496 908 OFFCURVE",
"1478 983 CURVE SMOOTH",
"1441 1131 OFFCURVE",
"1362 1270 OFFCURVE",
"1252 1371 CURVE SMOOTH",
"1142 1472 OFFCURVE",
"980 1536 OFFCURVE",
"795 1536 CURVE SMOOTH",
"702 1536 OFFCURVE",
"617 1521 OFFCURVE",
"538 1492 CURVE SMOOTH",
"381 1432 OFFCURVE",
"274 1329 OFFCURVE",
"197 1195 CURVE SMOOTH",
"120 1061 OFFCURVE",
"84 910 OFFCURVE",
"84 754 CURVE SMOOTH",
"84 676 OFFCURVE",
"93 600 OFFCURVE",
"112 525 CURVE SMOOTH",
"148 376 OFFCURVE",
"228 237 OFFCURVE",
"338 137 CURVE SMOOTH",
"448 37 OFFCURVE",
"610 -27 OFFCURVE",
"795 -27 CURVE SMOOTH",
"888 -27 OFFCURVE",
"972 -13 OFFCURVE",
"1049 14 CURVE",
"1144 -134 OFFCURVE",
"1233 -221 OFFCURVE",
"1358 -221 CURVE SMOOTH",
"1462 -221 OFFCURVE",
"1529 -201 OFFCURVE",
"1586 -137 CURVE SMOOTH",
"1643 -74 OFFCURVE",
"1671 46 OFFCURVE",
"1671 229 CURVE SMOOTH",
"1671 252 LINE"
);
}
);
width = 1617;
}
);
leftKerningGroup = C;
note = Q;
rightKerningGroup = D;
unicode = 0051;
},
{
glyphname = R;
lastChange = "2016-09-01 13:28:17 +0000";
layers = (
{
layerId = "B47A5128-4537-4D9D-B9B8-D866CD9145B5";
paths = (
{
closed = 1;
nodes = (
"1481 -33 OFFCURVE",
"1581 86 OFFCURVE",
"1581 324 CURVE SMOOTH",
"1581 471 LINE",
"1446 471 LINE",
"1446 332 LINE SMOOTH",
"1446 206 OFFCURVE",
"1412 143 OFFCURVE",
"1343 143 CURVE SMOOTH",
"1308 143 OFFCURVE",
"1281 165 OFFCURVE",
"1265 193 CURVE SMOOTH",
"1248 221 OFFCURVE",
"1231 276 OFFCURVE",
"1223 319 CURVE SMOOTH",
"1214 362 OFFCURVE",
"1198 437 OFFCURVE",
"1186 481 CURVE SMOOTH",
"1165 558 OFFCURVE",
"1148 603 OFFCURVE",
"1113 649 CURVE SMOOTH",
"1077 695 OFFCURVE",
"1026 721 OFFCURVE",
"950 737 CURVE",
"1063 760 OFFCURVE",
"1142 791 OFFCURVE",
"1214 847 CURVE SMOOTH",
"1285 903 OFFCURVE",
"1323 991 OFFCURVE",
"1323 1108 CURVE SMOOTH",
"1323 1163 OFFCURVE",
"1315 1211 OFFCURVE",
"1298 1254 CURVE SMOOTH",
"1264 1339 OFFCURVE",
"1220 1390 OFFCURVE",
"1134 1429 CURVE SMOOTH",
"1048 1468 OFFCURVE",
"991 1484 OFFCURVE",
"878 1495 CURVE SMOOTH",
"765 1506 OFFCURVE",
"720 1505 OFFCURVE",
"608 1505 CURVE SMOOTH",
"33 1505 LINE",
"33 1362 LINE",
"276 1362 LINE",
"276 143 LINE",
"33 143 LINE",
"33 0 LINE",
"739 0 LINE",
"739 143 LINE",
"512 143 LINE",
"512 686 LINE",
"748 686 LINE SMOOTH",
"756 686 OFFCURVE",
"766 685 OFFCURVE",
"778 682 CURVE SMOOTH",
"801 676 OFFCURVE",
"841 652 OFFCURVE",
"874 619 CURVE SMOOTH",
"906 586 OFFCURVE",
"939 520 OFFCURVE",
"952 440 CURVE SMOOTH",
"963 376 OFFCURVE",
"975 322 OFFCURVE",
"986 277 CURVE SMOOTH",
"1008 187 OFFCURVE",
"1043 97 OFFCURVE",
"1088 48 CURVE SMOOTH",
"1132 -1 OFFCURVE",
"1198 -33 OFFCURVE",
"1282 -33 CURVE SMOOTH"
);
},
{
closed = 1;
nodes = (
"629 1362 LINE SMOOTH",
"800 1362 OFFCURVE",
"907 1348 OFFCURVE",
"991 1308 CURVE SMOOTH",
"1075 1267 OFFCURVE",
"1112 1198 OFFCURVE",
"1112 1090 CURVE SMOOTH",
"1112 1027 OFFCURVE",
"1093 977 OFFCURVE",
"1054 939 CURVE SMOOTH",
"977 862 OFFCURVE",
"845 836 OFFCURVE",
"637 836 CURVE SMOOTH",
"512 836 LINE",
"512 1362 LINE"
);
}
);
width = 1583;
}
);
leftKerningGroup = B;
note = R;
rightKerningGroup = R;
unicode = 0052;
},
{
glyphname = Racute;
lastChange = "2016-09-01 13:28:17 +0000";
layers = (
{
layerId = "B47A5128-4537-4D9D-B9B8-D866CD9145B5";
paths = (
{
closed = 1;
nodes = (
"1175 1984 LINE SMOOTH",
"1070 1909 OFFCURVE",
"886 1769 OFFCURVE",
"778 1677 CURVE",
"807 1638 LINE",
"921 1682 LINE SMOOTH",
"1074 1739 OFFCURVE",
"1295 1842 OFFCURVE",
"1354 1902 CURVE",
"1253 2041 LINE"
);
},
{
closed = 1;
nodes = (
"1481 -33 OFFCURVE",
"1581 86 OFFCURVE",
"1581 324 CURVE SMOOTH",
"1581 471 LINE",
"1446 471 LINE",
"1446 332 LINE SMOOTH",
"1446 206 OFFCURVE",
"1412 143 OFFCURVE",
"1343 143 CURVE SMOOTH",
"1308 143 OFFCURVE",
"1281 165 OFFCURVE",
"1265 193 CURVE SMOOTH",
"1248 221 OFFCURVE",
"1231 276 OFFCURVE",
"1223 319 CURVE SMOOTH",
"1214 362 OFFCURVE",
"1198 437 OFFCURVE",
"1186 481 CURVE SMOOTH",
"1165 558 OFFCURVE",
"1148 603 OFFCURVE",
"1113 649 CURVE SMOOTH",
"1077 695 OFFCURVE",
"1026 721 OFFCURVE",
"950 737 CURVE",
"1063 760 OFFCURVE",
"1142 791 OFFCURVE",
"1214 847 CURVE SMOOTH",
"1285 903 OFFCURVE",
"1323 991 OFFCURVE",
"1323 1108 CURVE SMOOTH",
"1323 1163 OFFCURVE",
"1315 1211 OFFCURVE",
"1298 1254 CURVE SMOOTH",
"1264 1339 OFFCURVE",
"1220 1390 OFFCURVE",
"1134 1429 CURVE SMOOTH",
"1048 1468 OFFCURVE",
"991 1484 OFFCURVE",
"878 1495 CURVE SMOOTH",
"765 1506 OFFCURVE",
"720 1505 OFFCURVE",
"608 1505 CURVE SMOOTH",
"33 1505 LINE",
"33 1362 LINE",
"276 1362 LINE",
"276 143 LINE",
"33 143 LINE",
"33 0 LINE",
"739 0 LINE",
"739 143 LINE",
"512 143 LINE",
"512 686 LINE",
"748 686 LINE SMOOTH",
"756 686 OFFCURVE",
"766 685 OFFCURVE",
"778 682 CURVE SMOOTH",
"801 676 OFFCURVE",
"841 652 OFFCURVE",
"874 619 CURVE SMOOTH",
"906 586 OFFCURVE",
"939 520 OFFCURVE",
"952 440 CURVE SMOOTH",
"963 376 OFFCURVE",
"975 322 OFFCURVE",
"986 277 CURVE SMOOTH",
"1008 187 OFFCURVE",
"1043 97 OFFCURVE",
"1088 48 CURVE SMOOTH",
"1132 -1 OFFCURVE",
"1198 -33 OFFCURVE",
"1282 -33 CURVE SMOOTH"
);
},
{
closed = 1;
nodes = (
"629 1362 LINE SMOOTH",
"800 1362 OFFCURVE",
"907 1348 OFFCURVE",
"991 1308 CURVE SMOOTH",
"1075 1267 OFFCURVE",
"1112 1198 OFFCURVE",
"1112 1090 CURVE SMOOTH",
"1112 1027 OFFCURVE",
"1093 977 OFFCURVE",
"1054 939 CURVE SMOOTH",
"977 862 OFFCURVE",
"845 836 OFFCURVE",
"637 836 CURVE SMOOTH",
"512 836 LINE",
"512 1362 LINE"
);
}
);
width = 1583;
}
);
leftKerningGroup = B;
note = Racute;
rightKerningGroup = R;
unicode = 0154;
},
{
glyphname = Rcaron;
lastChange = "2016-09-01 13:28:17 +0000";
layers = (
{
layerId = "B47A5128-4537-4D9D-B9B8-D866CD9145B5";
paths = (
{
closed = 1;
nodes = (
"756 1859 OFFCURVE",
"680 1950 OFFCURVE",
"579 2085 CURVE",
"480 1995 LINE",
"808 1638 LINE",
"1134 1988 LINE",
"1035 2081 LINE",
"996 2029 LINE SMOOTH",
"943 1961 OFFCURVE",
"855 1853 OFFCURVE",
"808 1812 CURVE"
);
},
{
closed = 1;
nodes = (
"1481 -33 OFFCURVE",
"1581 86 OFFCURVE",
"1581 324 CURVE SMOOTH",
"1581 471 LINE",
"1446 471 LINE",
"1446 332 LINE SMOOTH",
"1446 206 OFFCURVE",
"1412 143 OFFCURVE",
"1343 143 CURVE SMOOTH",
"1308 143 OFFCURVE",
"1281 165 OFFCURVE",
"1265 193 CURVE SMOOTH",
"1248 221 OFFCURVE",
"1231 276 OFFCURVE",
"1223 319 CURVE SMOOTH",
"1214 362 OFFCURVE",
"1198 437 OFFCURVE",
"1186 481 CURVE SMOOTH",
"1165 558 OFFCURVE",
"1148 603 OFFCURVE",
"1113 649 CURVE SMOOTH",
"1077 695 OFFCURVE",
"1026 721 OFFCURVE",
"950 737 CURVE",
"1063 760 OFFCURVE",
"1142 791 OFFCURVE",
"1214 847 CURVE SMOOTH",
"1285 903 OFFCURVE",
"1323 991 OFFCURVE",
"1323 1108 CURVE SMOOTH",
"1323 1163 OFFCURVE",
"1315 1211 OFFCURVE",
"1298 1254 CURVE SMOOTH",
"1264 1339 OFFCURVE",
"1220 1390 OFFCURVE",
"1134 1429 CURVE SMOOTH",
"1048 1468 OFFCURVE",
"991 1484 OFFCURVE",
"878 1495 CURVE SMOOTH",
"765 1506 OFFCURVE",
"720 1505 OFFCURVE",
"608 1505 CURVE SMOOTH",
"33 1505 LINE",
"33 1362 LINE",
"276 1362 LINE",
"276 143 LINE",
"33 143 LINE",
"33 0 LINE",
"739 0 LINE",
"739 143 LINE",
"512 143 LINE",
"512 686 LINE",
"748 686 LINE SMOOTH",
"756 686 OFFCURVE",
"766 685 OFFCURVE",
"778 682 CURVE SMOOTH",
"801 676 OFFCURVE",
"841 652 OFFCURVE",
"874 619 CURVE SMOOTH",
"906 586 OFFCURVE",
"939 520 OFFCURVE",
"952 440 CURVE SMOOTH",
"963 376 OFFCURVE",
"975 322 OFFCURVE",
"986 277 CURVE SMOOTH",
"1008 187 OFFCURVE",
"1043 97 OFFCURVE",
"1088 48 CURVE SMOOTH",
"1132 -1 OFFCURVE",
"1198 -33 OFFCURVE",
"1282 -33 CURVE SMOOTH"
);
},
{
closed = 1;
nodes = (
"629 1362 LINE SMOOTH",
"800 1362 OFFCURVE",
"907 1348 OFFCURVE",
"991 1308 CURVE SMOOTH",
"1075 1267 OFFCURVE",
"1112 1198 OFFCURVE",
"1112 1090 CURVE SMOOTH",
"1112 1027 OFFCURVE",
"1093 977 OFFCURVE",
"1054 939 CURVE SMOOTH",
"977 862 OFFCURVE",
"845 836 OFFCURVE",
"637 836 CURVE SMOOTH",
"512 836 LINE",
"512 1362 LINE"
);
}
);
width = 1583;
}
);
leftKerningGroup = B;
note = Rcaron;
rightKerningGroup = R;
unicode = 0158;
},
{
glyphname = Rcommaaccent;
lastChange = "2016-09-01 13:28:17 +0000";
layers = (
{
layerId = "B47A5128-4537-4D9D-B9B8-D866CD9145B5";
paths = (
{
closed = 1;
nodes = (
"724 -204 LINE SMOOTH",
"725 -251 OFFCURVE",
"726 -310 OFFCURVE",
"726 -383 CURVE SMOOTH",
"726 -456 OFFCURVE",
"725 -518 OFFCURVE",
"722 -570 CURVE",
"771 -576 LINE",
"803 -490 LINE SMOOTH",
"846 -375 OFFCURVE",
"896 -199 OFFCURVE",
"892 -135 CURVE",
"722 -135 LINE"
);
},
{
closed = 1;
nodes = (
"1481 -33 OFFCURVE",
"1581 86 OFFCURVE",
"1581 324 CURVE SMOOTH",
"1581 471 LINE",
"1446 471 LINE",
"1446 332 LINE SMOOTH",
"1446 206 OFFCURVE",
"1412 143 OFFCURVE",
"1343 143 CURVE SMOOTH",
"1308 143 OFFCURVE",
"1281 165 OFFCURVE",
"1265 193 CURVE SMOOTH",
"1248 221 OFFCURVE",
"1231 276 OFFCURVE",
"1223 319 CURVE SMOOTH",
"1214 362 OFFCURVE",
"1198 437 OFFCURVE",
"1186 481 CURVE SMOOTH",
"1165 558 OFFCURVE",
"1148 603 OFFCURVE",
"1113 649 CURVE SMOOTH",
"1077 695 OFFCURVE",
"1026 721 OFFCURVE",
"950 737 CURVE",
"1063 760 OFFCURVE",
"1142 791 OFFCURVE",
"1214 847 CURVE SMOOTH",
"1285 903 OFFCURVE",
"1323 991 OFFCURVE",
"1323 1108 CURVE SMOOTH",
"1323 1163 OFFCURVE",
"1315 1211 OFFCURVE",
"1298 1254 CURVE SMOOTH",
"1264 1339 OFFCURVE",
"1220 1390 OFFCURVE",
"1134 1429 CURVE SMOOTH",
"1048 1468 OFFCURVE",
"991 1484 OFFCURVE",
"878 1495 CURVE SMOOTH",
"765 1506 OFFCURVE",
"720 1505 OFFCURVE",
"608 1505 CURVE SMOOTH",
"33 1505 LINE",
"33 1362 LINE",
"276 1362 LINE",
"276 143 LINE",
"33 143 LINE",
"33 0 LINE",
"739 0 LINE",
"739 143 LINE",
"512 143 LINE",
"512 686 LINE",
"748 686 LINE SMOOTH",
"756 686 OFFCURVE",
"766 685 OFFCURVE",
"778 682 CURVE SMOOTH",
"801 676 OFFCURVE",
"841 652 OFFCURVE",
"874 619 CURVE SMOOTH",
"906 586 OFFCURVE",
"939 520 OFFCURVE",
"952 440 CURVE SMOOTH",
"963 376 OFFCURVE",
"975 322 OFFCURVE",
"986 277 CURVE SMOOTH",
"1008 187 OFFCURVE",
"1043 97 OFFCURVE",
"1088 48 CURVE SMOOTH",
"1132 -1 OFFCURVE",
"1198 -33 OFFCURVE",
"1282 -33 CURVE SMOOTH"
);
},
{
closed = 1;
nodes = (
"629 1362 LINE SMOOTH",
"800 1362 OFFCURVE",
"907 1348 OFFCURVE",
"991 1308 CURVE SMOOTH",
"1075 1267 OFFCURVE",
"1112 1198 OFFCURVE",
"1112 1090 CURVE SMOOTH",
"1112 1027 OFFCURVE",
"1093 977 OFFCURVE",
"1054 939 CURVE SMOOTH",
"977 862 OFFCURVE",
"845 836 OFFCURVE",
"637 836 CURVE SMOOTH",
"512 836 LINE",
"512 1362 LINE"
);
}
);
width = 1583;
}
);
leftKerningGroup = B;
note = Rcommaaccent;
rightKerningGroup = R;
unicode = 0156;
},
{
glyphname = S;
lastChange = "2016-09-01 13:28:17 +0000";
layers = (
{
layerId = "B47A5128-4537-4D9D-B9B8-D866CD9145B5";
paths = (
{
closed = 1;
nodes = (
"1063 -27 OFFCURVE",
"1278 133 OFFCURVE",
"1278 397 CURVE SMOOTH",
"1278 444 OFFCURVE",
"1273 487 OFFCURVE",
"1263 524 CURVE SMOOTH",
"1242 598 OFFCURVE",
"1189 674 OFFCURVE",
"1098 732 CURVE SMOOTH",
"1007 790 OFFCURVE",
"864 843 OFFCURVE",
"668 887 CURVE SMOOTH",
"607 900 OFFCURVE",
"555 915 OFFCURVE",
"512 932 CURVE SMOOTH",
"424 965 OFFCURVE",
"379 995 OFFCURVE",
"351 1035 CURVE SMOOTH",
"322 1075 OFFCURVE",
"317 1106 OFFCURVE",
"317 1153 CURVE SMOOTH",
"317 1202 OFFCURVE",
"334 1246 OFFCURVE",
"369 1284 CURVE SMOOTH",
"438 1359 OFFCURVE",
"551 1396 OFFCURVE",
"678 1396 CURVE SMOOTH",
"824 1396 OFFCURVE",
"937 1365 OFFCURVE",
"1016 1303 CURVE",
"943 1303 OFFCURVE",
"879 1254 OFFCURVE",
"879 1147 CURVE SMOOTH",
"879 1062 OFFCURVE",
"958 1006 OFFCURVE",
"1047 1006 CURVE SMOOTH",
"1155 1006 OFFCURVE",
"1217 1089 OFFCURVE",
"1217 1206 CURVE SMOOTH",
"1217 1253 OFFCURVE",
"1204 1295 OFFCURVE",
"1179 1334 CURVE SMOOTH",
"1127 1411 OFFCURVE",
"1045 1457 OFFCURVE",
"942 1490 CURVE SMOOTH",
"839 1523 OFFCURVE",
"742 1536 OFFCURVE",
"653 1536 CURVE SMOOTH",
"313 1536 OFFCURVE",
"78 1357 OFFCURVE",
"78 1112 CURVE SMOOTH",
"78 1035 OFFCURVE",
"94 969 OFFCURVE",
"125 915 CURVE SMOOTH",
"187 806 OFFCURVE",
"341 717 OFFCURVE",
"614 649 CURVE SMOOTH",
"675 634 OFFCURVE",
"725 620 OFFCURVE",
"765 608 CURVE SMOOTH",
"844 584 OFFCURVE",
"921 550 OFFCURVE",
"960 514 CURVE SMOOTH",
"999 477 OFFCURVE",
"1022 427 OFFCURVE",
"1022 362 CURVE SMOOTH",
"1022 307 OFFCURVE",
"1004 260 OFFCURVE",
"968 221 CURVE SMOOTH",
"896 144 OFFCURVE",
"783 113 OFFCURVE",
"643 113 CURVE SMOOTH",
"458 113 OFFCURVE",
"350 150 OFFCURVE",
"258 215 CURVE",
"345 226 OFFCURVE",
"399 272 OFFCURVE",
"399 360 CURVE SMOOTH",
"399 445 OFFCURVE",
"329 526 OFFCURVE",
"240 526 CURVE SMOOTH",
"144 526 OFFCURVE",
"59 447 OFFCURVE",
"59 336 CURVE SMOOTH",
"59 216 OFFCURVE",
"135 117 OFFCURVE",
"254 60 CURVE SMOOTH",
"373 3 OFFCURVE",
"519 -27 OFFCURVE",
"676 -27 CURVE SMOOTH"
);
}
);
width = 1337;
}
);
note = S;
unicode = 0053;
},
{
glyphname = Sacute;
lastChange = "2016-09-01 13:28:17 +0000";
layers = (
{
layerId = "B47A5128-4537-4D9D-B9B8-D866CD9145B5";
paths = (
{
closed = 1;
nodes = (
"1063 -27 OFFCURVE",
"1278 133 OFFCURVE",
"1278 397 CURVE SMOOTH",
"1278 444 OFFCURVE",
"1273 487 OFFCURVE",
"1263 524 CURVE SMOOTH",
"1242 598 OFFCURVE",
"1189 674 OFFCURVE",
"1098 732 CURVE SMOOTH",
"1007 790 OFFCURVE",
"864 843 OFFCURVE",
"668 887 CURVE SMOOTH",
"607 900 OFFCURVE",
"555 915 OFFCURVE",
"512 932 CURVE SMOOTH",
"424 965 OFFCURVE",
"379 995 OFFCURVE",
"351 1035 CURVE SMOOTH",
"322 1075 OFFCURVE",
"317 1106 OFFCURVE",
"317 1153 CURVE SMOOTH",
"317 1202 OFFCURVE",
"334 1246 OFFCURVE",
"369 1284 CURVE SMOOTH",
"438 1359 OFFCURVE",
"551 1396 OFFCURVE",
"678 1396 CURVE SMOOTH",
"824 1396 OFFCURVE",
"937 1365 OFFCURVE",
"1016 1303 CURVE",
"943 1303 OFFCURVE",
"879 1254 OFFCURVE",
"879 1147 CURVE SMOOTH",
"879 1062 OFFCURVE",
"958 1006 OFFCURVE",
"1047 1006 CURVE SMOOTH",
"1155 1006 OFFCURVE",
"1217 1089 OFFCURVE",
"1217 1206 CURVE SMOOTH",
"1217 1253 OFFCURVE",
"1204 1295 OFFCURVE",
"1179 1334 CURVE SMOOTH",
"1127 1411 OFFCURVE",
"1045 1457 OFFCURVE",
"942 1490 CURVE SMOOTH",
"839 1523 OFFCURVE",
"742 1536 OFFCURVE",
"653 1536 CURVE SMOOTH",
"313 1536 OFFCURVE",
"78 1357 OFFCURVE",
"78 1112 CURVE SMOOTH",
"78 1035 OFFCURVE",
"94 969 OFFCURVE",
"125 915 CURVE SMOOTH",
"187 806 OFFCURVE",
"341 717 OFFCURVE",
"614 649 CURVE SMOOTH",
"675 634 OFFCURVE",
"725 620 OFFCURVE",
"765 608 CURVE SMOOTH",
"844 584 OFFCURVE",
"921 550 OFFCURVE",
"960 514 CURVE SMOOTH",
"999 477 OFFCURVE",
"1022 427 OFFCURVE",
"1022 362 CURVE SMOOTH",
"1022 307 OFFCURVE",
"1004 260 OFFCURVE",
"968 221 CURVE SMOOTH",
"896 144 OFFCURVE",
"783 113 OFFCURVE",
"643 113 CURVE SMOOTH",
"458 113 OFFCURVE",
"350 150 OFFCURVE",
"258 215 CURVE",
"345 226 OFFCURVE",
"399 272 OFFCURVE",
"399 360 CURVE SMOOTH",
"399 445 OFFCURVE",
"329 526 OFFCURVE",
"240 526 CURVE SMOOTH",
"144 526 OFFCURVE",
"59 447 OFFCURVE",
"59 336 CURVE SMOOTH",
"59 216 OFFCURVE",
"135 117 OFFCURVE",
"254 60 CURVE SMOOTH",
"373 3 OFFCURVE",
"519 -27 OFFCURVE",
"676 -27 CURVE SMOOTH"
);
},
{
closed = 1;
nodes = (
"762 1984 LINE SMOOTH",
"657 1909 OFFCURVE",
"473 1769 OFFCURVE",
"365 1677 CURVE",
"394 1638 LINE",
"508 1682 LINE SMOOTH",
"661 1739 OFFCURVE",
"882 1842 OFFCURVE",
"941 1902 CURVE",
"840 2041 LINE"
);
}
);
width = 1337;
}
);
note = Sacute;
unicode = 015A;
},
{
glyphname = Scaron;
lastChange = "2016-09-01 13:28:17 +0000";
layers = (
{
layerId = "B47A5128-4537-4D9D-B9B8-D866CD9145B5";
paths = (
{
closed = 1;
nodes = (
"618 1859 OFFCURVE",
"542 1950 OFFCURVE",
"441 2085 CURVE",
"342 1995 LINE",
"670 1638 LINE",
"996 1988 LINE",
"897 2081 LINE",
"858 2029 LINE SMOOTH",
"805 1961 OFFCURVE",
"717 1853 OFFCURVE",
"670 1812 CURVE"
);
},
{
closed = 1;
nodes = (
"1063 -27 OFFCURVE",
"1278 133 OFFCURVE",
"1278 397 CURVE SMOOTH",
"1278 444 OFFCURVE",
"1273 487 OFFCURVE",
"1263 524 CURVE SMOOTH",
"1242 598 OFFCURVE",
"1189 674 OFFCURVE",
"1098 732 CURVE SMOOTH",
"1007 790 OFFCURVE",
"864 843 OFFCURVE",
"668 887 CURVE SMOOTH",
"607 900 OFFCURVE",
"555 915 OFFCURVE",
"512 932 CURVE SMOOTH",
"424 965 OFFCURVE",
"379 995 OFFCURVE",
"351 1035 CURVE SMOOTH",
"322 1075 OFFCURVE",
"317 1106 OFFCURVE",
"317 1153 CURVE SMOOTH",
"317 1202 OFFCURVE",
"334 1246 OFFCURVE",
"369 1284 CURVE SMOOTH",
"438 1359 OFFCURVE",
"551 1396 OFFCURVE",
"678 1396 CURVE SMOOTH",
"824 1396 OFFCURVE",
"937 1365 OFFCURVE",
"1016 1303 CURVE",
"943 1303 OFFCURVE",
"879 1254 OFFCURVE",
"879 1147 CURVE SMOOTH",
"879 1062 OFFCURVE",
"958 1006 OFFCURVE",
"1047 1006 CURVE SMOOTH",
"1155 1006 OFFCURVE",
"1217 1089 OFFCURVE",
"1217 1206 CURVE SMOOTH",
"1217 1253 OFFCURVE",
"1204 1295 OFFCURVE",
"1179 1334 CURVE SMOOTH",
"1127 1411 OFFCURVE",
"1045 1457 OFFCURVE",
"942 1490 CURVE SMOOTH",
"839 1523 OFFCURVE",
"742 1536 OFFCURVE",
"653 1536 CURVE SMOOTH",
"313 1536 OFFCURVE",
"78 1357 OFFCURVE",
"78 1112 CURVE SMOOTH",
"78 1035 OFFCURVE",
"94 969 OFFCURVE",
"125 915 CURVE SMOOTH",
"187 806 OFFCURVE",
"341 717 OFFCURVE",
"614 649 CURVE SMOOTH",
"675 634 OFFCURVE",
"725 620 OFFCURVE",
"765 608 CURVE SMOOTH",
"844 584 OFFCURVE",
"921 550 OFFCURVE",
"960 514 CURVE SMOOTH",
"999 477 OFFCURVE",
"1022 427 OFFCURVE",
"1022 362 CURVE SMOOTH",
"1022 307 OFFCURVE",
"1004 260 OFFCURVE",
"968 221 CURVE SMOOTH",
"896 144 OFFCURVE",
"783 113 OFFCURVE",
"643 113 CURVE SMOOTH",
"458 113 OFFCURVE",
"350 150 OFFCURVE",
"258 215 CURVE",
"345 226 OFFCURVE",
"399 272 OFFCURVE",
"399 360 CURVE SMOOTH",
"399 445 OFFCURVE",
"329 526 OFFCURVE",
"240 526 CURVE SMOOTH",
"144 526 OFFCURVE",
"59 447 OFFCURVE",
"59 336 CURVE SMOOTH",
"59 216 OFFCURVE",
"135 117 OFFCURVE",
"254 60 CURVE SMOOTH",
"373 3 OFFCURVE",
"519 -27 OFFCURVE",
"676 -27 CURVE SMOOTH"
);
}
);
width = 1337;
}
);
note = Scaron;
unicode = 0160;
},
{
glyphname = Scedilla;
lastChange = "2016-09-01 13:28:17 +0000";
layers = (
{
layerId = "B47A5128-4537-4D9D-B9B8-D866CD9145B5";
paths = (
{
closed = 1;
nodes = (
"704 -12 LINE SMOOTH",
"589 -12 OFFCURVE",
"495 -103 OFFCURVE",
"495 -180 CURVE SMOOTH",
"495 -197 OFFCURVE",
"511 -220 OFFCURVE",
"543 -251 CURVE SMOOTH",
"574 -282 OFFCURVE",
"590 -305 OFFCURVE",
"590 -319 CURVE SMOOTH",
"590 -332 OFFCURVE",
"575 -345 OFFCURVE",
"546 -357 CURVE SMOOTH",
"517 -369 OFFCURVE",
"483 -378 OFFCURVE",
"444 -385 CURVE",
"473 -456 LINE",
"501 -451 LINE SMOOTH",
"538 -444 OFFCURVE",
"595 -427 OFFCURVE",
"648 -403 CURVE SMOOTH",
"700 -379 OFFCURVE",
"743 -336 OFFCURVE",
"743 -288 CURVE SMOOTH",
"743 -12 LINE"
);
},
{
closed = 1;
nodes = (
"1063 -27 OFFCURVE",
"1278 133 OFFCURVE",
"1278 397 CURVE SMOOTH",
"1278 444 OFFCURVE",
"1273 487 OFFCURVE",
"1263 524 CURVE SMOOTH",
"1242 598 OFFCURVE",
"1189 674 OFFCURVE",
"1098 732 CURVE SMOOTH",
"1007 790 OFFCURVE",
"864 843 OFFCURVE",
"668 887 CURVE SMOOTH",
"607 900 OFFCURVE",
"555 915 OFFCURVE",
"512 932 CURVE SMOOTH",
"424 965 OFFCURVE",
"379 995 OFFCURVE",
"351 1035 CURVE SMOOTH",
"322 1075 OFFCURVE",
"317 1106 OFFCURVE",
"317 1153 CURVE SMOOTH",
"317 1202 OFFCURVE",
"334 1246 OFFCURVE",
"369 1284 CURVE SMOOTH",
"438 1359 OFFCURVE",
"551 1396 OFFCURVE",
"678 1396 CURVE SMOOTH",
"824 1396 OFFCURVE",
"937 1365 OFFCURVE",
"1016 1303 CURVE",
"943 1303 OFFCURVE",
"879 1254 OFFCURVE",
"879 1147 CURVE SMOOTH",
"879 1062 OFFCURVE",
"958 1006 OFFCURVE",
"1047 1006 CURVE SMOOTH",
"1155 1006 OFFCURVE",
"1217 1089 OFFCURVE",
"1217 1206 CURVE SMOOTH",
"1217 1253 OFFCURVE",
"1204 1295 OFFCURVE",
"1179 1334 CURVE SMOOTH",
"1127 1411 OFFCURVE",
"1045 1457 OFFCURVE",
"942 1490 CURVE SMOOTH",
"839 1523 OFFCURVE",
"742 1536 OFFCURVE",
"653 1536 CURVE SMOOTH",
"313 1536 OFFCURVE",
"78 1357 OFFCURVE",
"78 1112 CURVE SMOOTH",
"78 1035 OFFCURVE",
"94 969 OFFCURVE",
"125 915 CURVE SMOOTH",
"187 806 OFFCURVE",
"341 717 OFFCURVE",
"614 649 CURVE SMOOTH",
"675 634 OFFCURVE",
"725 620 OFFCURVE",
"765 608 CURVE SMOOTH",
"844 584 OFFCURVE",
"921 550 OFFCURVE",
"960 514 CURVE SMOOTH",
"999 477 OFFCURVE",
"1022 427 OFFCURVE",
"1022 362 CURVE SMOOTH",
"1022 307 OFFCURVE",
"1004 260 OFFCURVE",
"968 221 CURVE SMOOTH",
"896 144 OFFCURVE",
"783 113 OFFCURVE",
"643 113 CURVE SMOOTH",
"458 113 OFFCURVE",
"350 150 OFFCURVE",
"258 215 CURVE",
"345 226 OFFCURVE",
"399 272 OFFCURVE",
"399 360 CURVE SMOOTH",
"399 445 OFFCURVE",
"329 526 OFFCURVE",
"240 526 CURVE SMOOTH",
"144 526 OFFCURVE",
"59 447 OFFCURVE",
"59 336 CURVE SMOOTH",
"59 216 OFFCURVE",
"135 117 OFFCURVE",
"254 60 CURVE SMOOTH",
"373 3 OFFCURVE",
"519 -27 OFFCURVE",
"676 -27 CURVE SMOOTH"
);
}
);
width = 1337;
}
);
note = Scedilla;
unicode = 015E;
},
{
glyphname = Scommaaccent;
lastChange = "2016-09-01 13:28:17 +0000";
layers = (
{
layerId = "B47A5128-4537-4D9D-B9B8-D866CD9145B5";
paths = (
{
closed = 1;
nodes = (
"586 -198 LINE SMOOTH",
"587 -245 OFFCURVE",
"588 -304 OFFCURVE",
"588 -377 CURVE SMOOTH",
"588 -450 OFFCURVE",
"587 -512 OFFCURVE",
"584 -564 CURVE",
"633 -570 LINE",
"665 -484 LINE SMOOTH",
"708 -369 OFFCURVE",
"758 -193 OFFCURVE",
"754 -129 CURVE",
"584 -129 LINE"
);
},
{
closed = 1;
nodes = (
"1063 -27 OFFCURVE",
"1278 133 OFFCURVE",
"1278 397 CURVE SMOOTH",
"1278 444 OFFCURVE",
"1273 487 OFFCURVE",
"1263 524 CURVE SMOOTH",
"1242 598 OFFCURVE",
"1189 674 OFFCURVE",
"1098 732 CURVE SMOOTH",
"1007 790 OFFCURVE",
"864 843 OFFCURVE",
"668 887 CURVE SMOOTH",
"607 900 OFFCURVE",
"555 915 OFFCURVE",
"512 932 CURVE SMOOTH",
"424 965 OFFCURVE",
"379 995 OFFCURVE",
"351 1035 CURVE SMOOTH",
"322 1075 OFFCURVE",
"317 1106 OFFCURVE",
"317 1153 CURVE SMOOTH",
"317 1202 OFFCURVE",
"334 1246 OFFCURVE",
"369 1284 CURVE SMOOTH",
"438 1359 OFFCURVE",
"551 1396 OFFCURVE",
"678 1396 CURVE SMOOTH",
"824 1396 OFFCURVE",
"937 1365 OFFCURVE",
"1016 1303 CURVE",
"943 1303 OFFCURVE",
"879 1254 OFFCURVE",
"879 1147 CURVE SMOOTH",
"879 1062 OFFCURVE",
"958 1006 OFFCURVE",
"1047 1006 CURVE SMOOTH",
"1155 1006 OFFCURVE",
"1217 1089 OFFCURVE",
"1217 1206 CURVE SMOOTH",
"1217 1253 OFFCURVE",
"1204 1295 OFFCURVE",
"1179 1334 CURVE SMOOTH",
"1127 1411 OFFCURVE",
"1045 1457 OFFCURVE",
"942 1490 CURVE SMOOTH",
"839 1523 OFFCURVE",
"742 1536 OFFCURVE",
"653 1536 CURVE SMOOTH",
"313 1536 OFFCURVE",
"78 1357 OFFCURVE",
"78 1112 CURVE SMOOTH",
"78 1035 OFFCURVE",
"94 969 OFFCURVE",
"125 915 CURVE SMOOTH",
"187 806 OFFCURVE",
"341 717 OFFCURVE",
"614 649 CURVE SMOOTH",
"675 634 OFFCURVE",
"725 620 OFFCURVE",
"765 608 CURVE SMOOTH",
"844 584 OFFCURVE",
"921 550 OFFCURVE",
"960 514 CURVE SMOOTH",
"999 477 OFFCURVE",
"1022 427 OFFCURVE",
"1022 362 CURVE SMOOTH",
"1022 307 OFFCURVE",
"1004 260 OFFCURVE",
"968 221 CURVE SMOOTH",
"896 144 OFFCURVE",
"783 113 OFFCURVE",
"643 113 CURVE SMOOTH",
"458 113 OFFCURVE",
"350 150 OFFCURVE",
"258 215 CURVE",
"345 226 OFFCURVE",
"399 272 OFFCURVE",
"399 360 CURVE SMOOTH",
"399 445 OFFCURVE",
"329 526 OFFCURVE",
"240 526 CURVE SMOOTH",
"144 526 OFFCURVE",
"59 447 OFFCURVE",
"59 336 CURVE SMOOTH",
"59 216 OFFCURVE",
"135 117 OFFCURVE",
"254 60 CURVE SMOOTH",
"373 3 OFFCURVE",
"519 -27 OFFCURVE",
"676 -27 CURVE SMOOTH"
);
}
);
width = 1337;
}
);
note = Scommaaccent;
unicode = 0218;
},
{
glyphname = T;
lastChange = "2016-09-01 13:28:17 +0000";
layers = (
{
layerId = "B47A5128-4537-4D9D-B9B8-D866CD9145B5";
paths = (
{
closed = 1;
nodes = (
"840 1362 LINE",
"1214 1362 LINE",
"1214 897 LINE",
"1401 897 LINE",
"1401 1505 LINE",
"35 1505 LINE",
"35 897 LINE",
"221 897 LINE",
"221 1362 LINE",
"604 1362 LINE",
"604 143 LINE",
"371 143 LINE",
"371 0 LINE",
"1079 0 LINE",
"1079 143 LINE",
"840 143 LINE"
);
}
);
width = 1435;
}
);
leftKerningGroup = T;
note = T;
rightKerningGroup = T;
unicode = 0054;
},
{
glyphname = Tcaron;
lastChange = "2016-09-01 13:28:17 +0000";
layers = (
{
layerId = "B47A5128-4537-4D9D-B9B8-D866CD9145B5";
paths = (
{
closed = 1;
nodes = (
"667 1859 OFFCURVE",
"591 1950 OFFCURVE",
"490 2085 CURVE",
"391 1995 LINE",
"719 1638 LINE",
"1045 1988 LINE",
"946 2081 LINE",
"907 2029 LINE SMOOTH",
"854 1961 OFFCURVE",
"766 1853 OFFCURVE",
"719 1812 CURVE"
);
},
{
closed = 1;
nodes = (
"840 1362 LINE",
"1214 1362 LINE",
"1214 897 LINE",
"1401 897 LINE",
"1401 1505 LINE",
"35 1505 LINE",
"35 897 LINE",
"221 897 LINE",
"221 1362 LINE",
"604 1362 LINE",
"604 143 LINE",
"371 143 LINE",
"371 0 LINE",
"1079 0 LINE",
"1079 143 LINE",
"840 143 LINE"
);
}
);
width = 1435;
}
);
leftKerningGroup = T;
note = Tcaron;
rightKerningGroup = T;
unicode = 0164;
},
{
glyphname = U;
lastChange = "2016-09-01 13:28:17 +0000";
layers = (
{
layerId = "B47A5128-4537-4D9D-B9B8-D866CD9145B5";
paths = (
{
closed = 1;
nodes = (
"888 -27 OFFCURVE",
"966 -17 OFFCURVE",
"1033 2 CURVE SMOOTH",
"1167 41 OFFCURVE",
"1249 105 OFFCURVE",
"1302 205 CURVE SMOOTH",
"1355 304 OFFCURVE",
"1374 410 OFFCURVE",
"1374 547 CURVE SMOOTH",
"1374 1362 LINE",
"1583 1362 LINE",
"1583 1505 LINE",
"944 1505 LINE",
"944 1362 LINE",
"1171 1362 LINE",
"1171 508 LINE SMOOTH",
"1171 245 OFFCURVE",
"1049 113 OFFCURVE",
"821 113 CURVE SMOOTH",
"588 113 OFFCURVE",
"471 243 OFFCURVE",
"471 502 CURVE SMOOTH",
"471 1362 LINE",
"692 1362 LINE",
"692 1505 LINE",
"20 1505 LINE",
"20 1362 LINE",
"236 1362 LINE",
"236 516 LINE SMOOTH",
"236 356 OFFCURVE",
"277 228 OFFCURVE",
"364 129 CURVE SMOOTH",
"451 29 OFFCURVE",
"600 -27 OFFCURVE",
"799 -27 CURVE SMOOTH"
);
}
);
width = 1603;
}
);
leftKerningGroup = U;
note = U;
rightKerningGroup = U;
unicode = 0055;
},
{
glyphname = Uacute;
lastChange = "2016-09-01 13:28:17 +0000";
layers = (
{
layerId = "B47A5128-4537-4D9D-B9B8-D866CD9145B5";
paths = (
{
closed = 1;
nodes = (
"888 -27 OFFCURVE",
"966 -17 OFFCURVE",
"1033 2 CURVE SMOOTH",
"1167 41 OFFCURVE",
"1249 105 OFFCURVE",
"1302 205 CURVE SMOOTH",
"1355 304 OFFCURVE",
"1374 410 OFFCURVE",
"1374 547 CURVE SMOOTH",
"1374 1362 LINE",
"1583 1362 LINE",
"1583 1505 LINE",
"944 1505 LINE",
"944 1362 LINE",
"1171 1362 LINE",
"1171 508 LINE SMOOTH",
"1171 245 OFFCURVE",
"1049 113 OFFCURVE",
"821 113 CURVE SMOOTH",
"588 113 OFFCURVE",
"471 243 OFFCURVE",
"471 502 CURVE SMOOTH",
"471 1362 LINE",
"692 1362 LINE",
"692 1505 LINE",
"20 1505 LINE",
"20 1362 LINE",
"236 1362 LINE",
"236 516 LINE SMOOTH",
"236 356 OFFCURVE",
"277 228 OFFCURVE",
"364 129 CURVE SMOOTH",
"451 29 OFFCURVE",
"600 -27 OFFCURVE",
"799 -27 CURVE SMOOTH"
);
},
{
closed = 1;
nodes = (
"910 1984 LINE SMOOTH",
"805 1909 OFFCURVE",
"621 1769 OFFCURVE",
"513 1677 CURVE",
"542 1638 LINE",
"656 1682 LINE SMOOTH",
"809 1739 OFFCURVE",
"1030 1842 OFFCURVE",
"1089 1902 CURVE",
"988 2041 LINE"
);
}
);
width = 1603;
}
);
leftKerningGroup = U;
note = Uacute;
rightKerningGroup = U;
unicode = 00DA;
},
{
glyphname = Ubreve;
lastChange = "2016-09-01 13:28:17 +0000";
layers = (
{
layerId = "B47A5128-4537-4D9D-B9B8-D866CD9145B5";
paths = (
{
closed = 1;
nodes = (
"888 -27 OFFCURVE",
"966 -17 OFFCURVE",
"1033 2 CURVE SMOOTH",
"1167 41 OFFCURVE",
"1249 105 OFFCURVE",
"1302 205 CURVE SMOOTH",
"1355 304 OFFCURVE",
"1374 410 OFFCURVE",
"1374 547 CURVE SMOOTH",
"1374 1362 LINE",
"1583 1362 LINE",
"1583 1505 LINE",
"944 1505 LINE",
"944 1362 LINE",
"1171 1362 LINE",
"1171 508 LINE SMOOTH",
"1171 245 OFFCURVE",
"1049 113 OFFCURVE",
"821 113 CURVE SMOOTH",
"588 113 OFFCURVE",
"471 243 OFFCURVE",
"471 502 CURVE SMOOTH",
"471 1362 LINE",
"692 1362 LINE",
"692 1505 LINE",
"20 1505 LINE",
"20 1362 LINE",
"236 1362 LINE",
"236 516 LINE SMOOTH",
"236 356 OFFCURVE",
"277 228 OFFCURVE",
"364 129 CURVE SMOOTH",
"451 29 OFFCURVE",
"600 -27 OFFCURVE",
"799 -27 CURVE SMOOTH"
);
},
{
closed = 1;
nodes = (
"909 1807 OFFCURVE",
"857 1757 OFFCURVE",
"801 1757 CURVE SMOOTH",
"742 1757 OFFCURVE",
"691 1808 OFFCURVE",
"690 1884 CURVE",
"561 1884 LINE",
"564 1831 OFFCURVE",
"584 1774 OFFCURVE",
"622 1723 CURVE SMOOTH",
"660 1672 OFFCURVE",
"726 1638 OFFCURVE",
"803 1638 CURVE SMOOTH",
"880 1638 OFFCURVE",
"946 1674 OFFCURVE",
"983 1724 CURVE SMOOTH",
"1019 1774 OFFCURVE",
"1039 1829 OFFCURVE",
"1042 1880 CURVE",
"913 1880 LINE"
);
}
);
width = 1603;
}
);
leftKerningGroup = U;
note = Ubreve;
rightKerningGroup = U;
unicode = 016C;
},
{
glyphname = Ucircumflex;
lastChange = "2016-09-01 13:28:17 +0000";
layers = (
{
layerId = "B47A5128-4537-4D9D-B9B8-D866CD9145B5";
paths = (
{
closed = 1;
nodes = (
"852 1864 OFFCURVE",
"928 1773 OFFCURVE",
"1029 1638 CURVE",
"1128 1728 LINE",
"800 2085 LINE",
"474 1734 LINE",
"573 1642 LINE",
"612 1693 LINE SMOOTH",
"665 1762 OFFCURVE",
"753 1870 OFFCURVE",
"800 1911 CURVE"
);
},
{
closed = 1;
nodes = (
"888 -27 OFFCURVE",
"966 -17 OFFCURVE",
"1033 2 CURVE SMOOTH",
"1167 41 OFFCURVE",
"1249 105 OFFCURVE",
"1302 205 CURVE SMOOTH",
"1355 304 OFFCURVE",
"1374 410 OFFCURVE",
"1374 547 CURVE SMOOTH",
"1374 1362 LINE",
"1583 1362 LINE",
"1583 1505 LINE",
"944 1505 LINE",
"944 1362 LINE",
"1171 1362 LINE",
"1171 508 LINE SMOOTH",
"1171 245 OFFCURVE",
"1049 113 OFFCURVE",
"821 113 CURVE SMOOTH",
"588 113 OFFCURVE",
"471 243 OFFCURVE",
"471 502 CURVE SMOOTH",
"471 1362 LINE",
"692 1362 LINE",
"692 1505 LINE",
"20 1505 LINE",
"20 1362 LINE",
"236 1362 LINE",
"236 516 LINE SMOOTH",
"236 356 OFFCURVE",
"277 228 OFFCURVE",
"364 129 CURVE SMOOTH",
"451 29 OFFCURVE",
"600 -27 OFFCURVE",
"799 -27 CURVE SMOOTH"
);
}
);
width = 1603;
}
);
leftKerningGroup = U;
note = Ucircumflex;
rightKerningGroup = U;
unicode = 00DB;
},
{
glyphname = Udieresis;
lastChange = "2016-09-01 13:28:17 +0000";
layers = (
{
layerId = "B47A5128-4537-4D9D-B9B8-D866CD9145B5";
paths = (
{
closed = 1;
nodes = (
"426 1700 OFFCURVE",
"487 1638 OFFCURVE",
"563 1638 CURVE SMOOTH",
"636 1638 OFFCURVE",
"700 1702 OFFCURVE",
"700 1775 CURVE SMOOTH",
"700 1851 OFFCURVE",
"638 1914 OFFCURVE",
"563 1914 CURVE SMOOTH",
"487 1914 OFFCURVE",
"426 1851 OFFCURVE",
"426 1775 CURVE SMOOTH"
);
},
{
closed = 1;
nodes = (
"901 1700 OFFCURVE",
"962 1638 OFFCURVE",
"1038 1638 CURVE SMOOTH",
"1113 1638 OFFCURVE",
"1178 1702 OFFCURVE",
"1178 1775 CURVE SMOOTH",
"1178 1851 OFFCURVE",
"1113 1914 OFFCURVE",
"1038 1914 CURVE SMOOTH",
"962 1914 OFFCURVE",
"901 1851 OFFCURVE",
"901 1775 CURVE SMOOTH"
);
},
{
closed = 1;
nodes = (
"888 -27 OFFCURVE",
"966 -17 OFFCURVE",
"1033 2 CURVE SMOOTH",
"1167 41 OFFCURVE",
"1249 105 OFFCURVE",
"1302 205 CURVE SMOOTH",
"1355 304 OFFCURVE",
"1374 410 OFFCURVE",
"1374 547 CURVE SMOOTH",
"1374 1362 LINE",
"1583 1362 LINE",
"1583 1505 LINE",
"944 1505 LINE",
"944 1362 LINE",
"1171 1362 LINE",
"1171 508 LINE SMOOTH",
"1171 245 OFFCURVE",
"1049 113 OFFCURVE",
"821 113 CURVE SMOOTH",
"588 113 OFFCURVE",
"471 243 OFFCURVE",
"471 502 CURVE SMOOTH",
"471 1362 LINE",
"692 1362 LINE",
"692 1505 LINE",
"20 1505 LINE",
"20 1362 LINE",
"236 1362 LINE",
"236 516 LINE SMOOTH",
"236 356 OFFCURVE",
"277 228 OFFCURVE",
"364 129 CURVE SMOOTH",
"451 29 OFFCURVE",
"600 -27 OFFCURVE",
"799 -27 CURVE SMOOTH"
);
}
);
width = 1603;
}
);
leftKerningGroup = U;
note = Udieresis;
rightKerningGroup = U;
unicode = 00DC;
},
{
glyphname = Ugrave;
lastChange = "2016-09-01 13:28:17 +0000";
layers = (
{
layerId = "B47A5128-4537-4D9D-B9B8-D866CD9145B5";
paths = (
{
closed = 1;
nodes = (
"888 -27 OFFCURVE",
"966 -17 OFFCURVE",
"1033 2 CURVE SMOOTH",
"1167 41 OFFCURVE",
"1249 105 OFFCURVE",
"1302 205 CURVE SMOOTH",
"1355 304 OFFCURVE",
"1374 410 OFFCURVE",
"1374 547 CURVE SMOOTH",
"1374 1362 LINE",
"1583 1362 LINE",
"1583 1505 LINE",
"944 1505 LINE",
"944 1362 LINE",
"1171 1362 LINE",
"1171 508 LINE SMOOTH",
"1171 245 OFFCURVE",
"1049 113 OFFCURVE",
"821 113 CURVE SMOOTH",
"588 113 OFFCURVE",
"471 243 OFFCURVE",
"471 502 CURVE SMOOTH",
"471 1362 LINE",
"692 1362 LINE",
"692 1505 LINE",
"20 1505 LINE",
"20 1362 LINE",
"236 1362 LINE",
"236 516 LINE SMOOTH",
"236 356 OFFCURVE",
"277 228 OFFCURVE",
"364 129 CURVE SMOOTH",
"451 29 OFFCURVE",
"600 -27 OFFCURVE",
"799 -27 CURVE SMOOTH"
);
},
{
closed = 1;
nodes = (
"550 1863 OFFCURVE",
"656 1806 OFFCURVE",
"747 1766 CURVE SMOOTH",
"838 1725 OFFCURVE",
"970 1672 OFFCURVE",
"1011 1657 CURVE SMOOTH",
"1032 1649 OFFCURVE",
"1048 1643 OFFCURVE",
"1060 1638 CURVE",
"1089 1677 LINE",
"968 1781 OFFCURVE",
"809 1902 OFFCURVE",
"614 2041 CURVE",
"513 1902 LINE"
);
}
);
width = 1603;
}
);
leftKerningGroup = U;
note = Ugrave;
rightKerningGroup = U;
unicode = 00D9;
},
{
glyphname = Uhungarumlaut;
lastChange = "2016-09-01 13:28:17 +0000";
layers = (
{
layerId = "B47A5128-4537-4D9D-B9B8-D866CD9145B5";
paths = (
{
closed = 1;
nodes = (
"944 2016 LINE SMOOTH",
"853 1927 OFFCURVE",
"686 1769 OFFCURVE",
"578 1677 CURVE",
"607 1638 LINE",
"711 1692 LINE SMOOTH",
"851 1763 OFFCURVE",
"1054 1883 OFFCURVE",
"1113 1943 CURVE",
"1012 2082 LINE"
);
},
{
closed = 1;
nodes = (
"1333 2016 LINE SMOOTH",
"1242 1927 OFFCURVE",
"1075 1769 OFFCURVE",
"967 1677 CURVE",
"996 1638 LINE",
"1101 1692 LINE SMOOTH",
"1240 1763 OFFCURVE",
"1443 1883 OFFCURVE",
"1502 1943 CURVE",
"1402 2082 LINE"
);
},
{
closed = 1;
nodes = (
"888 -27 OFFCURVE",
"966 -17 OFFCURVE",
"1033 2 CURVE SMOOTH",
"1167 41 OFFCURVE",
"1249 105 OFFCURVE",
"1302 205 CURVE SMOOTH",
"1355 304 OFFCURVE",
"1374 410 OFFCURVE",
"1374 547 CURVE SMOOTH",
"1374 1362 LINE",
"1583 1362 LINE",
"1583 1505 LINE",
"944 1505 LINE",
"944 1362 LINE",
"1171 1362 LINE",
"1171 508 LINE SMOOTH",
"1171 245 OFFCURVE",
"1049 113 OFFCURVE",
"821 113 CURVE SMOOTH",
"588 113 OFFCURVE",
"471 243 OFFCURVE",
"471 502 CURVE SMOOTH",
"471 1362 LINE",
"692 1362 LINE",
"692 1505 LINE",
"20 1505 LINE",
"20 1362 LINE",
"236 1362 LINE",
"236 516 LINE SMOOTH",
"236 356 OFFCURVE",
"277 228 OFFCURVE",
"364 129 CURVE SMOOTH",
"451 29 OFFCURVE",
"600 -27 OFFCURVE",
"799 -27 CURVE SMOOTH"
);
}
);
width = 1603;
}
);
leftKerningGroup = U;
note = Uhungarumlaut;
rightKerningGroup = U;
unicode = 0170;
},
{
glyphname = Umacron;
lastChange = "2016-09-01 13:28:17 +0000";
layers = (
{
layerId = "B47A5128-4537-4D9D-B9B8-D866CD9145B5";
paths = (
{
closed = 1;
nodes = (
"888 -27 OFFCURVE",
"966 -17 OFFCURVE",
"1033 2 CURVE SMOOTH",
"1167 41 OFFCURVE",
"1249 105 OFFCURVE",
"1302 205 CURVE SMOOTH",
"1355 304 OFFCURVE",
"1374 410 OFFCURVE",
"1374 547 CURVE SMOOTH",
"1374 1362 LINE",
"1583 1362 LINE",
"1583 1505 LINE",
"944 1505 LINE",
"944 1362 LINE",
"1171 1362 LINE",
"1171 508 LINE SMOOTH",
"1171 245 OFFCURVE",
"1049 113 OFFCURVE",
"821 113 CURVE SMOOTH",
"588 113 OFFCURVE",
"471 243 OFFCURVE",
"471 502 CURVE SMOOTH",
"471 1362 LINE",
"692 1362 LINE",
"692 1505 LINE",
"20 1505 LINE",
"20 1362 LINE",
"236 1362 LINE",
"236 516 LINE SMOOTH",
"236 356 OFFCURVE",
"277 228 OFFCURVE",
"364 129 CURVE SMOOTH",
"451 29 OFFCURVE",
"600 -27 OFFCURVE",
"799 -27 CURVE SMOOTH"
);
},
{
closed = 1;
nodes = (
"539 1776 LINE",
"539 1638 LINE",
"1121 1638 LINE",
"1121 1776 LINE"
);
}
);
width = 1603;
}
);
leftKerningGroup = U;
note = Umacron;
rightKerningGroup = U;
unicode = 016A;
},
{
glyphname = Uogonek;
lastChange = "2016-09-01 13:28:17 +0000";
layers = (
{
layerId = "B47A5128-4537-4D9D-B9B8-D866CD9145B5";
paths = (
{
closed = 1;
nodes = (
"588 -305 OFFCURVE",
"706 -405 OFFCURVE",
"877 -405 CURVE",
"904 -266 LINE",
"785 -250 OFFCURVE",
"748 -204 OFFCURVE",
"748 -143 CURVE SMOOTH",
"748 -88 OFFCURVE",
"801 -39 OFFCURVE",
"906 -20 CURVE",
"906 11 LINE",
"833 11 OFFCURVE",
"758 -6 OFFCURVE",
"695 -37 CURVE SMOOTH",
"631 -69 OFFCURVE",
"588 -126 OFFCURVE",
"588 -194 CURVE SMOOTH"
);
},
{
closed = 1;
nodes = (
"888 -27 OFFCURVE",
"966 -17 OFFCURVE",
"1033 2 CURVE SMOOTH",
"1167 41 OFFCURVE",
"1249 105 OFFCURVE",
"1302 205 CURVE SMOOTH",
"1355 304 OFFCURVE",
"1374 410 OFFCURVE",
"1374 547 CURVE SMOOTH",
"1374 1362 LINE",
"1583 1362 LINE",
"1583 1505 LINE",
"944 1505 LINE",
"944 1362 LINE",
"1171 1362 LINE",
"1171 508 LINE SMOOTH",
"1171 245 OFFCURVE",
"1049 113 OFFCURVE",
"821 113 CURVE SMOOTH",
"588 113 OFFCURVE",
"471 243 OFFCURVE",
"471 502 CURVE SMOOTH",
"471 1362 LINE",
"692 1362 LINE",
"692 1505 LINE",
"20 1505 LINE",
"20 1362 LINE",
"236 1362 LINE",
"236 516 LINE SMOOTH",
"236 356 OFFCURVE",
"277 228 OFFCURVE",
"364 129 CURVE SMOOTH",
"451 29 OFFCURVE",
"600 -27 OFFCURVE",
"799 -27 CURVE SMOOTH"
);
}
);
width = 1603;
}
);
leftKerningGroup = U;
note = Uogonek;
rightKerningGroup = U;
unicode = 0172;
},
{
glyphname = Uring;
lastChange = "2016-09-01 13:28:17 +0000";
layers = (
{
layerId = "B47A5128-4537-4D9D-B9B8-D866CD9145B5";
paths = (
{
closed = 1;
nodes = (
"888 -27 OFFCURVE",
"966 -17 OFFCURVE",
"1033 2 CURVE SMOOTH",
"1167 41 OFFCURVE",
"1249 105 OFFCURVE",
"1302 205 CURVE SMOOTH",
"1355 304 OFFCURVE",
"1374 410 OFFCURVE",
"1374 547 CURVE SMOOTH",
"1374 1362 LINE",
"1583 1362 LINE",
"1583 1505 LINE",
"944 1505 LINE",
"944 1362 LINE",
"1171 1362 LINE",
"1171 508 LINE SMOOTH",
"1171 245 OFFCURVE",
"1049 113 OFFCURVE",
"821 113 CURVE SMOOTH",
"588 113 OFFCURVE",
"471 243 OFFCURVE",
"471 502 CURVE SMOOTH",
"471 1362 LINE",
"692 1362 LINE",
"692 1505 LINE",
"20 1505 LINE",
"20 1362 LINE",
"236 1362 LINE",
"236 516 LINE SMOOTH",
"236 356 OFFCURVE",
"277 228 OFFCURVE",
"364 129 CURVE SMOOTH",
"451 29 OFFCURVE",
"600 -27 OFFCURVE",
"799 -27 CURVE SMOOTH"
);
},
{
closed = 1;
nodes = (
"903 1891 OFFCURVE",
"914 1860 OFFCURVE",
"914 1821 CURVE SMOOTH",
"914 1744 OFFCURVE",
"861 1696 OFFCURVE",
"801 1696 CURVE SMOOTH",
"741 1696 OFFCURVE",
"690 1742 OFFCURVE",
"690 1821 CURVE SMOOTH",
"690 1900 OFFCURVE",
"743 1948 OFFCURVE",
"803 1948 CURVE SMOOTH",
"833 1948 OFFCURVE",
"859 1937 OFFCURVE",
"881 1914 CURVE SMOOTH"
);
},
{
closed = 1;
nodes = (
"602 1714 OFFCURVE",
"680 1638 OFFCURVE",
"803 1638 CURVE SMOOTH",
"924 1638 OFFCURVE",
"1002 1716 OFFCURVE",
"1002 1821 CURVE SMOOTH",
"1002 1926 OFFCURVE",
"924 2003 OFFCURVE",
"803 2003 CURVE SMOOTH",
"679 2003 OFFCURVE",
"602 1926 OFFCURVE",
"602 1821 CURVE SMOOTH"
);
}
);
width = 1603;
}
);
leftKerningGroup = U;
note = Uring;
rightKerningGroup = U;
unicode = 016E;
},
{
glyphname = Utilde;
lastChange = "2016-09-01 13:28:17 +0000";
layers = (
{
layerId = "B47A5128-4537-4D9D-B9B8-D866CD9145B5";
paths = (
{
closed = 1;
nodes = (
"888 -27 OFFCURVE",
"966 -17 OFFCURVE",
"1033 2 CURVE SMOOTH",
"1167 41 OFFCURVE",
"1249 105 OFFCURVE",
"1302 205 CURVE SMOOTH",
"1355 304 OFFCURVE",
"1374 410 OFFCURVE",
"1374 547 CURVE SMOOTH",
"1374 1362 LINE",
"1583 1362 LINE",
"1583 1505 LINE",
"944 1505 LINE",
"944 1362 LINE",
"1171 1362 LINE",
"1171 508 LINE SMOOTH",
"1171 245 OFFCURVE",
"1049 113 OFFCURVE",
"821 113 CURVE SMOOTH",
"588 113 OFFCURVE",
"471 243 OFFCURVE",
"471 502 CURVE SMOOTH",
"471 1362 LINE",
"692 1362 LINE",
"692 1505 LINE",
"20 1505 LINE",
"20 1362 LINE",
"236 1362 LINE",
"236 516 LINE SMOOTH",
"236 356 OFFCURVE",
"277 228 OFFCURVE",
"364 129 CURVE SMOOTH",
"451 29 OFFCURVE",
"600 -27 OFFCURVE",
"799 -27 CURVE SMOOTH"
);
},
{
closed = 1;
nodes = (
"1036 1732 OFFCURVE",
"1057 1708 OFFCURVE",
"1057 1640 CURVE",
"1145 1640 LINE",
"1145 1817 OFFCURVE",
"1100 1883 OFFCURVE",
"977 1883 CURVE SMOOTH",
"939 1883 OFFCURVE",
"879 1867 OFFCURVE",
"798 1836 CURVE SMOOTH",
"717 1805 OFFCURVE",
"662 1789 OFFCURVE",
"635 1789 CURVE SMOOTH",
"568 1789 OFFCURVE",
"547 1813 OFFCURVE",
"547 1881 CURVE",
"459 1881 LINE",
"459 1704 OFFCURVE",
"504 1638 OFFCURVE",
"627 1638 CURVE SMOOTH",
"665 1638 OFFCURVE",
"725 1654 OFFCURVE",
"806 1685 CURVE SMOOTH",
"887 1716 OFFCURVE",
"942 1732 OFFCURVE",
"969 1732 CURVE SMOOTH"
);
}
);
width = 1603;
}
);
leftKerningGroup = U;
note = Utilde;
rightKerningGroup = U;
unicode = 0168;
},
{
glyphname = V;
lastChange = "2016-09-01 13:28:17 +0000";
layers = (
{
layerId = "B47A5128-4537-4D9D-B9B8-D866CD9145B5";
paths = (
{
closed = 1;
nodes = (
"712 5 OFFCURVE",
"750 -35 OFFCURVE",
"821 -35 CURVE SMOOTH",
"893 -35 OFFCURVE",
"922 3 OFFCURVE",
"958 106 CURVE SMOOTH",
"1389 1362 LINE",
"1632 1362 LINE",
"1632 1505 LINE",
"954 1505 LINE",
"954 1362 LINE",
"1219 1362 LINE",
"866 293 LINE",
"502 1362 LINE",
"713 1362 LINE",
"713 1505 LINE",
"-4 1505 LINE",
"-4 1362 LINE",
"225 1362 LINE",
"676 106 LINE SMOOTH"
);
}
);
width = 1640;
}
);
leftKerningGroup = V;
note = V;
rightKerningGroup = V;
unicode = 0056;
},
{
glyphname = W;
lastChange = "2016-09-01 13:28:17 +0000";
layers = (
{
layerId = "B47A5128-4537-4D9D-B9B8-D866CD9145B5";
paths = (
{
closed = 1;
nodes = (
"1621 -35 OFFCURVE",
"1642 -1 OFFCURVE",
"1679 106 CURVE",
"2028 1362 LINE",
"2210 1362 LINE",
"2210 1505 LINE",
"1655 1505 LINE",
"1655 1362 LINE",
"1858 1362 LINE",
"1585 307 LINE",
"1294 1362 LINE",
"1094 1362 LINE",
"805 307 LINE",
"514 1362 LINE",
"725 1362 LINE",
"725 1505 LINE",
"29 1505 LINE",
"29 1362 LINE",
"258 1362 LINE",
"645 106 LINE SMOOTH",
"677 2 OFFCURVE",
"709 -35 OFFCURVE",
"778 -35 CURVE SMOOTH",
"851 -35 OFFCURVE",
"887 6 OFFCURVE",
"915 106 CURVE SMOOTH",
"978 332 LINE SMOOTH",
"1021 483 OFFCURVE",
"1063 635 OFFCURVE",
"1105 786 CURVE SMOOTH",
"1147 937 OFFCURVE",
"1168 1012 OFFCURVE",
"1167 1012 CURVE",
"1432 106 LINE SMOOTH",
"1464 -3 OFFCURVE",
"1482 -35 OFFCURVE",
"1550 -35 CURVE SMOOTH"
);
}
);
width = 2238;
}
);
leftKerningGroup = W;
note = W;
rightKerningGroup = W;
unicode = 0057;
},
{
glyphname = X;
lastChange = "2016-09-01 13:28:17 +0000";
layers = (
{
layerId = "B47A5128-4537-4D9D-B9B8-D866CD9145B5";
paths = (
{
closed = 1;
nodes = (
"1440 1362 LINE",
"1669 1362 LINE",
"1669 1505 LINE",
"961 1505 LINE",
"961 1362 LINE",
"1208 1362 LINE",
"863 935 LINE",
"541 1362 LINE",
"770 1362 LINE",
"770 1505 LINE",
"23 1505 LINE",
"23 1362 LINE",
"266 1362 LINE",
"721 759 LINE",
"217 143 LINE",
"16 143 LINE",
"16 0 LINE",
"664 0 LINE",
"664 143 LINE",
"453 143 LINE",
"834 609 LINE",
"1190 143 LINE",
"969 143 LINE",
"969 0 LINE",
"1683 0 LINE",
"1683 143 LINE",
"1464 143 LINE",
"975 785 LINE"
);
}
);
width = 1699;
}
);
leftKerningGroup = X;
note = X;
unicode = 0058;
},
{
glyphname = Y;
lastChange = "2016-09-01 13:28:17 +0000";
layers = (
{
layerId = "B47A5128-4537-4D9D-B9B8-D866CD9145B5";
paths = (
{
closed = 1;
nodes = (
"416 143 LINE",
"416 0 LINE",
"1124 0 LINE",
"1124 143 LINE",
"895 143 LINE",
"895 590 LINE",
"1343 1362 LINE",
"1532 1362 LINE",
"1532 1505 LINE",
"926 1505 LINE",
"926 1362 LINE",
"1149 1362 LINE",
"801 741 LINE",
"463 1362 LINE",
"692 1362 LINE",
"692 1505 LINE",
"23 1505 LINE",
"23 1362 LINE",
"227 1362 LINE",
"659 595 LINE",
"659 143 LINE"
);
}
);
width = 1554;
}
);
leftKerningGroup = Y;
note = Y;
rightKerningGroup = Y;
unicode = 0059;
},
{
glyphname = Yacute;
lastChange = "2016-09-01 13:28:17 +0000";
layers = (
{
layerId = "B47A5128-4537-4D9D-B9B8-D866CD9145B5";
paths = (
{
closed = 1;
nodes = (
"416 143 LINE",
"416 0 LINE",
"1124 0 LINE",
"1124 143 LINE",
"895 143 LINE",
"895 590 LINE",
"1343 1362 LINE",
"1532 1362 LINE",
"1532 1505 LINE",
"926 1505 LINE",
"926 1362 LINE",
"1149 1362 LINE",
"801 741 LINE",
"463 1362 LINE",
"692 1362 LINE",
"692 1505 LINE",
"23 1505 LINE",
"23 1362 LINE",
"227 1362 LINE",
"659 595 LINE",
"659 143 LINE"
);
},
{
closed = 1;
nodes = (
"886 1984 LINE SMOOTH",
"781 1909 OFFCURVE",
"597 1769 OFFCURVE",
"489 1677 CURVE",
"518 1638 LINE",
"632 1682 LINE SMOOTH",
"785 1739 OFFCURVE",
"1006 1842 OFFCURVE",
"1065 1902 CURVE",
"964 2041 LINE"
);
}
);
width = 1554;
}
);
leftKerningGroup = Y;
note = Yacute;
rightKerningGroup = Y;
unicode = 00DD;
},
{
glyphname = Ydieresis;
lastChange = "2016-09-01 13:28:17 +0000";
layers = (
{
layerId = "B47A5128-4537-4D9D-B9B8-D866CD9145B5";
paths = (
{
closed = 1;
nodes = (
"402 1700 OFFCURVE",
"463 1638 OFFCURVE",
"539 1638 CURVE SMOOTH",
"612 1638 OFFCURVE",
"676 1702 OFFCURVE",
"676 1775 CURVE SMOOTH",
"676 1851 OFFCURVE",
"614 1914 OFFCURVE",
"539 1914 CURVE SMOOTH",
"463 1914 OFFCURVE",
"402 1851 OFFCURVE",
"402 1775 CURVE SMOOTH"
);
},
{
closed = 1;
nodes = (
"877 1700 OFFCURVE",
"938 1638 OFFCURVE",
"1014 1638 CURVE SMOOTH",
"1089 1638 OFFCURVE",
"1154 1702 OFFCURVE",
"1154 1775 CURVE SMOOTH",
"1154 1851 OFFCURVE",
"1089 1914 OFFCURVE",
"1014 1914 CURVE SMOOTH",
"938 1914 OFFCURVE",
"877 1851 OFFCURVE",
"877 1775 CURVE SMOOTH"
);
},
{
closed = 1;
nodes = (
"416 143 LINE",
"416 0 LINE",
"1124 0 LINE",
"1124 143 LINE",
"895 143 LINE",
"895 590 LINE",
"1343 1362 LINE",
"1532 1362 LINE",
"1532 1505 LINE",
"926 1505 LINE",
"926 1362 LINE",
"1149 1362 LINE",
"801 741 LINE",
"463 1362 LINE",
"692 1362 LINE",
"692 1505 LINE",
"23 1505 LINE",
"23 1362 LINE",
"227 1362 LINE",
"659 595 LINE",
"659 143 LINE"
);
}
);
width = 1554;
}
);
leftKerningGroup = Y;
note = Ydieresis;
rightKerningGroup = Y;
unicode = 0178;
},
{
glyphname = Z;
lastChange = "2016-09-01 13:28:17 +0000";
layers = (
{
layerId = "B47A5128-4537-4D9D-B9B8-D866CD9145B5";
paths = (
{
closed = 1;
nodes = (
"1092 590 LINE",
"1092 143 LINE",
"381 143 LINE",
"1245 1335 LINE",
"1204 1505 LINE",
"129 1505 LINE",
"129 946 LINE",
"315 946 LINE",
"315 1368 LINE",
"983 1368 LINE",
"113 166 LINE",
"111 166 LINE",
"135 0 LINE",
"1278 0 LINE",
"1278 590 LINE"
);
}
);
width = 1359;
}
);
note = Z;
unicode = 005A;
},
{
glyphname = Zacute;
lastChange = "2016-09-01 13:28:17 +0000";
layers = (
{
layerId = "B47A5128-4537-4D9D-B9B8-D866CD9145B5";
paths = (
{
closed = 1;
nodes = (
"1092 590 LINE",
"1092 143 LINE",
"381 143 LINE",
"1245 1335 LINE",
"1204 1505 LINE",
"129 1505 LINE",
"129 946 LINE",
"315 946 LINE",
"315 1368 LINE",
"983 1368 LINE",
"113 166 LINE",
"111 166 LINE",
"135 0 LINE",
"1278 0 LINE",
"1278 590 LINE"
);
},
{
closed = 1;
nodes = (
"776 1984 LINE SMOOTH",
"671 1909 OFFCURVE",
"487 1769 OFFCURVE",
"379 1677 CURVE",
"408 1638 LINE",
"522 1682 LINE SMOOTH",
"675 1739 OFFCURVE",
"896 1842 OFFCURVE",
"955 1902 CURVE",
"854 2041 LINE"
);
}
);
width = 1359;
}
);
note = Zacute;
unicode = 0179;
},
{
glyphname = Zcaron;
lastChange = "2016-09-01 13:28:17 +0000";
layers = (
{
layerId = "B47A5128-4537-4D9D-B9B8-D866CD9145B5";
paths = (
{
closed = 1;
nodes = (
"644 1859 OFFCURVE",
"568 1950 OFFCURVE",
"467 2085 CURVE",
"368 1995 LINE",
"696 1638 LINE",
"1022 1988 LINE",
"923 2081 LINE",
"884 2029 LINE SMOOTH",
"831 1961 OFFCURVE",
"743 1853 OFFCURVE",
"696 1812 CURVE"
);
},
{
closed = 1;
nodes = (
"1092 590 LINE",
"1092 143 LINE",
"381 143 LINE",
"1245 1335 LINE",
"1204 1505 LINE",
"129 1505 LINE",
"129 946 LINE",
"315 946 LINE",
"315 1368 LINE",
"983 1368 LINE",
"113 166 LINE",
"111 166 LINE",
"135 0 LINE",
"1278 0 LINE",
"1278 590 LINE"
);
}
);
width = 1359;
}
);
note = Zcaron;
unicode = 017D;
},
{
glyphname = Zdotaccent;
lastChange = "2016-09-01 13:28:17 +0000";
layers = (
{
layerId = "B47A5128-4537-4D9D-B9B8-D866CD9145B5";
paths = (
{
closed = 1;
nodes = (
"546 1706 OFFCURVE",
"613 1638 OFFCURVE",
"694 1638 CURVE SMOOTH",
"774 1638 OFFCURVE",
"843 1706 OFFCURVE",
"843 1786 CURVE SMOOTH",
"843 1867 OFFCURVE",
"774 1935 OFFCURVE",
"694 1935 CURVE SMOOTH",
"613 1935 OFFCURVE",
"546 1869 OFFCURVE",
"546 1786 CURVE SMOOTH"
);
},
{
closed = 1;
nodes = (
"1092 590 LINE",
"1092 143 LINE",
"381 143 LINE",
"1245 1335 LINE",
"1204 1505 LINE",
"129 1505 LINE",
"129 946 LINE",
"315 946 LINE",
"315 1368 LINE",
"983 1368 LINE",
"113 166 LINE",
"111 166 LINE",
"135 0 LINE",
"1278 0 LINE",
"1278 590 LINE"
);
}
);
width = 1359;
}
);
note = Zdotaccent;
unicode = 017B;
},
{
glyphname = a;
lastChange = "2016-09-01 13:28:17 +0000";
layers = (
{
layerId = "B47A5128-4537-4D9D-B9B8-D866CD9145B5";
paths = (
{
closed = 1;
nodes = (
"291 309 OFFCURVE",
"351 365 OFFCURVE",
"423 397 CURVE SMOOTH",
"494 429 OFFCURVE",
"622 500 OFFCURVE",
"707 584 CURVE",
"707 371 LINE SMOOTH",
"707 334 OFFCURVE",
"692 296 OFFCURVE",
"661 256 CURVE SMOOTH",
"600 176 OFFCURVE",
"496 117 OFFCURVE",
"408 117 CURVE SMOOTH",
"331 117 OFFCURVE",
"291 162 OFFCURVE",
"291 229 CURVE SMOOTH"
);
},
{
closed = 1;
nodes = (
"1167 442 LINE",
"1167 293 LINE SMOOTH",
"1167 174 OFFCURVE",
"1125 115 OFFCURVE",
"1040 115 CURVE SMOOTH",
"1011 115 OFFCURVE",
"988 125 OFFCURVE",
"969 144 CURVE SMOOTH",
"932 183 OFFCURVE",
"922 231 OFFCURVE",
"922 283 CURVE SMOOTH",
"922 743 LINE SMOOTH",
"922 874 OFFCURVE",
"880 971 OFFCURVE",
"808 1025 CURVE SMOOTH",
"735 1079 OFFCURVE",
"646 1102 OFFCURVE",
"537 1102 CURVE SMOOTH",
"401 1102 OFFCURVE",
"282 1058 OFFCURVE",
"216 998 CURVE SMOOTH",
"150 938 OFFCURVE",
"113 872 OFFCURVE",
"113 817 CURVE SMOOTH",
"113 712 OFFCURVE",
"181 655 OFFCURVE",
"260 655 CURVE SMOOTH",
"336 655 OFFCURVE",
"399 713 OFFCURVE",
"399 797 CURVE SMOOTH",
"399 860 OFFCURVE",
"345 913 OFFCURVE",
"260 913 CURVE",
"307 965 OFFCURVE",
"399 997 OFFCURVE",
"494 997 CURVE SMOOTH",
"629 997 OFFCURVE",
"707 924 OFFCURVE",
"707 772 CURVE SMOOTH",
"707 711 OFFCURVE",
"668 660 OFFCURVE",
"609 625 CURVE SMOOTH",
"549 590 OFFCURVE",
"471 554 OFFCURVE",
"393 526 CURVE SMOOTH",
"315 497 OFFCURVE",
"236 455 OFFCURVE",
"177 411 CURVE SMOOTH",
"117 367 OFFCURVE",
"78 299 OFFCURVE",
"78 219 CURVE SMOOTH",
"78 66 OFFCURVE",
"192 -27 OFFCURVE",
"356 -27 CURVE SMOOTH",
"515 -27 OFFCURVE",
"666 78 OFFCURVE",
"723 223 CURVE",
"728 168 OFFCURVE",
"745 122 OFFCURVE",
"773 83 CURVE SMOOTH",
"828 6 OFFCURVE",
"908 -27 OFFCURVE",
"997 -27 CURVE SMOOTH",
"1081 -27 OFFCURVE",
"1141 -9 OFFCURVE",
"1194 39 CURVE SMOOTH",
"1247 87 OFFCURVE",
"1276 180 OFFCURVE",
"1276 313 CURVE SMOOTH",
"1276 442 LINE"
);
}
);
width = 1267;
}
);
leftKerningGroup = a;
note = a;
rightKerningGroup = a;
unicode = 0061;
},
{
glyphname = aacute;
lastChange = "2016-09-01 13:28:17 +0000";
layers = (
{
layerId = "B47A5128-4537-4D9D-B9B8-D866CD9145B5";
paths = (
{
closed = 1;
nodes = (
"291 309 OFFCURVE",
"351 365 OFFCURVE",
"423 397 CURVE SMOOTH",
"494 429 OFFCURVE",
"622 500 OFFCURVE",
"707 584 CURVE",
"707 371 LINE SMOOTH",
"707 334 OFFCURVE",
"692 296 OFFCURVE",
"661 256 CURVE SMOOTH",
"600 176 OFFCURVE",
"496 117 OFFCURVE",
"408 117 CURVE SMOOTH",
"331 117 OFFCURVE",
"291 162 OFFCURVE",
"291 229 CURVE SMOOTH"
);
},
{
closed = 1;
nodes = (
"1167 442 LINE",
"1167 293 LINE SMOOTH",
"1167 174 OFFCURVE",
"1125 115 OFFCURVE",
"1040 115 CURVE SMOOTH",
"1011 115 OFFCURVE",
"988 125 OFFCURVE",
"969 144 CURVE SMOOTH",
"932 183 OFFCURVE",
"922 231 OFFCURVE",
"922 283 CURVE SMOOTH",
"922 743 LINE SMOOTH",
"922 874 OFFCURVE",
"880 971 OFFCURVE",
"808 1025 CURVE SMOOTH",
"735 1079 OFFCURVE",
"646 1102 OFFCURVE",
"537 1102 CURVE SMOOTH",
"401 1102 OFFCURVE",
"282 1058 OFFCURVE",
"216 998 CURVE SMOOTH",
"150 938 OFFCURVE",
"113 872 OFFCURVE",
"113 817 CURVE SMOOTH",
"113 712 OFFCURVE",
"181 655 OFFCURVE",
"260 655 CURVE SMOOTH",
"336 655 OFFCURVE",
"399 713 OFFCURVE",
"399 797 CURVE SMOOTH",
"399 860 OFFCURVE",
"345 913 OFFCURVE",
"260 913 CURVE",
"307 965 OFFCURVE",
"399 997 OFFCURVE",
"494 997 CURVE SMOOTH",
"629 997 OFFCURVE",
"707 924 OFFCURVE",
"707 772 CURVE SMOOTH",
"707 711 OFFCURVE",
"668 660 OFFCURVE",
"609 625 CURVE SMOOTH",
"549 590 OFFCURVE",
"471 554 OFFCURVE",
"393 526 CURVE SMOOTH",
"315 497 OFFCURVE",
"236 455 OFFCURVE",
"177 411 CURVE SMOOTH",
"117 367 OFFCURVE",
"78 299 OFFCURVE",
"78 219 CURVE SMOOTH",
"78 66 OFFCURVE",
"192 -27 OFFCURVE",
"356 -27 CURVE SMOOTH",
"515 -27 OFFCURVE",
"666 78 OFFCURVE",
"723 223 CURVE",
"728 168 OFFCURVE",
"745 122 OFFCURVE",
"773 83 CURVE SMOOTH",
"828 6 OFFCURVE",
"908 -27 OFFCURVE",
"997 -27 CURVE SMOOTH",
"1081 -27 OFFCURVE",
"1141 -9 OFFCURVE",
"1194 39 CURVE SMOOTH",
"1247 87 OFFCURVE",
"1276 180 OFFCURVE",
"1276 313 CURVE SMOOTH",
"1276 442 LINE"
);
},
{
closed = 1;
nodes = (
"646 1550 LINE SMOOTH",
"541 1475 OFFCURVE",
"357 1335 OFFCURVE",
"249 1243 CURVE",
"278 1204 LINE",
"392 1248 LINE SMOOTH",
"545 1305 OFFCURVE",
"766 1408 OFFCURVE",
"825 1468 CURVE",
"724 1607 LINE"
);
}
);
width = 1267;
}
);
leftKerningGroup = a;
note = aacute;
rightKerningGroup = a;
unicode = 00E1;
},
{
glyphname = abreve;
lastChange = "2016-09-01 13:28:17 +0000";
layers = (
{
layerId = "B47A5128-4537-4D9D-B9B8-D866CD9145B5";
paths = (
{
closed = 1;
nodes = (
"644 1373 OFFCURVE",
"592 1323 OFFCURVE",
"536 1323 CURVE SMOOTH",
"477 1323 OFFCURVE",
"426 1374 OFFCURVE",
"425 1450 CURVE",
"296 1450 LINE",
"299 1397 OFFCURVE",
"319 1340 OFFCURVE",
"357 1289 CURVE SMOOTH",
"395 1238 OFFCURVE",
"461 1204 OFFCURVE",
"538 1204 CURVE SMOOTH",
"615 1204 OFFCURVE",
"681 1240 OFFCURVE",
"718 1290 CURVE SMOOTH",
"754 1340 OFFCURVE",
"774 1395 OFFCURVE",
"777 1446 CURVE",
"648 1446 LINE"
);
},
{
closed = 1;
nodes = (
"291 309 OFFCURVE",
"351 365 OFFCURVE",
"423 397 CURVE SMOOTH",
"494 429 OFFCURVE",
"622 500 OFFCURVE",
"707 584 CURVE",
"707 371 LINE SMOOTH",
"707 334 OFFCURVE",
"692 296 OFFCURVE",
"661 256 CURVE SMOOTH",
"600 176 OFFCURVE",
"496 117 OFFCURVE",
"408 117 CURVE SMOOTH",
"331 117 OFFCURVE",
"291 162 OFFCURVE",
"291 229 CURVE SMOOTH"
);
},
{
closed = 1;
nodes = (
"1167 442 LINE",
"1167 293 LINE SMOOTH",
"1167 174 OFFCURVE",
"1125 115 OFFCURVE",
"1040 115 CURVE SMOOTH",
"1011 115 OFFCURVE",
"988 125 OFFCURVE",
"969 144 CURVE SMOOTH",
"932 183 OFFCURVE",
"922 231 OFFCURVE",
"922 283 CURVE SMOOTH",
"922 743 LINE SMOOTH",
"922 874 OFFCURVE",
"880 971 OFFCURVE",
"808 1025 CURVE SMOOTH",
"735 1079 OFFCURVE",
"646 1102 OFFCURVE",
"537 1102 CURVE SMOOTH",
"401 1102 OFFCURVE",
"282 1058 OFFCURVE",
"216 998 CURVE SMOOTH",
"150 938 OFFCURVE",
"113 872 OFFCURVE",
"113 817 CURVE SMOOTH",
"113 712 OFFCURVE",
"181 655 OFFCURVE",
"260 655 CURVE SMOOTH",
"336 655 OFFCURVE",
"399 713 OFFCURVE",
"399 797 CURVE SMOOTH",
"399 860 OFFCURVE",
"345 913 OFFCURVE",
"260 913 CURVE",
"307 965 OFFCURVE",
"399 997 OFFCURVE",
"494 997 CURVE SMOOTH",
"629 997 OFFCURVE",
"707 924 OFFCURVE",
"707 772 CURVE SMOOTH",
"707 711 OFFCURVE",
"668 660 OFFCURVE",
"609 625 CURVE SMOOTH",
"549 590 OFFCURVE",
"471 554 OFFCURVE",
"393 526 CURVE SMOOTH",
"315 497 OFFCURVE",
"236 455 OFFCURVE",
"177 411 CURVE SMOOTH",
"117 367 OFFCURVE",
"78 299 OFFCURVE",
"78 219 CURVE SMOOTH",
"78 66 OFFCURVE",
"192 -27 OFFCURVE",
"356 -27 CURVE SMOOTH",
"515 -27 OFFCURVE",
"666 78 OFFCURVE",
"723 223 CURVE",
"728 168 OFFCURVE",
"745 122 OFFCURVE",
"773 83 CURVE SMOOTH",
"828 6 OFFCURVE",
"908 -27 OFFCURVE",
"997 -27 CURVE SMOOTH",
"1081 -27 OFFCURVE",
"1141 -9 OFFCURVE",
"1194 39 CURVE SMOOTH",
"1247 87 OFFCURVE",
"1276 180 OFFCURVE",
"1276 313 CURVE SMOOTH",
"1276 442 LINE"
);
}
);
width = 1267;
}
);
leftKerningGroup = a;
note = abreve;
rightKerningGroup = a;
unicode = 0103;
},
{
glyphname = acircumflex;
lastChange = "2016-09-01 13:28:17 +0000";
layers = (
{
layerId = "B47A5128-4537-4D9D-B9B8-D866CD9145B5";
paths = (
{
closed = 1;
nodes = (
"291 309 OFFCURVE",
"351 365 OFFCURVE",
"423 397 CURVE SMOOTH",
"494 429 OFFCURVE",
"622 500 OFFCURVE",
"707 584 CURVE",
"707 371 LINE SMOOTH",
"707 334 OFFCURVE",
"692 296 OFFCURVE",
"661 256 CURVE SMOOTH",
"600 176 OFFCURVE",
"496 117 OFFCURVE",
"408 117 CURVE SMOOTH",
"331 117 OFFCURVE",
"291 162 OFFCURVE",
"291 229 CURVE SMOOTH"
);
},
{
closed = 1;
nodes = (
"1167 442 LINE",
"1167 293 LINE SMOOTH",
"1167 174 OFFCURVE",
"1125 115 OFFCURVE",
"1040 115 CURVE SMOOTH",
"1011 115 OFFCURVE",
"988 125 OFFCURVE",
"969 144 CURVE SMOOTH",
"932 183 OFFCURVE",
"922 231 OFFCURVE",
"922 283 CURVE SMOOTH",
"922 743 LINE SMOOTH",
"922 874 OFFCURVE",
"880 971 OFFCURVE",
"808 1025 CURVE SMOOTH",
"735 1079 OFFCURVE",
"646 1102 OFFCURVE",
"537 1102 CURVE SMOOTH",
"401 1102 OFFCURVE",
"282 1058 OFFCURVE",
"216 998 CURVE SMOOTH",
"150 938 OFFCURVE",
"113 872 OFFCURVE",
"113 817 CURVE SMOOTH",
"113 712 OFFCURVE",
"181 655 OFFCURVE",
"260 655 CURVE SMOOTH",
"336 655 OFFCURVE",
"399 713 OFFCURVE",
"399 797 CURVE SMOOTH",
"399 860 OFFCURVE",
"345 913 OFFCURVE",
"260 913 CURVE",
"307 965 OFFCURVE",
"399 997 OFFCURVE",
"494 997 CURVE SMOOTH",
"629 997 OFFCURVE",
"707 924 OFFCURVE",
"707 772 CURVE SMOOTH",
"707 711 OFFCURVE",
"668 660 OFFCURVE",
"609 625 CURVE SMOOTH",
"549 590 OFFCURVE",
"471 554 OFFCURVE",
"393 526 CURVE SMOOTH",
"315 497 OFFCURVE",
"236 455 OFFCURVE",
"177 411 CURVE SMOOTH",
"117 367 OFFCURVE",
"78 299 OFFCURVE",
"78 219 CURVE SMOOTH",
"78 66 OFFCURVE",
"192 -27 OFFCURVE",
"356 -27 CURVE SMOOTH",
"515 -27 OFFCURVE",
"666 78 OFFCURVE",
"723 223 CURVE",
"728 168 OFFCURVE",
"745 122 OFFCURVE",
"773 83 CURVE SMOOTH",
"828 6 OFFCURVE",
"908 -27 OFFCURVE",
"997 -27 CURVE SMOOTH",
"1081 -27 OFFCURVE",
"1141 -9 OFFCURVE",
"1194 39 CURVE SMOOTH",
"1247 87 OFFCURVE",
"1276 180 OFFCURVE",
"1276 313 CURVE SMOOTH",
"1276 442 LINE"
);
},
{
closed = 1;
nodes = (
"588 1430 OFFCURVE",
"664 1339 OFFCURVE",
"765 1204 CURVE",
"864 1294 LINE",
"536 1651 LINE",
"210 1300 LINE",
"309 1208 LINE",
"348 1259 LINE SMOOTH",
"401 1328 OFFCURVE",
"489 1436 OFFCURVE",
"536 1477 CURVE"
);
}
);
width = 1267;
}
);
leftKerningGroup = a;
note = acircumflex;
rightKerningGroup = a;
unicode = 00E2;
},
{
glyphname = adieresis;
lastChange = "2016-09-01 13:28:17 +0000";
layers = (
{
layerId = "B47A5128-4537-4D9D-B9B8-D866CD9145B5";
paths = (
{
closed = 1;
nodes = (
"291 309 OFFCURVE",
"351 365 OFFCURVE",
"423 397 CURVE SMOOTH",
"494 429 OFFCURVE",
"622 500 OFFCURVE",
"707 584 CURVE",
"707 371 LINE SMOOTH",
"707 334 OFFCURVE",
"692 296 OFFCURVE",
"661 256 CURVE SMOOTH",
"600 176 OFFCURVE",
"496 117 OFFCURVE",
"408 117 CURVE SMOOTH",
"331 117 OFFCURVE",
"291 162 OFFCURVE",
"291 229 CURVE SMOOTH"
);
},
{
closed = 1;
nodes = (
"1167 442 LINE",
"1167 293 LINE SMOOTH",
"1167 174 OFFCURVE",
"1125 115 OFFCURVE",
"1040 115 CURVE SMOOTH",
"1011 115 OFFCURVE",
"988 125 OFFCURVE",
"969 144 CURVE SMOOTH",
"932 183 OFFCURVE",
"922 231 OFFCURVE",
"922 283 CURVE SMOOTH",
"922 743 LINE SMOOTH",
"922 874 OFFCURVE",
"880 971 OFFCURVE",
"808 1025 CURVE SMOOTH",
"735 1079 OFFCURVE",
"646 1102 OFFCURVE",
"537 1102 CURVE SMOOTH",
"401 1102 OFFCURVE",
"282 1058 OFFCURVE",
"216 998 CURVE SMOOTH",
"150 938 OFFCURVE",
"113 872 OFFCURVE",
"113 817 CURVE SMOOTH",
"113 712 OFFCURVE",
"181 655 OFFCURVE",
"260 655 CURVE SMOOTH",
"336 655 OFFCURVE",
"399 713 OFFCURVE",
"399 797 CURVE SMOOTH",
"399 860 OFFCURVE",
"345 913 OFFCURVE",
"260 913 CURVE",
"307 965 OFFCURVE",
"399 997 OFFCURVE",
"494 997 CURVE SMOOTH",
"629 997 OFFCURVE",
"707 924 OFFCURVE",
"707 772 CURVE SMOOTH",
"707 711 OFFCURVE",
"668 660 OFFCURVE",
"609 625 CURVE SMOOTH",
"549 590 OFFCURVE",
"471 554 OFFCURVE",
"393 526 CURVE SMOOTH",
"315 497 OFFCURVE",
"236 455 OFFCURVE",
"177 411 CURVE SMOOTH",
"117 367 OFFCURVE",
"78 299 OFFCURVE",
"78 219 CURVE SMOOTH",
"78 66 OFFCURVE",
"192 -27 OFFCURVE",
"356 -27 CURVE SMOOTH",
"515 -27 OFFCURVE",
"666 78 OFFCURVE",
"723 223 CURVE",
"728 168 OFFCURVE",
"745 122 OFFCURVE",
"773 83 CURVE SMOOTH",
"828 6 OFFCURVE",
"908 -27 OFFCURVE",
"997 -27 CURVE SMOOTH",
"1081 -27 OFFCURVE",
"1141 -9 OFFCURVE",
"1194 39 CURVE SMOOTH",
"1247 87 OFFCURVE",
"1276 180 OFFCURVE",
"1276 313 CURVE SMOOTH",
"1276 442 LINE"
);
},
{
closed = 1;
nodes = (
"161 1266 OFFCURVE",
"222 1204 OFFCURVE",
"298 1204 CURVE SMOOTH",
"371 1204 OFFCURVE",
"435 1268 OFFCURVE",
"435 1341 CURVE SMOOTH",
"435 1417 OFFCURVE",
"373 1480 OFFCURVE",
"298 1480 CURVE SMOOTH",
"222 1480 OFFCURVE",
"161 1417 OFFCURVE",
"161 1341 CURVE SMOOTH"
);
},
{
closed = 1;
nodes = (
"636 1266 OFFCURVE",
"697 1204 OFFCURVE",
"773 1204 CURVE SMOOTH",
"848 1204 OFFCURVE",
"913 1268 OFFCURVE",
"913 1341 CURVE SMOOTH",
"913 1417 OFFCURVE",
"848 1480 OFFCURVE",
"773 1480 CURVE SMOOTH",
"697 1480 OFFCURVE",
"636 1417 OFFCURVE",
"636 1341 CURVE SMOOTH"
);
}
);
width = 1267;
}
);
leftKerningGroup = a;
note = adieresis;
rightKerningGroup = a;
unicode = 00E4;
},
{
glyphname = agrave;
lastChange = "2016-09-01 13:28:17 +0000";
layers = (
{
layerId = "B47A5128-4537-4D9D-B9B8-D866CD9145B5";
paths = (
{
closed = 1;
nodes = (
"291 309 OFFCURVE",
"351 365 OFFCURVE",
"423 397 CURVE SMOOTH",
"494 429 OFFCURVE",
"622 500 OFFCURVE",
"707 584 CURVE",
"707 371 LINE SMOOTH",
"707 334 OFFCURVE",
"692 296 OFFCURVE",
"661 256 CURVE SMOOTH",
"600 176 OFFCURVE",
"496 117 OFFCURVE",
"408 117 CURVE SMOOTH",
"331 117 OFFCURVE",
"291 162 OFFCURVE",
"291 229 CURVE SMOOTH"
);
},
{
closed = 1;
nodes = (
"1167 442 LINE",
"1167 293 LINE SMOOTH",
"1167 174 OFFCURVE",
"1125 115 OFFCURVE",
"1040 115 CURVE SMOOTH",
"1011 115 OFFCURVE",
"988 125 OFFCURVE",
"969 144 CURVE SMOOTH",
"932 183 OFFCURVE",
"922 231 OFFCURVE",
"922 283 CURVE SMOOTH",
"922 743 LINE SMOOTH",
"922 874 OFFCURVE",
"880 971 OFFCURVE",
"808 1025 CURVE SMOOTH",
"735 1079 OFFCURVE",
"646 1102 OFFCURVE",
"537 1102 CURVE SMOOTH",
"401 1102 OFFCURVE",
"282 1058 OFFCURVE",
"216 998 CURVE SMOOTH",
"150 938 OFFCURVE",
"113 872 OFFCURVE",
"113 817 CURVE SMOOTH",
"113 712 OFFCURVE",
"181 655 OFFCURVE",
"260 655 CURVE SMOOTH",
"336 655 OFFCURVE",
"399 713 OFFCURVE",
"399 797 CURVE SMOOTH",
"399 860 OFFCURVE",
"345 913 OFFCURVE",
"260 913 CURVE",
"307 965 OFFCURVE",
"399 997 OFFCURVE",
"494 997 CURVE SMOOTH",
"629 997 OFFCURVE",
"707 924 OFFCURVE",
"707 772 CURVE SMOOTH",
"707 711 OFFCURVE",
"668 660 OFFCURVE",
"609 625 CURVE SMOOTH",
"549 590 OFFCURVE",
"471 554 OFFCURVE",
"393 526 CURVE SMOOTH",
"315 497 OFFCURVE",
"236 455 OFFCURVE",
"177 411 CURVE SMOOTH",
"117 367 OFFCURVE",
"78 299 OFFCURVE",
"78 219 CURVE SMOOTH",
"78 66 OFFCURVE",
"192 -27 OFFCURVE",
"356 -27 CURVE SMOOTH",
"515 -27 OFFCURVE",
"666 78 OFFCURVE",
"723 223 CURVE",
"728 168 OFFCURVE",
"745 122 OFFCURVE",
"773 83 CURVE SMOOTH",
"828 6 OFFCURVE",
"908 -27 OFFCURVE",
"997 -27 CURVE SMOOTH",
"1081 -27 OFFCURVE",
"1141 -9 OFFCURVE",
"1194 39 CURVE SMOOTH",
"1247 87 OFFCURVE",
"1276 180 OFFCURVE",
"1276 313 CURVE SMOOTH",
"1276 442 LINE"
);
},
{
closed = 1;
nodes = (
"286 1429 OFFCURVE",
"392 1372 OFFCURVE",
"483 1332 CURVE SMOOTH",
"574 1291 OFFCURVE",
"706 1238 OFFCURVE",
"747 1223 CURVE SMOOTH",
"768 1215 OFFCURVE",
"784 1209 OFFCURVE",
"796 1204 CURVE",
"825 1243 LINE",
"704 1347 OFFCURVE",
"545 1468 OFFCURVE",
"350 1607 CURVE",
"249 1468 LINE"
);
}
);
width = 1267;
}
);
leftKerningGroup = a;
note = agrave;
rightKerningGroup = a;
unicode = 00E0;
},
{
glyphname = amacron;
lastChange = "2016-09-01 13:28:17 +0000";
layers = (
{
layerId = "B47A5128-4537-4D9D-B9B8-D866CD9145B5";
paths = (
{
closed = 1;
nodes = (
"246 1342 LINE",
"246 1204 LINE",
"828 1204 LINE",
"828 1342 LINE"
);
},
{
closed = 1;
nodes = (
"291 309 OFFCURVE",
"351 365 OFFCURVE",
"423 397 CURVE SMOOTH",
"494 429 OFFCURVE",
"622 500 OFFCURVE",
"707 584 CURVE",
"707 371 LINE SMOOTH",
"707 334 OFFCURVE",
"692 296 OFFCURVE",
"661 256 CURVE SMOOTH",
"600 176 OFFCURVE",
"496 117 OFFCURVE",
"408 117 CURVE SMOOTH",
"331 117 OFFCURVE",
"291 162 OFFCURVE",
"291 229 CURVE SMOOTH"
);
},
{
closed = 1;
nodes = (
"1167 442 LINE",
"1167 293 LINE SMOOTH",
"1167 174 OFFCURVE",
"1125 115 OFFCURVE",
"1040 115 CURVE SMOOTH",
"1011 115 OFFCURVE",
"988 125 OFFCURVE",
"969 144 CURVE SMOOTH",
"932 183 OFFCURVE",
"922 231 OFFCURVE",
"922 283 CURVE SMOOTH",
"922 743 LINE SMOOTH",
"922 874 OFFCURVE",
"880 971 OFFCURVE",
"808 1025 CURVE SMOOTH",
"735 1079 OFFCURVE",
"646 1102 OFFCURVE",
"537 1102 CURVE SMOOTH",
"401 1102 OFFCURVE",
"282 1058 OFFCURVE",
"216 998 CURVE SMOOTH",
"150 938 OFFCURVE",
"113 872 OFFCURVE",
"113 817 CURVE SMOOTH",
"113 712 OFFCURVE",
"181 655 OFFCURVE",
"260 655 CURVE SMOOTH",
"336 655 OFFCURVE",
"399 713 OFFCURVE",
"399 797 CURVE SMOOTH",
"399 860 OFFCURVE",
"345 913 OFFCURVE",
"260 913 CURVE",
"307 965 OFFCURVE",
"399 997 OFFCURVE",
"494 997 CURVE SMOOTH",
"629 997 OFFCURVE",
"707 924 OFFCURVE",
"707 772 CURVE SMOOTH",
"707 711 OFFCURVE",
"668 660 OFFCURVE",
"609 625 CURVE SMOOTH",
"549 590 OFFCURVE",
"471 554 OFFCURVE",
"393 526 CURVE SMOOTH",
"315 497 OFFCURVE",
"236 455 OFFCURVE",
"177 411 CURVE SMOOTH",
"117 367 OFFCURVE",
"78 299 OFFCURVE",
"78 219 CURVE SMOOTH",
"78 66 OFFCURVE",
"192 -27 OFFCURVE",
"356 -27 CURVE SMOOTH",
"515 -27 OFFCURVE",
"666 78 OFFCURVE",
"723 223 CURVE",
"728 168 OFFCURVE",
"745 122 OFFCURVE",
"773 83 CURVE SMOOTH",
"828 6 OFFCURVE",
"908 -27 OFFCURVE",
"997 -27 CURVE SMOOTH",
"1081 -27 OFFCURVE",
"1141 -9 OFFCURVE",
"1194 39 CURVE SMOOTH",
"1247 87 OFFCURVE",
"1276 180 OFFCURVE",
"1276 313 CURVE SMOOTH",
"1276 442 LINE"
);
}
);
width = 1267;
}
);
leftKerningGroup = a;
note = amacron;
rightKerningGroup = a;
unicode = 0101;
},
{
glyphname = aogonek;
lastChange = "2016-09-01 13:28:17 +0000";
layers = (
{
layerId = "B47A5128-4537-4D9D-B9B8-D866CD9145B5";
paths = (
{
closed = 1;
nodes = (
"705 -313 OFFCURVE",
"823 -413 OFFCURVE",
"994 -413 CURVE",
"1021 -274 LINE",
"902 -258 OFFCURVE",
"865 -212 OFFCURVE",
"865 -151 CURVE SMOOTH",
"865 -96 OFFCURVE",
"918 -47 OFFCURVE",
"1023 -28 CURVE",
"1023 3 LINE",
"950 3 OFFCURVE",
"875 -14 OFFCURVE",
"812 -45 CURVE SMOOTH",
"748 -77 OFFCURVE",
"705 -134 OFFCURVE",
"705 -202 CURVE SMOOTH"
);
},
{
closed = 1;
nodes = (
"291 309 OFFCURVE",
"351 365 OFFCURVE",
"423 397 CURVE SMOOTH",
"494 429 OFFCURVE",
"622 500 OFFCURVE",
"707 584 CURVE",
"707 371 LINE SMOOTH",
"707 334 OFFCURVE",
"692 296 OFFCURVE",
"661 256 CURVE SMOOTH",
"600 176 OFFCURVE",
"496 117 OFFCURVE",
"408 117 CURVE SMOOTH",
"331 117 OFFCURVE",
"291 162 OFFCURVE",
"291 229 CURVE SMOOTH"
);
},
{
closed = 1;
nodes = (
"1167 442 LINE",
"1167 293 LINE SMOOTH",
"1167 174 OFFCURVE",
"1125 115 OFFCURVE",
"1040 115 CURVE SMOOTH",
"1011 115 OFFCURVE",
"988 125 OFFCURVE",
"969 144 CURVE SMOOTH",
"932 183 OFFCURVE",
"922 231 OFFCURVE",
"922 283 CURVE SMOOTH",
"922 743 LINE SMOOTH",
"922 874 OFFCURVE",
"880 971 OFFCURVE",
"808 1025 CURVE SMOOTH",
"735 1079 OFFCURVE",
"646 1102 OFFCURVE",
"537 1102 CURVE SMOOTH",
"401 1102 OFFCURVE",
"282 1058 OFFCURVE",
"216 998 CURVE SMOOTH",
"150 938 OFFCURVE",
"113 872 OFFCURVE",
"113 817 CURVE SMOOTH",
"113 712 OFFCURVE",
"181 655 OFFCURVE",
"260 655 CURVE SMOOTH",
"336 655 OFFCURVE",
"399 713 OFFCURVE",
"399 797 CURVE SMOOTH",
"399 860 OFFCURVE",
"345 913 OFFCURVE",
"260 913 CURVE",
"307 965 OFFCURVE",
"399 997 OFFCURVE",
"494 997 CURVE SMOOTH",
"629 997 OFFCURVE",
"707 924 OFFCURVE",
"707 772 CURVE SMOOTH",
"707 711 OFFCURVE",
"668 660 OFFCURVE",
"609 625 CURVE SMOOTH",
"549 590 OFFCURVE",
"471 554 OFFCURVE",
"393 526 CURVE SMOOTH",
"315 497 OFFCURVE",
"236 455 OFFCURVE",
"177 411 CURVE SMOOTH",
"117 367 OFFCURVE",
"78 299 OFFCURVE",
"78 219 CURVE SMOOTH",
"78 66 OFFCURVE",
"192 -27 OFFCURVE",
"356 -27 CURVE SMOOTH",
"515 -27 OFFCURVE",
"666 78 OFFCURVE",
"723 223 CURVE",
"728 168 OFFCURVE",
"745 122 OFFCURVE",
"773 83 CURVE SMOOTH",
"828 6 OFFCURVE",
"908 -27 OFFCURVE",
"997 -27 CURVE SMOOTH",
"1081 -27 OFFCURVE",
"1141 -9 OFFCURVE",
"1194 39 CURVE SMOOTH",
"1247 87 OFFCURVE",
"1276 180 OFFCURVE",
"1276 313 CURVE SMOOTH",
"1276 442 LINE"
);
}
);
width = 1267;
}
);
leftKerningGroup = a;
note = aogonek;
rightKerningGroup = a;
unicode = 0105;
},
{
glyphname = aring;
lastChange = "2016-09-01 13:28:17 +0000";
layers = (
{
layerId = "B47A5128-4537-4D9D-B9B8-D866CD9145B5";
paths = (
{
closed = 1;
nodes = (
"291 309 OFFCURVE",
"351 365 OFFCURVE",
"423 397 CURVE SMOOTH",
"494 429 OFFCURVE",
"622 500 OFFCURVE",
"707 584 CURVE",
"707 371 LINE SMOOTH",
"707 334 OFFCURVE",
"692 296 OFFCURVE",
"661 256 CURVE SMOOTH",
"600 176 OFFCURVE",
"496 117 OFFCURVE",
"408 117 CURVE SMOOTH",
"331 117 OFFCURVE",
"291 162 OFFCURVE",
"291 229 CURVE SMOOTH"
);
},
{
closed = 1;
nodes = (
"1167 442 LINE",
"1167 293 LINE SMOOTH",
"1167 174 OFFCURVE",
"1125 115 OFFCURVE",
"1040 115 CURVE SMOOTH",
"1011 115 OFFCURVE",
"988 125 OFFCURVE",
"969 144 CURVE SMOOTH",
"932 183 OFFCURVE",
"922 231 OFFCURVE",
"922 283 CURVE SMOOTH",
"922 743 LINE SMOOTH",
"922 874 OFFCURVE",
"880 971 OFFCURVE",
"808 1025 CURVE SMOOTH",
"735 1079 OFFCURVE",
"646 1102 OFFCURVE",
"537 1102 CURVE SMOOTH",
"401 1102 OFFCURVE",
"282 1058 OFFCURVE",
"216 998 CURVE SMOOTH",
"150 938 OFFCURVE",
"113 872 OFFCURVE",
"113 817 CURVE SMOOTH",
"113 712 OFFCURVE",
"181 655 OFFCURVE",
"260 655 CURVE SMOOTH",
"336 655 OFFCURVE",
"399 713 OFFCURVE",
"399 797 CURVE SMOOTH",
"399 860 OFFCURVE",
"345 913 OFFCURVE",
"260 913 CURVE",
"307 965 OFFCURVE",
"399 997 OFFCURVE",
"494 997 CURVE SMOOTH",
"629 997 OFFCURVE",
"707 924 OFFCURVE",
"707 772 CURVE SMOOTH",
"707 711 OFFCURVE",
"668 660 OFFCURVE",
"609 625 CURVE SMOOTH",
"549 590 OFFCURVE",
"471 554 OFFCURVE",
"393 526 CURVE SMOOTH",
"315 497 OFFCURVE",
"236 455 OFFCURVE",
"177 411 CURVE SMOOTH",
"117 367 OFFCURVE",
"78 299 OFFCURVE",
"78 219 CURVE SMOOTH",
"78 66 OFFCURVE",
"192 -27 OFFCURVE",
"356 -27 CURVE SMOOTH",
"515 -27 OFFCURVE",
"666 78 OFFCURVE",
"723 223 CURVE",
"728 168 OFFCURVE",
"745 122 OFFCURVE",
"773 83 CURVE SMOOTH",
"828 6 OFFCURVE",
"908 -27 OFFCURVE",
"997 -27 CURVE SMOOTH",
"1081 -27 OFFCURVE",
"1141 -9 OFFCURVE",
"1194 39 CURVE SMOOTH",
"1247 87 OFFCURVE",
"1276 180 OFFCURVE",
"1276 313 CURVE SMOOTH",
"1276 442 LINE"
);
},
{
closed = 1;
nodes = (
"638 1457 OFFCURVE",
"649 1426 OFFCURVE",
"649 1387 CURVE SMOOTH",
"649 1310 OFFCURVE",
"596 1262 OFFCURVE",
"536 1262 CURVE SMOOTH",
"476 1262 OFFCURVE",
"425 1308 OFFCURVE",
"425 1387 CURVE SMOOTH",
"425 1466 OFFCURVE",
"478 1514 OFFCURVE",
"538 1514 CURVE SMOOTH",
"568 1514 OFFCURVE",
"594 1503 OFFCURVE",
"616 1480 CURVE SMOOTH"
);
},
{
closed = 1;
nodes = (
"337 1280 OFFCURVE",
"415 1204 OFFCURVE",
"538 1204 CURVE SMOOTH",
"659 1204 OFFCURVE",
"737 1282 OFFCURVE",
"737 1387 CURVE SMOOTH",
"737 1492 OFFCURVE",
"659 1569 OFFCURVE",
"538 1569 CURVE SMOOTH",
"414 1569 OFFCURVE",
"337 1492 OFFCURVE",
"337 1387 CURVE SMOOTH"
);
}
);
width = 1267;
}
);
leftKerningGroup = a;
note = aring;
rightKerningGroup = a;
unicode = 00E5;
},
{
glyphname = atilde;
lastChange = "2016-09-01 13:28:17 +0000";
layers = (
{
layerId = "B47A5128-4537-4D9D-B9B8-D866CD9145B5";
paths = (
{
closed = 1;
nodes = (
"291 309 OFFCURVE",
"351 365 OFFCURVE",
"423 397 CURVE SMOOTH",
"494 429 OFFCURVE",
"622 500 OFFCURVE",
"707 584 CURVE",
"707 371 LINE SMOOTH",
"707 334 OFFCURVE",
"692 296 OFFCURVE",
"661 256 CURVE SMOOTH",
"600 176 OFFCURVE",
"496 117 OFFCURVE",
"408 117 CURVE SMOOTH",
"331 117 OFFCURVE",
"291 162 OFFCURVE",
"291 229 CURVE SMOOTH"
);
},
{
closed = 1;
nodes = (
"1167 442 LINE",
"1167 293 LINE SMOOTH",
"1167 174 OFFCURVE",
"1125 115 OFFCURVE",
"1040 115 CURVE SMOOTH",
"1011 115 OFFCURVE",
"988 125 OFFCURVE",
"969 144 CURVE SMOOTH",
"932 183 OFFCURVE",
"922 231 OFFCURVE",
"922 283 CURVE SMOOTH",
"922 743 LINE SMOOTH",
"922 874 OFFCURVE",
"880 971 OFFCURVE",
"808 1025 CURVE SMOOTH",
"735 1079 OFFCURVE",
"646 1102 OFFCURVE",
"537 1102 CURVE SMOOTH",
"401 1102 OFFCURVE",
"282 1058 OFFCURVE",
"216 998 CURVE SMOOTH",
"150 938 OFFCURVE",
"113 872 OFFCURVE",
"113 817 CURVE SMOOTH",
"113 712 OFFCURVE",
"181 655 OFFCURVE",
"260 655 CURVE SMOOTH",
"336 655 OFFCURVE",
"399 713 OFFCURVE",
"399 797 CURVE SMOOTH",
"399 860 OFFCURVE",
"345 913 OFFCURVE",
"260 913 CURVE",
"307 965 OFFCURVE",
"399 997 OFFCURVE",
"494 997 CURVE SMOOTH",
"629 997 OFFCURVE",
"707 924 OFFCURVE",
"707 772 CURVE SMOOTH",
"707 711 OFFCURVE",
"668 660 OFFCURVE",
"609 625 CURVE SMOOTH",
"549 590 OFFCURVE",
"471 554 OFFCURVE",
"393 526 CURVE SMOOTH",
"315 497 OFFCURVE",
"236 455 OFFCURVE",
"177 411 CURVE SMOOTH",
"117 367 OFFCURVE",
"78 299 OFFCURVE",
"78 219 CURVE SMOOTH",
"78 66 OFFCURVE",
"192 -27 OFFCURVE",
"356 -27 CURVE SMOOTH",
"515 -27 OFFCURVE",
"666 78 OFFCURVE",
"723 223 CURVE",
"728 168 OFFCURVE",
"745 122 OFFCURVE",
"773 83 CURVE SMOOTH",
"828 6 OFFCURVE",
"908 -27 OFFCURVE",
"997 -27 CURVE SMOOTH",
"1081 -27 OFFCURVE",
"1141 -9 OFFCURVE",
"1194 39 CURVE SMOOTH",
"1247 87 OFFCURVE",
"1276 180 OFFCURVE",
"1276 313 CURVE SMOOTH",
"1276 442 LINE"
);
},
{
closed = 1;
nodes = (
"771 1298 OFFCURVE",
"792 1274 OFFCURVE",
"792 1206 CURVE",
"880 1206 LINE",
"880 1383 OFFCURVE",
"835 1449 OFFCURVE",
"712 1449 CURVE SMOOTH",
"674 1449 OFFCURVE",
"614 1433 OFFCURVE",
"533 1402 CURVE SMOOTH",
"452 1371 OFFCURVE",
"397 1355 OFFCURVE",
"370 1355 CURVE SMOOTH",
"303 1355 OFFCURVE",
"282 1379 OFFCURVE",
"282 1447 CURVE",
"194 1447 LINE",
"194 1270 OFFCURVE",
"239 1204 OFFCURVE",
"362 1204 CURVE SMOOTH",
"400 1204 OFFCURVE",
"460 1220 OFFCURVE",
"541 1251 CURVE SMOOTH",
"622 1282 OFFCURVE",
"677 1298 OFFCURVE",
"704 1298 CURVE SMOOTH"
);
}
);
width = 1267;
}
);
leftKerningGroup = a;
note = atilde;
rightKerningGroup = a;
unicode = 00E3;
},
{
glyphname = ae;
lastChange = "2016-09-01 13:28:17 +0000";
layers = (
{
layerId = "B47A5128-4537-4D9D-B9B8-D866CD9145B5";
paths = (
{
closed = 1;
nodes = (
"273 302 OFFCURVE",
"310 351 OFFCURVE",
"383 392 CURVE SMOOTH",
"456 432 OFFCURVE",
"573 471 OFFCURVE",
"733 508 CURVE",
"737 389 LINE",
"726 344 OFFCURVE",
"692 283 OFFCURVE",
"637 223 CURVE SMOOTH",
"582 163 OFFCURVE",
"491 117 OFFCURVE",
"395 117 CURVE SMOOTH",
"320 117 OFFCURVE",
"273 172 OFFCURVE",
"273 245 CURVE SMOOTH"
);
},
{
closed = 1;
nodes = (
"979 848 OFFCURVE",
"1091 985 OFFCURVE",
"1239 985 CURVE SMOOTH",
"1358 985 OFFCURVE",
"1440 866 OFFCURVE",
"1440 729 CURVE",
"963 651 LINE"
);
},
{
closed = 1;
nodes = (
"1513 212 OFFCURVE",
"1387 123 OFFCURVE",
"1251 123 CURVE SMOOTH",
"1209 123 OFFCURVE",
"1171 134 OFFCURVE",
"1137 157 CURVE SMOOTH",
"1068 201 OFFCURVE",
"1030 270 OFFCURVE",
"1002 350 CURVE SMOOTH",
"973 430 OFFCURVE",
"963 498 OFFCURVE",
"963 547 CURVE",
"1624 643 LINE",
"1624 678 OFFCURVE",
"1620 716 OFFCURVE",
"1612 755 CURVE SMOOTH",
"1596 833 OFFCURVE",
"1557 922 OFFCURVE",
"1501 989 CURVE SMOOTH",
"1445 1056 OFFCURVE",
"1353 1104 OFFCURVE",
"1245 1104 CURVE SMOOTH",
"1086 1104 OFFCURVE",
"976 1046 OFFCURVE",
"891 913 CURVE",
"831 1039 OFFCURVE",
"706 1102 OFFCURVE",
"516 1102 CURVE SMOOTH",
"300 1102 OFFCURVE",
"117 982 OFFCURVE",
"117 834 CURVE SMOOTH",
"117 717 OFFCURVE",
"183 655 OFFCURVE",
"264 655 CURVE SMOOTH",
"343 655 OFFCURVE",
"414 714 OFFCURVE",
"414 797 CURVE SMOOTH",
"414 860 OFFCURVE",
"357 913 OFFCURVE",
"270 913 CURVE",
"317 965 OFFCURVE",
"405 997 OFFCURVE",
"498 997 CURVE SMOOTH",
"637 997 OFFCURVE",
"733 921 OFFCURVE",
"733 772 CURVE SMOOTH",
"733 623 LINE",
"697 614 OFFCURVE",
"619 596 OFFCURVE",
"572 585 CURVE SMOOTH",
"524 574 OFFCURVE",
"448 553 OFFCURVE",
"399 537 CURVE SMOOTH",
"350 521 OFFCURVE",
"284 494 OFFCURVE",
"241 468 CURVE SMOOTH",
"198 442 OFFCURVE",
"153 405 OFFCURVE",
"126 366 CURVE SMOOTH",
"99 326 OFFCURVE",
"82 275 OFFCURVE",
"82 219 CURVE SMOOTH",
"82 66 OFFCURVE",
"204 -29 OFFCURVE",
"369 -29 CURVE SMOOTH",
"577 -29 OFFCURVE",
"744 93 OFFCURVE",
"827 266 CURVE",
"874 118 OFFCURVE",
"1042 -29 OFFCURVE",
"1234 -29 CURVE SMOOTH",
"1459 -29 OFFCURVE",
"1621 111 OFFCURVE",
"1673 334 CURVE",
"1556 371 LINE"
);
}
);
width = 1728;
}
);
leftKerningGroup = a;
note = ae;
unicode = 00E6;
},
{
glyphname = b;
lastChange = "2016-09-01 13:28:17 +0000";
layers = (
{
layerId = "B47A5128-4537-4D9D-B9B8-D866CD9145B5";
paths = (
{
closed = 1;
nodes = (
"708 989 OFFCURVE",
"781 930 OFFCURVE",
"821 838 CURVE SMOOTH",
"860 746 OFFCURVE",
"879 640 OFFCURVE",
"879 524 CURVE SMOOTH",
"879 451 OFFCURVE",
"869 382 OFFCURVE",
"850 318 CURVE SMOOTH",
"811 190 OFFCURVE",
"725 94 OFFCURVE",
"616 94 CURVE SMOOTH",
"562 94 OFFCURVE",
"515 116 OFFCURVE",
"474 161 CURVE SMOOTH",
"393 249 OFFCURVE",
"350 403 OFFCURVE",
"350 584 CURVE SMOOTH",
"350 672 OFFCURVE",
"372 765 OFFCURVE",
"413 848 CURVE SMOOTH",
"453 931 OFFCURVE",
"528 989 OFFCURVE",
"616 989 CURVE SMOOTH"
);
},
{
closed = 1;
nodes = (
"744 -27 OFFCURVE",
"823 -2 OFFCURVE",
"892 48 CURVE SMOOTH",
"1030 147 OFFCURVE",
"1108 326 OFFCURVE",
"1108 537 CURVE SMOOTH",
"1108 869 OFFCURVE",
"926 1102 OFFCURVE",
"647 1102 CURVE SMOOTH",
"528 1102 OFFCURVE",
"418 1042 OFFCURVE",
"350 942 CURVE",
"350 1505 LINE",
"-72 1505 LINE",
"-72 1382 LINE",
"135 1382 LINE",
"135 0 LINE",
"227 0 LINE",
"305 199 LINE",
"370 46 OFFCURVE",
"510 -27 OFFCURVE",
"657 -27 CURVE SMOOTH"
);
}
);
width = 1185;
}
);
leftKerningGroup = B;
note = b;
rightKerningGroup = b;
unicode = 0062;
},
{
glyphname = c;
lastChange = "2016-09-01 13:28:17 +0000";
layers = (
{
layerId = "B47A5128-4537-4D9D-B9B8-D866CD9145B5";
paths = (
{
closed = 1;
nodes = (
"74 353 OFFCURVE",
"132 211 OFFCURVE",
"225 119 CURVE SMOOTH",
"318 27 OFFCURVE",
"449 -27 OFFCURVE",
"592 -27 CURVE SMOOTH",
"841 -27 OFFCURVE",
"1012 115 OFFCURVE",
"1063 334 CURVE",
"950 371 LINE",
"937 328 OFFCURVE",
"901 275 OFFCURVE",
"850 224 CURVE SMOOTH",
"798 173 OFFCURVE",
"718 135 OFFCURVE",
"637 135 CURVE SMOOTH",
"426 135 OFFCURVE",
"301 292 OFFCURVE",
"301 549 CURVE SMOOTH",
"301 658 OFFCURVE",
"330 764 OFFCURVE",
"385 849 CURVE SMOOTH",
"440 933 OFFCURVE",
"535 989 OFFCURVE",
"651 989 CURVE SMOOTH",
"755 989 OFFCURVE",
"839 939 OFFCURVE",
"883 868 CURVE",
"800 868 OFFCURVE",
"729 818 OFFCURVE",
"729 731 CURVE SMOOTH",
"729 646 OFFCURVE",
"796 590 OFFCURVE",
"883 590 CURVE SMOOTH",
"982 590 OFFCURVE",
"1040 672 OFFCURVE",
"1040 752 CURVE SMOOTH",
"1040 867 OFFCURVE",
"982 963 OFFCURVE",
"898 1018 CURVE SMOOTH",
"814 1073 OFFCURVE",
"713 1102 OFFCURVE",
"616 1102 CURVE SMOOTH",
"443 1102 OFFCURVE",
"298 1033 OFFCURVE",
"210 923 CURVE SMOOTH",
"122 813 OFFCURVE",
"74 671 OFFCURVE",
"74 516 CURVE SMOOTH"
);
}
);
width = 1118;
}
);
leftKerningGroup = c;
note = c;
unicode = 0063;
},
{
glyphname = cacute;
lastChange = "2016-09-01 13:28:17 +0000";
layers = (
{
layerId = "B47A5128-4537-4D9D-B9B8-D866CD9145B5";
paths = (
{
closed = 1;
nodes = (
"74 353 OFFCURVE",
"132 211 OFFCURVE",
"225 119 CURVE SMOOTH",
"318 27 OFFCURVE",
"449 -27 OFFCURVE",
"592 -27 CURVE SMOOTH",
"841 -27 OFFCURVE",
"1012 115 OFFCURVE",
"1063 334 CURVE",
"950 371 LINE",
"937 328 OFFCURVE",
"901 275 OFFCURVE",
"850 224 CURVE SMOOTH",
"798 173 OFFCURVE",
"718 135 OFFCURVE",
"637 135 CURVE SMOOTH",
"426 135 OFFCURVE",
"301 292 OFFCURVE",
"301 549 CURVE SMOOTH",
"301 658 OFFCURVE",
"330 764 OFFCURVE",
"385 849 CURVE SMOOTH",
"440 933 OFFCURVE",
"535 989 OFFCURVE",
"651 989 CURVE SMOOTH",
"755 989 OFFCURVE",
"839 939 OFFCURVE",
"883 868 CURVE",
"800 868 OFFCURVE",
"729 818 OFFCURVE",
"729 731 CURVE SMOOTH",
"729 646 OFFCURVE",
"796 590 OFFCURVE",
"883 590 CURVE SMOOTH",
"982 590 OFFCURVE",
"1040 672 OFFCURVE",
"1040 752 CURVE SMOOTH",
"1040 867 OFFCURVE",
"982 963 OFFCURVE",
"898 1018 CURVE SMOOTH",
"814 1073 OFFCURVE",
"713 1102 OFFCURVE",
"616 1102 CURVE SMOOTH",
"443 1102 OFFCURVE",
"298 1033 OFFCURVE",
"210 923 CURVE SMOOTH",
"122 813 OFFCURVE",
"74 671 OFFCURVE",
"74 516 CURVE SMOOTH"
);
},
{
closed = 1;
nodes = (
"725 1552 LINE SMOOTH",
"620 1477 OFFCURVE",
"436 1337 OFFCURVE",
"328 1245 CURVE",
"357 1206 LINE",
"471 1250 LINE SMOOTH",
"624 1307 OFFCURVE",
"845 1410 OFFCURVE",
"904 1470 CURVE",
"803 1609 LINE"
);
}
);
width = 1118;
}
);
leftKerningGroup = c;
note = cacute;
unicode = 0107;
},
{
glyphname = ccaron;
lastChange = "2016-09-01 13:28:17 +0000";
layers = (
{
layerId = "B47A5128-4537-4D9D-B9B8-D866CD9145B5";
paths = (
{
closed = 1;
nodes = (
"565 1427 OFFCURVE",
"489 1518 OFFCURVE",
"388 1653 CURVE",
"289 1563 LINE",
"617 1206 LINE",
"943 1556 LINE",
"844 1649 LINE",
"805 1597 LINE SMOOTH",
"752 1529 OFFCURVE",
"664 1421 OFFCURVE",
"617 1380 CURVE"
);
},
{
closed = 1;
nodes = (
"74 353 OFFCURVE",
"132 211 OFFCURVE",
"225 119 CURVE SMOOTH",
"318 27 OFFCURVE",
"449 -27 OFFCURVE",
"592 -27 CURVE SMOOTH",
"841 -27 OFFCURVE",
"1012 115 OFFCURVE",
"1063 334 CURVE",
"950 371 LINE",
"937 328 OFFCURVE",
"901 275 OFFCURVE",
"850 224 CURVE SMOOTH",
"798 173 OFFCURVE",
"718 135 OFFCURVE",
"637 135 CURVE SMOOTH",
"426 135 OFFCURVE",
"301 292 OFFCURVE",
"301 549 CURVE SMOOTH",
"301 658 OFFCURVE",
"330 764 OFFCURVE",
"385 849 CURVE SMOOTH",
"440 933 OFFCURVE",
"535 989 OFFCURVE",
"651 989 CURVE SMOOTH",
"755 989 OFFCURVE",
"839 939 OFFCURVE",
"883 868 CURVE",
"800 868 OFFCURVE",
"729 818 OFFCURVE",
"729 731 CURVE SMOOTH",
"729 646 OFFCURVE",
"796 590 OFFCURVE",
"883 590 CURVE SMOOTH",
"982 590 OFFCURVE",
"1040 672 OFFCURVE",
"1040 752 CURVE SMOOTH",
"1040 867 OFFCURVE",
"982 963 OFFCURVE",
"898 1018 CURVE SMOOTH",
"814 1073 OFFCURVE",
"713 1102 OFFCURVE",
"616 1102 CURVE SMOOTH",
"443 1102 OFFCURVE",
"298 1033 OFFCURVE",
"210 923 CURVE SMOOTH",
"122 813 OFFCURVE",
"74 671 OFFCURVE",
"74 516 CURVE SMOOTH"
);
}
);
width = 1118;
}
);
leftKerningGroup = c;
note = ccaron;
unicode = 010D;
},
{
glyphname = ccedilla;
lastChange = "2016-09-01 13:28:17 +0000";
layers = (
{
layerId = "B47A5128-4537-4D9D-B9B8-D866CD9145B5";
paths = (
{
closed = 1;
nodes = (
"604 -14 LINE SMOOTH",
"489 -14 OFFCURVE",
"395 -105 OFFCURVE",
"395 -182 CURVE SMOOTH",
"395 -199 OFFCURVE",
"411 -222 OFFCURVE",
"443 -253 CURVE SMOOTH",
"474 -284 OFFCURVE",
"490 -307 OFFCURVE",
"490 -321 CURVE SMOOTH",
"490 -334 OFFCURVE",
"475 -347 OFFCURVE",
"446 -359 CURVE SMOOTH",
"417 -371 OFFCURVE",
"383 -380 OFFCURVE",
"344 -387 CURVE",
"373 -458 LINE",
"401 -453 LINE SMOOTH",
"438 -446 OFFCURVE",
"495 -429 OFFCURVE",
"548 -405 CURVE SMOOTH",
"600 -381 OFFCURVE",
"643 -338 OFFCURVE",
"643 -290 CURVE SMOOTH",
"643 -14 LINE"
);
},
{
closed = 1;
nodes = (
"74 353 OFFCURVE",
"132 211 OFFCURVE",
"225 119 CURVE SMOOTH",
"318 27 OFFCURVE",
"449 -27 OFFCURVE",
"592 -27 CURVE SMOOTH",
"841 -27 OFFCURVE",
"1012 115 OFFCURVE",
"1063 334 CURVE",
"950 371 LINE",
"937 328 OFFCURVE",
"901 275 OFFCURVE",
"850 224 CURVE SMOOTH",
"798 173 OFFCURVE",
"718 135 OFFCURVE",
"637 135 CURVE SMOOTH",
"426 135 OFFCURVE",
"301 292 OFFCURVE",
"301 549 CURVE SMOOTH",
"301 658 OFFCURVE",
"330 764 OFFCURVE",
"385 849 CURVE SMOOTH",
"440 933 OFFCURVE",
"535 989 OFFCURVE",
"651 989 CURVE SMOOTH",
"755 989 OFFCURVE",
"839 939 OFFCURVE",
"883 868 CURVE",
"800 868 OFFCURVE",
"729 818 OFFCURVE",
"729 731 CURVE SMOOTH",
"729 646 OFFCURVE",
"796 590 OFFCURVE",
"883 590 CURVE SMOOTH",
"982 590 OFFCURVE",
"1040 672 OFFCURVE",
"1040 752 CURVE SMOOTH",
"1040 867 OFFCURVE",
"982 963 OFFCURVE",
"898 1018 CURVE SMOOTH",
"814 1073 OFFCURVE",
"713 1102 OFFCURVE",
"616 1102 CURVE SMOOTH",
"443 1102 OFFCURVE",
"298 1033 OFFCURVE",
"210 923 CURVE SMOOTH",
"122 813 OFFCURVE",
"74 671 OFFCURVE",
"74 516 CURVE SMOOTH"
);
}
);
width = 1118;
}
);
leftKerningGroup = c;
note = ccedilla;
unicode = 00E7;
},
{
glyphname = ccircumflex;
lastChange = "2016-09-01 13:28:17 +0000";
layers = (
{
layerId = "B47A5128-4537-4D9D-B9B8-D866CD9145B5";
paths = (
{
closed = 1;
nodes = (
"680 1432 OFFCURVE",
"756 1341 OFFCURVE",
"857 1206 CURVE",
"956 1296 LINE",
"628 1653 LINE",
"302 1302 LINE",
"401 1210 LINE",
"440 1261 LINE SMOOTH",
"493 1330 OFFCURVE",
"581 1438 OFFCURVE",
"628 1479 CURVE"
);
},
{
closed = 1;
nodes = (
"74 353 OFFCURVE",
"132 211 OFFCURVE",
"225 119 CURVE SMOOTH",
"318 27 OFFCURVE",
"449 -27 OFFCURVE",
"592 -27 CURVE SMOOTH",
"841 -27 OFFCURVE",
"1012 115 OFFCURVE",
"1063 334 CURVE",
"950 371 LINE",
"937 328 OFFCURVE",
"901 275 OFFCURVE",
"850 224 CURVE SMOOTH",
"798 173 OFFCURVE",
"718 135 OFFCURVE",
"637 135 CURVE SMOOTH",
"426 135 OFFCURVE",
"301 292 OFFCURVE",
"301 549 CURVE SMOOTH",
"301 658 OFFCURVE",
"330 764 OFFCURVE",
"385 849 CURVE SMOOTH",
"440 933 OFFCURVE",
"535 989 OFFCURVE",
"651 989 CURVE SMOOTH",
"755 989 OFFCURVE",
"839 939 OFFCURVE",
"883 868 CURVE",
"800 868 OFFCURVE",
"729 818 OFFCURVE",
"729 731 CURVE SMOOTH",
"729 646 OFFCURVE",
"796 590 OFFCURVE",
"883 590 CURVE SMOOTH",
"982 590 OFFCURVE",
"1040 672 OFFCURVE",
"1040 752 CURVE SMOOTH",
"1040 867 OFFCURVE",
"982 963 OFFCURVE",
"898 1018 CURVE SMOOTH",
"814 1073 OFFCURVE",
"713 1102 OFFCURVE",
"616 1102 CURVE SMOOTH",
"443 1102 OFFCURVE",
"298 1033 OFFCURVE",
"210 923 CURVE SMOOTH",
"122 813 OFFCURVE",
"74 671 OFFCURVE",
"74 516 CURVE SMOOTH"
);
}
);
width = 1118;
}
);
leftKerningGroup = c;
note = ccircumflex;
unicode = 0109;
},
{
glyphname = cdotaccent;
lastChange = "2016-09-01 13:28:17 +0000";
layers = (
{
layerId = "B47A5128-4537-4D9D-B9B8-D866CD9145B5";
paths = (
{
closed = 1;
nodes = (
"468 1274 OFFCURVE",
"535 1206 OFFCURVE",
"616 1206 CURVE SMOOTH",
"696 1206 OFFCURVE",
"765 1274 OFFCURVE",
"765 1354 CURVE SMOOTH",
"765 1435 OFFCURVE",
"696 1503 OFFCURVE",
"616 1503 CURVE SMOOTH",
"535 1503 OFFCURVE",
"468 1437 OFFCURVE",
"468 1354 CURVE SMOOTH"
);
},
{
closed = 1;
nodes = (
"74 353 OFFCURVE",
"132 211 OFFCURVE",
"225 119 CURVE SMOOTH",
"318 27 OFFCURVE",
"449 -27 OFFCURVE",
"592 -27 CURVE SMOOTH",
"841 -27 OFFCURVE",
"1012 115 OFFCURVE",
"1063 334 CURVE",
"950 371 LINE",
"937 328 OFFCURVE",
"901 275 OFFCURVE",
"850 224 CURVE SMOOTH",
"798 173 OFFCURVE",
"718 135 OFFCURVE",
"637 135 CURVE SMOOTH",
"426 135 OFFCURVE",
"301 292 OFFCURVE",
"301 549 CURVE SMOOTH",
"301 658 OFFCURVE",
"330 764 OFFCURVE",
"385 849 CURVE SMOOTH",
"440 933 OFFCURVE",
"535 989 OFFCURVE",
"651 989 CURVE SMOOTH",
"755 989 OFFCURVE",
"839 939 OFFCURVE",
"883 868 CURVE",
"800 868 OFFCURVE",
"729 818 OFFCURVE",
"729 731 CURVE SMOOTH",
"729 646 OFFCURVE",
"796 590 OFFCURVE",
"883 590 CURVE SMOOTH",
"982 590 OFFCURVE",
"1040 672 OFFCURVE",
"1040 752 CURVE SMOOTH",
"1040 867 OFFCURVE",
"982 963 OFFCURVE",
"898 1018 CURVE SMOOTH",
"814 1073 OFFCURVE",
"713 1102 OFFCURVE",
"616 1102 CURVE SMOOTH",
"443 1102 OFFCURVE",
"298 1033 OFFCURVE",
"210 923 CURVE SMOOTH",
"122 813 OFFCURVE",
"74 671 OFFCURVE",
"74 516 CURVE SMOOTH"
);
}
);
width = 1118;
}
);
leftKerningGroup = c;
note = cdotaccent;
unicode = 010B;
},
{
glyphname = d;
lastChange = "2016-09-01 13:28:17 +0000";
layers = (
{
layerId = "B47A5128-4537-4D9D-B9B8-D866CD9145B5";
paths = (
{
closed = 1;
nodes = (
"1225 0 LINE",
"1225 112 LINE",
"1044 112 LINE",
"1044 1505 LINE",
"594 1505 LINE",
"594 1382 LINE",
"829 1382 LINE",
"829 942 LINE",
"762 1041 OFFCURVE",
"646 1102 OFFCURVE",
"535 1102 CURVE SMOOTH",
"255 1102 OFFCURVE",
"80 877 OFFCURVE",
"80 537 CURVE SMOOTH",
"80 198 OFFCURVE",
"255 -27 OFFCURVE",
"520 -27 CURVE SMOOTH",
"636 -27 OFFCURVE",
"763 43 OFFCURVE",
"831 170 CURVE",
"870 0 LINE"
);
},
{
closed = 1;
nodes = (
"663 989 OFFCURVE",
"737 932 OFFCURVE",
"780 845 CURVE SMOOTH",
"823 758 OFFCURVE",
"844 656 OFFCURVE",
"844 549 CURVE SMOOTH",
"844 289 OFFCURVE",
"726 100 OFFCURVE",
"563 100 CURVE SMOOTH",
"508 100 OFFCURVE",
"460 122 OFFCURVE",
"421 165 CURVE SMOOTH",
"341 251 OFFCURVE",
"309 383 OFFCURVE",
"309 532 CURVE SMOOTH",
"309 645 OFFCURVE",
"328 752 OFFCURVE",
"368 842 CURVE SMOOTH",
"408 932 OFFCURVE",
"480 989 OFFCURVE",
"571 989 CURVE SMOOTH"
);
}
);
width = 1236;
}
);
leftKerningGroup = c;
note = d;
rightKerningGroup = d;
unicode = 0064;
},
{
glyphname = eth;
lastChange = "2016-09-01 13:28:17 +0000";
layers = (
{
layerId = "B47A5128-4537-4D9D-B9B8-D866CD9145B5";
paths = (
{
closed = 1;
nodes = (
"314 1393 OFFCURVE",
"351 1397 OFFCURVE",
"377 1397 CURVE SMOOTH",
"498 1397 OFFCURVE",
"602 1358 OFFCURVE",
"689 1281 CURVE",
"512 1198 LINE",
"547 1114 LINE",
"754 1211 LINE",
"819 1127 OFFCURVE",
"871 992 OFFCURVE",
"881 949 CURVE SMOOTH",
"886 927 OFFCURVE",
"889 910 OFFCURVE",
"891 897 CURVE",
"888 900 OFFCURVE",
"878 908 OFFCURVE",
"863 921 CURVE SMOOTH",
"832 948 OFFCURVE",
"813 961 OFFCURVE",
"773 983 CURVE SMOOTH",
"732 1005 OFFCURVE",
"676 1016 OFFCURVE",
"612 1016 CURVE SMOOTH",
"453 1016 OFFCURVE",
"322 954 OFFCURVE",
"244 856 CURVE SMOOTH",
"166 758 OFFCURVE",
"123 634 OFFCURVE",
"123 502 CURVE SMOOTH",
"123 451 OFFCURVE",
"129 402 OFFCURVE",
"140 354 CURVE SMOOTH",
"162 258 OFFCURVE",
"214 161 OFFCURVE",
"289 93 CURVE SMOOTH",
"364 25 OFFCURVE",
"482 -20 OFFCURVE",
"623 -20 CURVE SMOOTH",
"682 -20 OFFCURVE",
"737 -13 OFFCURVE",
"787 1 CURVE SMOOTH",
"887 29 OFFCURVE",
"978 95 OFFCURVE",
"1039 196 CURVE SMOOTH",
"1100 296 OFFCURVE",
"1137 452 OFFCURVE",
"1137 647 CURVE SMOOTH",
"1137 910 OFFCURVE",
"1068 1140 OFFCURVE",
"937 1297 CURVE",
"1161 1403 LINE",
"1126 1487 LINE",
"870 1367 LINE",
"755 1469 OFFCURVE",
"616 1520 OFFCURVE",
"451 1520 CURVE SMOOTH",
"389 1520 OFFCURVE",
"321 1512 OFFCURVE",
"246 1495 CURVE",
"266 1386 LINE"
);
},
{
closed = 1;
nodes = (
"913 265 OFFCURVE",
"828 104 OFFCURVE",
"629 104 CURVE SMOOTH",
"566 104 OFFCURVE",
"513 122 OFFCURVE",
"470 158 CURVE SMOOTH",
"385 230 OFFCURVE",
"352 344 OFFCURVE",
"352 489 CURVE SMOOTH",
"352 700 OFFCURVE",
"467 879 OFFCURVE",
"623 879 CURVE SMOOTH",
"806 879 OFFCURVE",
"913 781 OFFCURVE",
"913 598 CURVE SMOOTH"
);
}
);
width = 1245;
}
);
leftKerningGroup = c;
note = eth;
unicode = 00F0;
},
{
glyphname = dcaron;
lastChange = "2016-09-01 13:28:17 +0000";
layers = (
{
layerId = "B47A5128-4537-4D9D-B9B8-D866CD9145B5";
paths = (
{
closed = 1;
nodes = (
"1303 993 OFFCURVE",
"1307 996 OFFCURVE",
"1311 997 CURVE",
"1434 1081 OFFCURVE",
"1491 1193 OFFCURVE",
"1491 1296 CURVE SMOOTH",
"1491 1429 OFFCURVE",
"1398 1505 OFFCURVE",
"1303 1505 CURVE SMOOTH",
"1230 1505 OFFCURVE",
"1153 1437 OFFCURVE",
"1153 1362 CURVE SMOOTH",
"1153 1294 OFFCURVE",
"1217 1229 OFFCURVE",
"1286 1229 CURVE SMOOTH",
"1316 1229 OFFCURVE",
"1344 1237 OFFCURVE",
"1370 1253 CURVE",
"1375 1246 OFFCURVE",
"1378 1236 OFFCURVE",
"1378 1225 CURVE SMOOTH",
"1378 1173 OFFCURVE",
"1313 1106 OFFCURVE",
"1249 1067 CURVE",
"1299 989 LINE"
);
},
{
closed = 1;
nodes = (
"1225 0 LINE",
"1225 112 LINE",
"1044 112 LINE",
"1044 1505 LINE",
"594 1505 LINE",
"594 1382 LINE",
"829 1382 LINE",
"829 942 LINE",
"762 1041 OFFCURVE",
"646 1102 OFFCURVE",
"535 1102 CURVE SMOOTH",
"255 1102 OFFCURVE",
"80 877 OFFCURVE",
"80 537 CURVE SMOOTH",
"80 198 OFFCURVE",
"255 -27 OFFCURVE",
"520 -27 CURVE SMOOTH",
"636 -27 OFFCURVE",
"763 43 OFFCURVE",
"831 170 CURVE",
"870 0 LINE"
);
},
{
closed = 1;
nodes = (
"663 989 OFFCURVE",
"737 932 OFFCURVE",
"780 845 CURVE SMOOTH",
"823 758 OFFCURVE",
"844 656 OFFCURVE",
"844 549 CURVE SMOOTH",
"844 289 OFFCURVE",
"726 100 OFFCURVE",
"563 100 CURVE SMOOTH",
"508 100 OFFCURVE",
"460 122 OFFCURVE",
"421 165 CURVE SMOOTH",
"341 251 OFFCURVE",
"309 383 OFFCURVE",
"309 532 CURVE SMOOTH",
"309 645 OFFCURVE",
"328 752 OFFCURVE",
"368 842 CURVE SMOOTH",
"408 932 OFFCURVE",
"480 989 OFFCURVE",
"571 989 CURVE SMOOTH"
);
}
);
width = 1236;
}
);
leftKerningGroup = c;
note = dcaron;
unicode = 010F;
},
{
glyphname = dcroat;
lastChange = "2016-09-01 13:28:17 +0000";
layers = (
{
layerId = "B47A5128-4537-4D9D-B9B8-D866CD9145B5";
paths = (
{
closed = 1;
nodes = (
"663 989 OFFCURVE",
"737 932 OFFCURVE",
"780 845 CURVE SMOOTH",
"823 758 OFFCURVE",
"844 656 OFFCURVE",
"844 549 CURVE SMOOTH",
"844 289 OFFCURVE",
"726 100 OFFCURVE",
"563 100 CURVE SMOOTH",
"508 100 OFFCURVE",
"460 122 OFFCURVE",
"421 165 CURVE SMOOTH",
"341 251 OFFCURVE",
"309 383 OFFCURVE",
"309 532 CURVE SMOOTH",
"309 645 OFFCURVE",
"328 752 OFFCURVE",
"368 842 CURVE SMOOTH",
"408 932 OFFCURVE",
"480 989 OFFCURVE",
"571 989 CURVE SMOOTH"
);
},
{
closed = 1;
nodes = (
"1225 0 LINE",
"1225 115 LINE",
"1044 115 LINE",
"1044 1182 LINE",
"1204 1182 LINE",
"1204 1279 LINE",
"1044 1279 LINE",
"1044 1505 LINE",
"594 1505 LINE",
"594 1382 LINE",
"829 1382 LINE",
"829 1279 LINE",
"541 1279 LINE",
"541 1182 LINE",
"829 1182 LINE",
"829 942 LINE",
"762 1041 OFFCURVE",
"646 1102 OFFCURVE",
"535 1102 CURVE SMOOTH",
"255 1102 OFFCURVE",
"80 877 OFFCURVE",
"80 537 CURVE SMOOTH",
"80 198 OFFCURVE",
"255 -27 OFFCURVE",
"520 -27 CURVE SMOOTH",
"636 -27 OFFCURVE",
"763 43 OFFCURVE",
"831 170 CURVE",
"870 0 LINE"
);
}
);
width = 1236;
}
);
leftKerningGroup = c;
note = dcroat;
unicode = 0111;
},
{
glyphname = e;
lastChange = "2016-09-01 13:28:17 +0000";
layers = (
{
layerId = "B47A5128-4537-4D9D-B9B8-D866CD9145B5";
paths = (
{
closed = 1;
nodes = (
"326 852 OFFCURVE",
"443 983 OFFCURVE",
"590 983 CURVE SMOOTH",
"735 983 OFFCURVE",
"849 852 OFFCURVE",
"854 659 CURVE",
"310 659 LINE"
);
},
{
closed = 1;
nodes = (
"74 382 OFFCURVE",
"122 248 OFFCURVE",
"208 144 CURVE SMOOTH",
"294 40 OFFCURVE",
"433 -27 OFFCURVE",
"596 -27 CURVE SMOOTH",
"833 -27 OFFCURVE",
"1001 114 OFFCURVE",
"1053 334 CURVE",
"936 371 LINE",
"893 214 OFFCURVE",
"756 123 OFFCURVE",
"617 123 CURVE SMOOTH",
"510 123 OFFCURVE",
"426 171 OFFCURVE",
"377 250 CURVE SMOOTH",
"328 329 OFFCURVE",
"303 428 OFFCURVE",
"303 543 CURVE SMOOTH",
"303 551 LINE",
"1074 551 LINE",
"1071 726 OFFCURVE",
"1016 870 OFFCURVE",
"928 962 CURVE SMOOTH",
"840 1053 OFFCURVE",
"720 1102 OFFCURVE",
"584 1102 CURVE SMOOTH",
"520 1102 OFFCURVE",
"460 1092 OFFCURVE",
"405 1071 CURVE SMOOTH",
"294 1029 OFFCURVE",
"216 953 OFFCURVE",
"159 856 CURVE SMOOTH",
"102 759 OFFCURVE",
"74 643 OFFCURVE",
"74 523 CURVE SMOOTH"
);
}
);
width = 1150;
}
);
leftKerningGroup = c;
note = e;
rightKerningGroup = e;
unicode = 0065;
},
{
glyphname = eacute;
lastChange = "2016-09-01 13:28:17 +0000";
layers = (
{
layerId = "B47A5128-4537-4D9D-B9B8-D866CD9145B5";
paths = (
{
closed = 1;
nodes = (
"326 852 OFFCURVE",
"443 983 OFFCURVE",
"590 983 CURVE SMOOTH",
"735 983 OFFCURVE",
"849 852 OFFCURVE",
"854 659 CURVE",
"310 659 LINE"
);
},
{
closed = 1;
nodes = (
"74 382 OFFCURVE",
"122 248 OFFCURVE",
"208 144 CURVE SMOOTH",
"294 40 OFFCURVE",
"433 -27 OFFCURVE",
"596 -27 CURVE SMOOTH",
"833 -27 OFFCURVE",
"1001 114 OFFCURVE",
"1053 334 CURVE",
"936 371 LINE",
"893 214 OFFCURVE",
"756 123 OFFCURVE",
"617 123 CURVE SMOOTH",
"510 123 OFFCURVE",
"426 171 OFFCURVE",
"377 250 CURVE SMOOTH",
"328 329 OFFCURVE",
"303 428 OFFCURVE",
"303 543 CURVE SMOOTH",
"303 551 LINE",
"1074 551 LINE",
"1071 726 OFFCURVE",
"1016 870 OFFCURVE",
"928 962 CURVE SMOOTH",
"840 1053 OFFCURVE",
"720 1102 OFFCURVE",
"584 1102 CURVE SMOOTH",
"520 1102 OFFCURVE",
"460 1092 OFFCURVE",
"405 1071 CURVE SMOOTH",
"294 1029 OFFCURVE",
"216 953 OFFCURVE",
"159 856 CURVE SMOOTH",
"102 759 OFFCURVE",
"74 643 OFFCURVE",
"74 523 CURVE SMOOTH"
);
},
{
closed = 1;
nodes = (
"693 1552 LINE SMOOTH",
"588 1477 OFFCURVE",
"404 1337 OFFCURVE",
"296 1245 CURVE",
"325 1206 LINE",
"439 1250 LINE SMOOTH",
"592 1307 OFFCURVE",
"813 1410 OFFCURVE",
"872 1470 CURVE",
"771 1609 LINE"
);
}
);
width = 1150;
}
);
leftKerningGroup = c;
note = eacute;
rightKerningGroup = e;
unicode = 00E9;
},
{
glyphname = ebreve;
lastChange = "2016-09-01 13:28:17 +0000";
layers = (
{
layerId = "B47A5128-4537-4D9D-B9B8-D866CD9145B5";
paths = (
{
closed = 1;
nodes = (
"692 1375 OFFCURVE",
"640 1325 OFFCURVE",
"584 1325 CURVE SMOOTH",
"525 1325 OFFCURVE",
"474 1376 OFFCURVE",
"473 1452 CURVE",
"344 1452 LINE",
"347 1399 OFFCURVE",
"367 1342 OFFCURVE",
"405 1291 CURVE SMOOTH",
"443 1240 OFFCURVE",
"509 1206 OFFCURVE",
"586 1206 CURVE SMOOTH",
"663 1206 OFFCURVE",
"729 1242 OFFCURVE",
"766 1292 CURVE SMOOTH",
"802 1342 OFFCURVE",
"822 1397 OFFCURVE",
"825 1448 CURVE",
"696 1448 LINE"
);
},
{
closed = 1;
nodes = (
"326 852 OFFCURVE",
"443 983 OFFCURVE",
"590 983 CURVE SMOOTH",
"735 983 OFFCURVE",
"849 852 OFFCURVE",
"854 659 CURVE",
"310 659 LINE"
);
},
{
closed = 1;
nodes = (
"74 382 OFFCURVE",
"122 248 OFFCURVE",
"208 144 CURVE SMOOTH",
"294 40 OFFCURVE",
"433 -27 OFFCURVE",
"596 -27 CURVE SMOOTH",
"833 -27 OFFCURVE",
"1001 114 OFFCURVE",
"1053 334 CURVE",
"936 371 LINE",
"893 214 OFFCURVE",
"756 123 OFFCURVE",
"617 123 CURVE SMOOTH",
"510 123 OFFCURVE",
"426 171 OFFCURVE",
"377 250 CURVE SMOOTH",
"328 329 OFFCURVE",
"303 428 OFFCURVE",
"303 543 CURVE SMOOTH",
"303 551 LINE",
"1074 551 LINE",
"1071 726 OFFCURVE",
"1016 870 OFFCURVE",
"928 962 CURVE SMOOTH",
"840 1053 OFFCURVE",
"720 1102 OFFCURVE",
"584 1102 CURVE SMOOTH",
"520 1102 OFFCURVE",
"460 1092 OFFCURVE",
"405 1071 CURVE SMOOTH",
"294 1029 OFFCURVE",
"216 953 OFFCURVE",
"159 856 CURVE SMOOTH",
"102 759 OFFCURVE",
"74 643 OFFCURVE",
"74 523 CURVE SMOOTH"
);
}
);
width = 1150;
}
);
leftKerningGroup = c;
note = ebreve;
rightKerningGroup = e;
unicode = 0115;
},
{
glyphname = ecaron;
lastChange = "2016-09-01 13:28:17 +0000";
layers = (
{
layerId = "B47A5128-4537-4D9D-B9B8-D866CD9145B5";
paths = (
{
closed = 1;
nodes = (
"523 1427 OFFCURVE",
"447 1518 OFFCURVE",
"346 1653 CURVE",
"247 1563 LINE",
"575 1206 LINE",
"901 1556 LINE",
"802 1649 LINE",
"763 1597 LINE SMOOTH",
"710 1529 OFFCURVE",
"622 1421 OFFCURVE",
"575 1380 CURVE"
);
},
{
closed = 1;
nodes = (
"326 852 OFFCURVE",
"443 983 OFFCURVE",
"590 983 CURVE SMOOTH",
"735 983 OFFCURVE",
"849 852 OFFCURVE",
"854 659 CURVE",
"310 659 LINE"
);
},
{
closed = 1;
nodes = (
"74 382 OFFCURVE",
"122 248 OFFCURVE",
"208 144 CURVE SMOOTH",
"294 40 OFFCURVE",
"433 -27 OFFCURVE",
"596 -27 CURVE SMOOTH",
"833 -27 OFFCURVE",
"1001 114 OFFCURVE",
"1053 334 CURVE",
"936 371 LINE",
"893 214 OFFCURVE",
"756 123 OFFCURVE",
"617 123 CURVE SMOOTH",
"510 123 OFFCURVE",
"426 171 OFFCURVE",
"377 250 CURVE SMOOTH",
"328 329 OFFCURVE",
"303 428 OFFCURVE",
"303 543 CURVE SMOOTH",
"303 551 LINE",
"1074 551 LINE",
"1071 726 OFFCURVE",
"1016 870 OFFCURVE",
"928 962 CURVE SMOOTH",
"840 1053 OFFCURVE",
"720 1102 OFFCURVE",
"584 1102 CURVE SMOOTH",
"520 1102 OFFCURVE",
"460 1092 OFFCURVE",
"405 1071 CURVE SMOOTH",
"294 1029 OFFCURVE",
"216 953 OFFCURVE",
"159 856 CURVE SMOOTH",
"102 759 OFFCURVE",
"74 643 OFFCURVE",
"74 523 CURVE SMOOTH"
);
}
);
width = 1150;
}
);
leftKerningGroup = c;
note = ecaron;
rightKerningGroup = e;
unicode = 011B;
},
{
glyphname = ecircumflex;
lastChange = "2016-09-01 13:28:17 +0000";
layers = (
{
layerId = "B47A5128-4537-4D9D-B9B8-D866CD9145B5";
paths = (
{
closed = 1;
nodes = (
"625 1432 OFFCURVE",
"701 1341 OFFCURVE",
"802 1206 CURVE",
"901 1296 LINE",
"573 1653 LINE",
"247 1302 LINE",
"346 1210 LINE",
"385 1261 LINE SMOOTH",
"438 1330 OFFCURVE",
"526 1438 OFFCURVE",
"573 1479 CURVE"
);
},
{
closed = 1;
nodes = (
"326 852 OFFCURVE",
"443 983 OFFCURVE",
"590 983 CURVE SMOOTH",
"735 983 OFFCURVE",
"849 852 OFFCURVE",
"854 659 CURVE",
"310 659 LINE"
);
},
{
closed = 1;
nodes = (
"74 382 OFFCURVE",
"122 248 OFFCURVE",
"208 144 CURVE SMOOTH",
"294 40 OFFCURVE",
"433 -27 OFFCURVE",
"596 -27 CURVE SMOOTH",
"833 -27 OFFCURVE",
"1001 114 OFFCURVE",
"1053 334 CURVE",
"936 371 LINE",
"893 214 OFFCURVE",
"756 123 OFFCURVE",
"617 123 CURVE SMOOTH",
"510 123 OFFCURVE",
"426 171 OFFCURVE",
"377 250 CURVE SMOOTH",
"328 329 OFFCURVE",
"303 428 OFFCURVE",
"303 543 CURVE SMOOTH",
"303 551 LINE",
"1074 551 LINE",
"1071 726 OFFCURVE",
"1016 870 OFFCURVE",
"928 962 CURVE SMOOTH",
"840 1053 OFFCURVE",
"720 1102 OFFCURVE",
"584 1102 CURVE SMOOTH",
"520 1102 OFFCURVE",
"460 1092 OFFCURVE",
"405 1071 CURVE SMOOTH",
"294 1029 OFFCURVE",
"216 953 OFFCURVE",
"159 856 CURVE SMOOTH",
"102 759 OFFCURVE",
"74 643 OFFCURVE",
"74 523 CURVE SMOOTH"
);
}
);
width = 1150;
}
);
leftKerningGroup = c;
note = ecircumflex;
rightKerningGroup = e;
unicode = 00EA;
},
{
glyphname = edieresis;
lastChange = "2016-09-01 13:28:17 +0000";
layers = (
{
layerId = "B47A5128-4537-4D9D-B9B8-D866CD9145B5";
paths = (
{
closed = 1;
nodes = (
"198 1268 OFFCURVE",
"259 1206 OFFCURVE",
"335 1206 CURVE SMOOTH",
"408 1206 OFFCURVE",
"472 1270 OFFCURVE",
"472 1343 CURVE SMOOTH",
"472 1419 OFFCURVE",
"410 1482 OFFCURVE",
"335 1482 CURVE SMOOTH",
"259 1482 OFFCURVE",
"198 1419 OFFCURVE",
"198 1343 CURVE SMOOTH"
);
},
{
closed = 1;
nodes = (
"673 1268 OFFCURVE",
"734 1206 OFFCURVE",
"810 1206 CURVE SMOOTH",
"885 1206 OFFCURVE",
"950 1270 OFFCURVE",
"950 1343 CURVE SMOOTH",
"950 1419 OFFCURVE",
"885 1482 OFFCURVE",
"810 1482 CURVE SMOOTH",
"734 1482 OFFCURVE",
"673 1419 OFFCURVE",
"673 1343 CURVE SMOOTH"
);
},
{
closed = 1;
nodes = (
"326 852 OFFCURVE",
"443 983 OFFCURVE",
"590 983 CURVE SMOOTH",
"735 983 OFFCURVE",
"849 852 OFFCURVE",
"854 659 CURVE",
"310 659 LINE"
);
},
{
closed = 1;
nodes = (
"74 382 OFFCURVE",
"122 248 OFFCURVE",
"208 144 CURVE SMOOTH",
"294 40 OFFCURVE",
"433 -27 OFFCURVE",
"596 -27 CURVE SMOOTH",
"833 -27 OFFCURVE",
"1001 114 OFFCURVE",
"1053 334 CURVE",
"936 371 LINE",
"893 214 OFFCURVE",
"756 123 OFFCURVE",
"617 123 CURVE SMOOTH",
"510 123 OFFCURVE",
"426 171 OFFCURVE",
"377 250 CURVE SMOOTH",
"328 329 OFFCURVE",
"303 428 OFFCURVE",
"303 543 CURVE SMOOTH",
"303 551 LINE",
"1074 551 LINE",
"1071 726 OFFCURVE",
"1016 870 OFFCURVE",
"928 962 CURVE SMOOTH",
"840 1053 OFFCURVE",
"720 1102 OFFCURVE",
"584 1102 CURVE SMOOTH",
"520 1102 OFFCURVE",
"460 1092 OFFCURVE",
"405 1071 CURVE SMOOTH",
"294 1029 OFFCURVE",
"216 953 OFFCURVE",
"159 856 CURVE SMOOTH",
"102 759 OFFCURVE",
"74 643 OFFCURVE",
"74 523 CURVE SMOOTH"
);
}
);
width = 1150;
}
);
leftKerningGroup = c;
note = edieresis;
rightKerningGroup = e;
unicode = 00EB;
},
{
glyphname = edotaccent;
lastChange = "2016-09-01 13:28:17 +0000";
layers = (
{
layerId = "B47A5128-4537-4D9D-B9B8-D866CD9145B5";
paths = (
{
closed = 1;
nodes = (
"436 1274 OFFCURVE",
"503 1206 OFFCURVE",
"584 1206 CURVE SMOOTH",
"664 1206 OFFCURVE",
"733 1274 OFFCURVE",
"733 1354 CURVE SMOOTH",
"733 1435 OFFCURVE",
"664 1503 OFFCURVE",
"584 1503 CURVE SMOOTH",
"503 1503 OFFCURVE",
"436 1437 OFFCURVE",
"436 1354 CURVE SMOOTH"
);
},
{
closed = 1;
nodes = (
"326 852 OFFCURVE",
"443 983 OFFCURVE",
"590 983 CURVE SMOOTH",
"735 983 OFFCURVE",
"849 852 OFFCURVE",
"854 659 CURVE",
"310 659 LINE"
);
},
{
closed = 1;
nodes = (
"74 382 OFFCURVE",
"122 248 OFFCURVE",
"208 144 CURVE SMOOTH",
"294 40 OFFCURVE",
"433 -27 OFFCURVE",
"596 -27 CURVE SMOOTH",
"833 -27 OFFCURVE",
"1001 114 OFFCURVE",
"1053 334 CURVE",
"936 371 LINE",
"893 214 OFFCURVE",
"756 123 OFFCURVE",
"617 123 CURVE SMOOTH",
"510 123 OFFCURVE",
"426 171 OFFCURVE",
"377 250 CURVE SMOOTH",
"328 329 OFFCURVE",
"303 428 OFFCURVE",
"303 543 CURVE SMOOTH",
"303 551 LINE",
"1074 551 LINE",
"1071 726 OFFCURVE",
"1016 870 OFFCURVE",
"928 962 CURVE SMOOTH",
"840 1053 OFFCURVE",
"720 1102 OFFCURVE",
"584 1102 CURVE SMOOTH",
"520 1102 OFFCURVE",
"460 1092 OFFCURVE",
"405 1071 CURVE SMOOTH",
"294 1029 OFFCURVE",
"216 953 OFFCURVE",
"159 856 CURVE SMOOTH",
"102 759 OFFCURVE",
"74 643 OFFCURVE",
"74 523 CURVE SMOOTH"
);
}
);
width = 1150;
}
);
leftKerningGroup = c;
note = edotaccent;
rightKerningGroup = e;
unicode = 0117;
},
